<svg xmlns="http://www.w3.org/2000/svg" version="1.1" xmlns:xlink="http://www.w3.org/1999/xlink" width="512" height="512" x="0" y="0" viewBox="0 0 512 512" style="enable-background:new 0 0 512 512" xml:space="preserve" class=""><g><path d="M143.733 105.848c17.436 0 31.614 14.178 31.614 31.614 0 17.415-14.178 31.582-31.614 31.582-17.415 0-31.582-14.167-31.582-31.582 0-17.436 14.167-31.614 31.582-31.614zm-121.889 5.006 26.563 17.147a7.427 7.427 0 0 0 10.465-2.528l5.513-9.554 11.937 10.367a7.432 7.432 0 0 0 10.482-.738 7.43 7.43 0 0 0-.738-10.482l-18.74-16.274a7.43 7.43 0 0 0-11.308 1.896l-6.113 10.594-20.003-12.913a7.43 7.43 0 1 0-8.058 12.485zm61.251-41.176a7.429 7.429 0 0 0 10.326 3.044l9.564-5.52 5.18 14.962a7.432 7.432 0 0 0 7.021 5.001 7.43 7.43 0 0 0 7.021-9.863l-8.123-23.464a7.431 7.431 0 0 0-10.735-4.005l-10.595 6.114L81.91 34.8a7.43 7.43 0 0 0-13.224 6.782zm68.071-16.814 10.953 1.475-5.059 14.986a7.431 7.431 0 0 0 14.08 4.753l7.942-23.524a7.43 7.43 0 0 0-6.049-9.74l-12.136-1.634 4.37-23.389a7.43 7.43 0 0 0-14.608-2.729l-5.806 31.074a7.43 7.43 0 0 0 6.313 8.728zm221.516 323.5a31.968 31.968 0 0 0-15.621-4.096 31.33 31.33 0 0 0-15.727 4.224c-15.101 8.723-20.291 28.101-11.578 43.181 8.713 15.091 28.08 20.28 43.16 11.567 15.091-8.723 20.291-28.101 11.567-43.181a31.427 31.427 0 0 0-11.801-11.695zm75.205 106.566-21.183-10.875 6.117-10.598a7.426 7.426 0 0 0 .525-6.311 7.424 7.424 0 0 0-4.531-4.424l-23.464-8.122a7.43 7.43 0 1 0-4.861 14.043l14.962 5.179-5.521 9.566a7.428 7.428 0 0 0 3.043 10.324l28.127 14.439a7.428 7.428 0 0 0 10.003-3.217 7.43 7.43 0 0 0-3.217-10.004zm63.613-60.381-50.323 32.994c-11.864-16.852-22.509-33.333-32.081-49.729l9.233-1.783v11.058c0 2.038.828 3.98 2.303 5.38a7.461 7.461 0 0 0 5.126 2.048c.117 0 .244 0 .372-.011l31.55-1.56c4.096-.202 7.259-3.693 7.057-7.789s-3.704-7.259-7.789-7.057l-23.761 1.178v-12.257a7.43 7.43 0 0 0-2.696-5.731 7.44 7.44 0 0 0-6.145-1.56l-22.986 4.447a561.902 561.902 0 0 1-16.067-31.497 7.313 7.313 0 0 0 4.17-2.388l10.453-11.886 6.76 8.734a7.433 7.433 0 0 0 5.115 2.844 7.412 7.412 0 0 0 5.593-1.751l24.005-20.545c3.12-2.664 3.481-7.354.806-10.474-2.663-3.12-7.354-3.481-10.474-.817l-18.073 15.473-7.492-9.678a7.423 7.423 0 0 0-5.646-2.876 7.411 7.411 0 0 0-5.815 2.515l-15.43 17.553c-8.554-19.527-15.876-39.435-22.222-60.224a329.988 329.988 0 0 1 12.809-28.08c1.878-3.651.435-8.129-3.215-10.007-3.651-1.868-8.129-.435-9.997 3.216a350.417 350.417 0 0 0-14.359 31.741c-.01.021-.021.053-.032.074-.032.074-.053.149-.075.223a2.555 2.555 0 0 0-.127.403c-.032.053-.042.106-.053.159a5.465 5.465 0 0 0-.127.562c-5.561 25.331-9.795 49.729-12.618 72.619a46.02 46.02 0 0 0-15.356 5.55c-10.75 6.219-18.444 16.237-21.659 28.218-3.216 11.992-1.56 24.514 4.658 35.264 6.431 11.153 16.831 18.635 28.399 21.681.923 19.59 3.13 38.438 6.579 56.224H160.129c12.066-61.891 8.798-133.842-9.965-219.557a5.349 5.349 0 0 0-.127-.562.85.85 0 0 0-.042-.159c-.042-.138-.084-.276-.138-.403-.021-.074-.042-.148-.074-.223-.011-.021-.021-.053-.032-.074-4.117-10.485-8.957-21.15-14.39-31.741-1.868-3.651-6.346-5.083-9.997-3.216-3.651 1.878-5.094 6.357-3.215 10.007 4.797 9.36 9.116 18.784 12.84 28.059-18.157 59.418-44.284 111.726-84.165 168.406L.5 422.549c25.851-84.25 50.143-154.164 83.529-220.034 6.749-13.34 15.398-24.143 26.297-32.834 8.437 8.766 20.301 14.231 33.407 14.231 25.628 0 46.481-20.843 46.481-46.45a46.31 46.31 0 0 0-2.876-16.099c9.212-7.28 17.531-14.921 25.321-23.251a7.418 7.418 0 0 0 2.005-5.083V63.547h82.701v29.481a7.45 7.45 0 0 0 1.995 5.073c25.82 27.698 56.15 45.42 85.089 60.447 19.707 10.251 33.535 24.217 43.521 43.967 33.387 65.87 57.679 135.783 83.53 220.034zM263.429 81.302c0-4.107-3.322-7.429-7.429-7.429s-7.429 3.322-7.429 7.429v407.701a7.43 7.43 0 0 0 14.858 0z" fill="#e1bb23" opacity="1" data-original="#000000" class=""></path></g></svg>