<svg xmlns="http://www.w3.org/2000/svg" version="1.1" xmlns:xlink="http://www.w3.org/1999/xlink" width="512" height="512" x="0" y="0" viewBox="0 0 64 64" style="enable-background:new 0 0 512 512" xml:space="preserve" class=""><g><path d="M29.328 28.543 10.4 14.345l1.692-2.481L30.6 25.746A6.313 6.313 0 0 0 34.362 27a4.384 4.384 0 0 1 3.121 1.293 3.829 3.829 0 0 1 0 5.414A7.777 7.777 0 0 1 31.947 36h-2.221a1.121 1.121 0 0 1-.793-1.914l.739-.739a3.189 3.189 0 0 0-.344-4.8ZM39.6 61h-3V50.5a5.506 5.506 0 0 0-5.5-5.5 1.5 1.5 0 0 1 0-3h.32a19.717 19.717 0 0 0 10.138-2.808 1.348 1.348 0 0 1 2.042 1.157 3.719 3.719 0 0 1-.812 2.316 14.594 14.594 0 0 0-3.188 9.087Zm-7-13.649a3.494 3.494 0 0 1 2 3.149V61h-2Zm15.5-8.485-3.252 13.041A41.636 41.636 0 0 0 43.616 61H41.6v-9.248a12.593 12.593 0 0 1 2.75-7.838 5.725 5.725 0 0 0 1.25-3.565 3.348 3.348 0 0 0-5.072-2.871A17.713 17.713 0 0 1 31.424 40H31.1a3.492 3.492 0 0 0-.5 6.949V61h-7.28l-.339-1.015a26.915 26.915 0 0 1-1.381-8.518 15.127 15.127 0 0 1 2.156-7.782 5.927 5.927 0 0 0-1.794-7.979L4 23.729 9.27 16l18.859 14.144a1.189 1.189 0 0 1 .128 1.79l-.738.738A3.12 3.12 0 0 0 29.726 38h2.221a9.764 9.764 0 0 0 6.95-2.879 5.828 5.828 0 0 0 0-8.242A6.369 6.369 0 0 0 34.362 25a4.3 4.3 0 0 1-2.564-.854L13.217 10.21l4.625-6.782L41.943 21.5a16.656 16.656 0 0 1 6.164 17.362ZM52.4 18.2l-2.116 1.587.557-4.453 1.843.615a1 1 0 0 0 1.3-.784l.808-4.846 3.847 1.281-3.184 7.163-2.139-.713a1 1 0 0 0-.916.15ZM60 33.46 54.463 31l2.443-1.086A249.95 249.95 0 0 0 60 28.526ZM56.382 50.191l.6-3a1 1 0 0 0-.533-1.091L53 44.382v-2.513l1.445.963a1 1 0 0 0 .8.138l3.03-.757 1.563 6.25Z" fill="#e1bb23" opacity="1" data-original="#000000" class=""></path></g></svg>