<svg xmlns="http://www.w3.org/2000/svg" version="1.1" xmlns:xlink="http://www.w3.org/1999/xlink" width="512" height="512" x="0" y="0" viewBox="0 0 52 52" style="enable-background:new 0 0 512 512" xml:space="preserve"><g><path d="M3.6 48c.4.2.9.3 1.4.3h1.3c6.7-.2 13.5-.3 20.2-.5-6.7-.2-13.5-.3-20.2-.5H5.1c-1.1 0-2-.8-2.4-1.8-.1-.3-.1-.6-.1-1.1.4-28 .2-16.8.3-29.1 0-1.2 1.1-2.3 2.4-2.2l20.2.1 20.2-.1h1.2c1 0 1.8.6 2.1 1.5.1.3.1.5.1 1v3.8c0 4.7 0 6.7.3 25.3.1 1.4-1.2 2.7-2.7 2.7-6.7.2-13.5.3-20.2.5 6.7.2 13.5.3 20.2.5.9 0 2-.3 2.7-1s1.2-1.6 1.2-2.6c.4-27.9.3-18.5.3-27.8v-1.3c0-.4 0-1-.2-1.5-.3-1-1.1-1.9-2.1-2.3-.5-.2-1-.4-1.6-.4H37.3l.1-3.3c0-.3 0-.8-.1-1.2s-.3-.9-.5-1.3c-.5-.8-1.2-1.4-2.1-1.7-.4-.1-.9-.2-1.3-.2H18.6c-.4 0-.9 0-1.3.2-1.3.4-2.4 1.6-2.6 2.9-.1.4-.1.9-.1 1.2l.1 3.3H5.3c-1 0-2.2.4-2.9 1.1-.8.7-1.2 1.8-1.2 2.9 0 10.6-.1 3.6.2 29.1 0 .4.1 1 .2 1.4.4 1 1.1 1.7 2 2.1zM16.3 8.1c0-.4 0-.6.1-.9.2-.7.7-1.3 1.5-1.5.3-.1.4-.1.8-.1h14.8c.3 0 .5 0 .8.1.5.1.9.4 1.2.9.1.2.2.4.3.7.1.2.1.5.1.9l.1 3.3H16.3z" fill="#e1bb23" opacity="1" data-original="#000000"></path><path d="M26 17.6c3.3.2 6.4 1.6 8.5 4 2.1 2.3 3.3 5.4 3.2 8.5s-1.4 6-3.5 8.1C32 40.3 29 41.6 26 41.5c-3 0-6-1.2-8.1-3.3-2.2-2.1-3.5-5.1-3.5-8.1-.1-3.1 1.1-6.2 3.2-8.5 2-2.3 5.1-3.8 8.4-4-3.3-.2-6.7 1-9.2 3.3s-4 5.7-4.1 9.2 1.3 7 3.8 9.5 6 4 9.5 4 7-1.5 9.5-4 3.9-6 3.8-9.5-1.6-6.9-4.1-9.2-5.9-3.5-9.2-3.3z" fill="#e1bb23" opacity="1" data-original="#000000"></path><path d="M17.6 28.1c-.1.6-.1.8-.1 1.1 0 .1-.1 1.9-.1 1.8 0 .3-.1.5.1 1.1.1.5.5 1 1 1.2.2.1.6.2.8.2h.4c.2 0 2.8.1 2.7.1h.1v3.2c0 .2 0 .6.2.8.2.5.7 1 1.3 1.1.3.1.7.1.7.1h2.6c.1 0 .5 0 .7-.1.6-.2 1-.6 1.3-1.1.1-.3.2-.6.2-.8v-3.2H32.7c.2 0 .5 0 .8-.2.5-.2.9-.7 1-1.2.1-.6 0-.8.1-1.1v-1.8c0-.3 0-.5-.1-1.1-.2-.5-.5-.9-1-1.1-.2-.1-.5-.1-.7-.1h-.4c-.2 0-2.8.1-2.7.1-.2 0-.3 0-.5-.1-.1-.1-.2-.2-.2-.5l-.1-.9-.1-1.8v-.4c0-.2 0-.4-.1-.5-.2-.3-.5-.6-.8-.6-.4-.1-.6 0-.9 0h-1l.9.1c.3 0 .6 0 .8.1s.4.3.5.5v.8l-.1 1.8-.1.9c0 .4.1.9.4 1.2s.8.5 1.2.5h.9c.1 0 2.4.1 2.2.1h.2c.1 0 .1.1.2.2v3.1l-.1.1h-3.5c-.1 0-.3 0-.4.1-.3.1-.5.2-.7.4s-.4.4-.5.7c-.1.1-.1.3-.1.4v3.6h-3v-3.6c0-.1-.1-.3-.1-.4-.1-.3-.3-.5-.5-.7s-.5-.3-.7-.4c-.1 0-.3-.1-.4-.1h-3.5l-.1-.1V28.5c0-.1.1-.2.2-.2H20.3l1.8-.1h.9c.3 0 .9-.2 1.2-.5s.4-.8.4-1.2l-.1-.9-.1-1.8V23c.1-.2.3-.4.5-.5s.6-.1.8-.1l.9-.1-.9-.1c-.3 0-.6-.1-.9 0s-.6.3-.8.6c-.1.2-.1.4-.1.5v.4l-.1 1.8-.1.9c0 .2-.1.3-.2.5-.1.1-.2.1-.5.1h-.9l-1.8-.1h-.4c-.2 0-.5 0-.7.1-1.1.2-1.5.6-1.6 1.1z" fill="#e1bb23" opacity="1" data-original="#000000"></path></g></svg>