<svg width="817" height="173" viewBox="0 0 817 173" fill="none" xmlns="http://www.w3.org/2000/svg">
<path d="M99.5636 100.847L74.2885 30.1201C74.2838 30.106 74.2749 30.0938 74.263 30.085C74.2511 30.0762 74.2367 30.0713 74.2219 30.071C74.2071 30.0707 74.1926 30.075 74.1803 30.0833C74.1681 30.0916 74.1587 30.1035 74.1534 30.1173L47.6272 102.972C47.6081 103.022 47.5786 103.067 47.5406 103.105C47.5026 103.143 47.4569 103.173 47.4067 103.192C45.2552 104.002 43.9829 104.489 43.5897 104.653C39.7809 106.233 36.1825 108.091 32.7945 110.228C32.7839 110.234 32.7715 110.237 32.7592 110.236C32.7469 110.235 32.7351 110.231 32.7255 110.223C32.7159 110.215 32.7089 110.205 32.7055 110.193C32.7021 110.181 32.7024 110.168 32.7063 110.156L74.1204 0.0303208C74.1238 0.0213703 74.1298 0.0136625 74.1377 0.00824308C74.1456 0.00282362 74.1549 -5.21388e-05 74.1645 7.15705e-07H87.4621C87.5037 0.000117497 87.5444 0.0114743 87.5799 0.032844C87.6153 0.0542137 87.6442 0.084786 87.6633 0.121264C87.8268 0.428097 87.9434 0.763405 88.0133 1.12719C88.0151 1.13262 88.0169 1.13912 88.0188 1.14649L123.571 97.7159C123.582 97.7478 123.583 97.7824 123.573 97.8146C123.563 97.8469 123.543 97.8751 123.516 97.8951C119.729 100.695 115.956 101.263 110.94 101.478C107.234 101.636 103.503 101.475 99.7455 100.996C99.7047 100.99 99.6662 100.973 99.6341 100.947C99.6021 100.92 99.5776 100.886 99.5636 100.847Z" fill="#E1BB23"/>
<path d="M144.924 48.1385C146.214 46.755 146.393 43.5084 146.189 41.6619C146.174 41.5351 145.968 39.696 145.571 36.1444C145.279 33.5446 145.38 31.2112 145.875 29.1443C146.55 26.3084 148.388 23.8941 150.681 21.9925C153.476 19.6775 156.411 17.368 158.83 14.5266C160.552 12.5055 161.501 10.1978 161.677 7.60354C161.678 7.58902 161.683 7.57502 161.692 7.56371C161.701 7.5524 161.714 7.54441 161.728 7.54096C161.742 7.53751 161.757 7.53879 161.77 7.54462C161.783 7.55046 161.794 7.56051 161.801 7.57322C161.934 7.79002 162.119 8.02061 162.358 8.26497C162.49 8.39726 162.672 8.62692 162.904 8.95397C164.131 10.6774 164.927 12.6075 165.291 14.7443C165.355 15.1209 165.381 15.5619 165.368 16.0671C165.36 16.3942 165.361 16.8379 165.37 17.3983C165.392 18.8038 165.103 20.3352 164.502 21.9925C164.1 23.0949 163.257 24.0567 162.386 25.2335C161.44 26.5178 160.106 27.9867 159.481 28.9927C158.767 30.1337 158.571 31.3049 158.514 32.9199C158.482 33.8331 158.616 34.5331 158.916 35.02C160.054 36.8665 162.664 35.8578 163.791 34.2979C164.941 32.7087 165.552 30.8916 165.624 28.8466C165.625 28.8366 165.629 28.8272 165.636 28.8198C165.643 28.8124 165.652 28.8074 165.662 28.8056C165.672 28.8037 165.682 28.8051 165.691 28.8095C165.7 28.8139 165.708 28.8211 165.712 28.8301C166.776 31.2682 167.429 33.7633 167.672 36.3153C168.162 41.5048 166.969 46.066 163.879 50.2027C162.127 52.548 159.886 54.0859 157.152 55.1249C154.848 56.0013 152.911 56.5469 150.948 56.9466C148.339 57.4775 146.213 58.7719 144.568 60.8297C144.473 60.9504 144.395 61.084 144.337 61.2266C143.881 62.329 143.563 63.6427 143.383 65.1676C143.273 66.101 143.346 67.4514 143.604 69.2189C143.969 71.7361 144.192 73.2831 144.271 73.86C144.48 75.4088 144.326 77.6577 143.386 78.9806C143.366 79.0085 143.338 79.0296 143.306 79.0406C143.273 79.0517 143.238 79.0521 143.206 79.0419C143.173 79.0317 143.145 79.0114 143.125 78.984C143.106 78.9566 143.096 78.9235 143.097 78.8896C143.105 76.6986 143.044 75.1691 142.438 73.1793C141.936 71.5294 141.393 70.1266 140.809 68.9709C140.556 68.4693 140.363 67.9686 140.23 67.4689C139.99 66.5557 139.858 66.0339 139.836 65.9035C139.513 63.9706 139.743 62.159 140.525 60.4687C141.606 58.1399 144.193 56.2576 146.431 54.9319C146.444 54.9252 146.455 54.9139 146.46 54.9001C146.465 54.8863 146.466 54.8711 146.461 54.8572C146.455 54.8433 146.445 54.8318 146.432 54.8247C146.419 54.8177 146.404 54.8156 146.39 54.8189C144.141 55.2066 142.224 56.1859 140.638 57.7568C138.276 60.0939 137.284 63.4093 138.411 66.5319C138.694 67.3164 138.971 68.0522 139.241 68.7394C139.544 69.5092 139.806 70.2497 140.026 70.9607C140.519 72.5426 140.861 73.657 141.054 74.3037C141.108 74.4838 141.334 75.4796 141.732 77.2912C142.835 82.2979 142.299 87.0767 140.126 91.6278C139.767 92.3756 139.083 93.6709 138.072 95.5137C134.421 102.178 128.856 107.588 121.851 110.388C116.712 112.44 111.45 113.427 106.065 113.348C104.031 113.316 101.389 113.109 98.1383 112.725C90.8993 111.87 83.6731 111.292 76.4598 110.989C69.4284 110.691 63.7695 110.809 59.483 111.344C47.0591 112.893 35.6906 117.384 25.3778 124.818C19.5755 129.002 14.4264 133.904 9.93053 139.524C9.92309 139.533 9.91258 139.539 9.90106 139.54C9.88954 139.542 9.87783 139.539 9.86821 139.533C9.85858 139.526 9.85172 139.516 9.84898 139.505C9.84624 139.494 9.84779 139.482 9.85335 139.472C15.0107 129.941 21.9117 121.916 30.5563 115.395C31.3463 114.8 32.581 113.972 34.2603 112.912C34.2767 112.901 34.2907 112.887 34.3016 112.871L34.3843 112.725C34.3879 112.721 34.3917 112.718 34.3953 112.717L38.1738 110.652C38.1884 110.645 38.2014 110.637 38.2124 110.627C38.8187 110.164 39.2339 109.898 39.4581 109.828C39.7741 109.731 40.1654 109.546 40.6321 109.274C40.8306 109.157 41.492 108.854 42.6164 108.365C43.061 108.17 43.3844 108.002 43.5865 107.86C43.6677 107.803 43.7621 107.768 43.8594 107.761C44.0633 107.745 44.4298 107.598 44.959 107.32C45.0379 107.28 45.119 107.246 45.2015 107.218C46.122 106.919 46.8459 106.666 47.3732 106.46C48.2478 106.119 48.9653 105.861 49.5257 105.689C53.3675 104.507 56.9236 103.689 60.194 103.233C67.0105 102.283 74.1668 101.963 81.6631 102.271C83.833 102.36 85.8164 102.517 87.6133 102.743C90.6752 103.126 94.167 103.589 97.7801 103.911C99.6413 104.078 101.057 104.209 102.027 104.303C103.648 104.462 105.33 104.558 107.073 104.589C107.985 104.604 109.668 104.561 112.125 104.46C113.957 104.382 115.563 104.203 116.942 103.922C117.725 103.762 118.214 103.672 118.409 103.652C118.48 103.645 118.55 103.633 118.618 103.616C118.936 103.537 119.675 103.265 120.837 102.801C125.088 101.094 128.409 98.2587 130.799 94.2956C132.301 91.806 132.379 89.2696 131.034 86.6863C130.656 85.9615 130.199 85.165 129.601 84.5146C129.209 84.0883 128.742 83.5748 128.198 82.974C128.126 82.8935 128.044 82.8231 127.953 82.7645C122.383 79.2038 119.767 73.284 120.586 66.7082C120.948 63.7924 121.775 60.9997 123.066 58.3301C123.072 58.3196 123.081 58.3113 123.093 58.3063C123.104 58.3014 123.116 58.3 123.128 58.3024C123.14 58.3049 123.151 58.311 123.159 58.3199C123.167 58.3288 123.172 58.3401 123.174 58.3521C123.282 60.1729 123.595 61.9551 124.113 63.6987C124.372 64.5696 124.973 65.7299 125.886 66.1791C126.411 66.4363 126.782 66.6476 126.999 66.8129C127.732 67.3752 128.328 68.0945 128.788 68.9709C128.797 68.9887 128.811 69.0031 128.829 69.0121C128.847 69.0211 128.867 69.0241 128.887 69.0207C128.907 69.0173 128.925 69.0077 128.939 68.9933C128.952 68.9789 128.961 68.9604 128.964 68.9406C129.082 68.2516 129.029 67.5837 128.807 66.937C128.461 65.9264 127.975 64.8865 127.346 63.8172C127.299 63.735 127.263 63.6468 127.241 63.5554C127.013 62.5991 126.668 61.6372 126.503 60.5073C125.856 56.0665 126.392 51.7515 128.11 47.5625C130.651 41.3753 135.518 36.4889 141.22 32.9778C141.455 32.8327 141.689 32.6627 141.923 32.468C141.987 32.4143 142.067 32.3825 142.151 32.377C142.304 32.3697 142.516 32.2548 142.788 32.0325C142.8 32.0226 142.814 32.0161 142.83 32.0139C142.845 32.0118 142.861 32.0139 142.875 32.0201C142.889 32.0264 142.902 32.0364 142.911 32.0493C142.921 32.0622 142.927 32.0773 142.928 32.0932C143.057 33.5299 143.179 34.6397 143.295 35.4224C143.386 36.0259 143.64 36.8059 143.962 37.459C144.282 38.1095 144.476 38.5476 144.543 38.7736C145.423 41.6454 145.74 45.2254 144.844 48.0916C144.84 48.102 144.839 48.1136 144.843 48.1242C144.847 48.1348 144.854 48.1437 144.864 48.1494C144.873 48.155 144.885 48.1571 144.896 48.1551C144.907 48.1531 144.917 48.1472 144.924 48.1385Z" fill="#E1BB23"/>
<path d="M158.882 57.3516C158.949 57.3626 159.001 57.3617 159.04 57.3488C162.493 56.2078 165.196 53.6007 167.12 50.5884C167.129 50.5753 167.142 50.5653 167.157 50.5597C167.171 50.5541 167.188 50.5532 167.203 50.5571C167.218 50.561 167.232 50.5695 167.242 50.5815C167.253 50.5936 167.259 50.6085 167.261 50.6242C167.43 53.0054 167.442 55.2552 167.296 57.3736C167.12 59.9808 166.672 63.0528 165.952 66.5896C164.965 71.4346 162.835 76.693 159.949 80.7608C157.018 84.8985 153.277 88.2764 148.724 90.8946C148.707 90.9035 148.688 90.9065 148.669 90.9031C148.65 90.8997 148.633 90.89 148.62 90.8758C148.607 90.8615 148.6 90.8433 148.599 90.8243C148.598 90.8052 148.603 90.7863 148.614 90.7705C148.799 90.5207 148.956 90.2607 149.085 89.9906C149.553 89.0095 149.977 87.8097 150.355 86.3913C150.592 85.4947 150.716 84.2343 150.727 82.6101C150.739 81.03 150.822 79.2524 150.978 77.2773C151.129 75.3628 151.855 73.7055 153.156 72.3055C153.165 72.2957 153.171 72.283 153.172 72.2695C153.173 72.256 153.17 72.2425 153.163 72.2311C153.155 72.2196 153.144 72.211 153.132 72.2065C153.119 72.202 153.105 72.2019 153.092 72.2063C151.225 72.8383 150.121 74.1318 149.779 76.0867C149.562 77.3296 149.396 78.1895 149.349 79.3415C149.242 82.0479 149.137 84.396 148.801 86.496C148.548 88.078 147.939 89.5928 146.977 91.0406C145.235 93.6533 142.81 95.2564 139.701 95.8498C139.672 95.8561 139.641 95.8531 139.614 95.8413C139.587 95.8296 139.564 95.8096 139.548 95.7841C139.533 95.7586 139.526 95.729 139.528 95.6993C139.53 95.6695 139.541 95.6412 139.56 95.6183C139.599 95.5687 139.681 95.5071 139.806 95.4337C139.842 95.4117 139.876 95.3858 139.905 95.3565C141.979 93.2895 143.406 90.8799 144.185 88.1276C144.883 85.66 145.431 83.3763 145.827 81.2762C145.844 81.1884 145.849 81.0995 145.844 81.0116C145.805 80.3585 145.965 79.8045 146.015 79.1706C146.108 77.9837 146.073 76.8179 145.907 75.6733C145.541 73.1047 145.417 70.459 145.425 68.607C145.443 65.4505 146.628 62.8488 148.977 60.8021C149.345 60.4824 149.848 60.0901 150.488 59.6252C150.743 59.4378 151.691 58.9822 153.332 58.2583C153.399 58.2272 153.471 58.2068 153.544 58.1977C155.382 57.9358 157.052 57.8945 158.747 57.3626C158.791 57.3481 158.837 57.3443 158.882 57.3516Z" fill="#E1BB23"/>
<path d="M110.467 116.182C111.173 116.173 111.866 116.116 112.548 116.011C115.552 115.55 118.446 114.834 121.229 113.862C123.621 113.026 125.926 111.924 128.144 110.557C128.159 110.548 128.176 110.542 128.193 110.54C128.211 110.538 128.229 110.54 128.246 110.545C128.262 110.551 128.278 110.56 128.291 110.572C128.304 110.584 128.314 110.599 128.32 110.615C137.044 134.271 142.253 148.444 143.947 153.134C144.906 155.793 145.749 157.685 146.477 158.812C148.452 161.869 151.15 164.133 154.571 165.602C155.433 165.974 156.276 166.252 157.101 166.437C157.193 166.458 157.285 166.469 157.377 166.471L163.071 166.608C163.111 166.609 163.15 166.626 163.178 166.654C163.206 166.683 163.222 166.722 163.222 166.763V171.506C163.222 171.535 163.21 171.563 163.189 171.584C163.168 171.604 163.139 171.616 163.109 171.616H103.748C103.72 171.616 103.692 171.605 103.672 171.584C103.652 171.564 103.641 171.537 103.641 171.508V166.768C103.641 166.726 103.657 166.687 103.687 166.657C103.716 166.628 103.756 166.611 103.798 166.611C106.627 166.611 108.137 166.614 108.326 166.619C109.474 166.66 110.438 166.548 111.217 166.283C112.393 165.884 113.288 165.494 113.904 165.112C117.454 162.902 119.132 159.308 118.757 155.171C118.697 154.506 118.405 153.471 117.884 152.065C117.391 150.737 113.43 139.664 106 118.847C105.976 118.783 105.962 118.716 105.958 118.649C105.944 118.346 105.86 118.101 105.708 117.916C105.673 117.874 105.646 117.827 105.628 117.778L105.165 116.521C105.158 116.504 105.156 116.486 105.159 116.467C105.161 116.449 105.168 116.432 105.179 116.417C105.189 116.402 105.203 116.39 105.22 116.382C105.236 116.374 105.254 116.369 105.272 116.37C107.126 116.417 108.814 116.388 110.335 116.281C110.377 116.278 110.408 116.253 110.429 116.207C110.432 116.2 110.437 116.193 110.444 116.189C110.451 116.184 110.459 116.182 110.467 116.182Z" fill="#E1BB23"/>
<path d="M30.1669 125.126C30.2037 125.135 30.2377 125.13 30.2689 125.109C32.9532 123.371 35.7359 121.82 38.6168 120.455C38.8795 120.33 39.1073 120.236 39.3002 120.173C39.552 120.093 39.7825 119.969 39.992 119.801C40.0303 119.77 40.0731 119.746 40.1188 119.73L41.5353 119.209C41.553 119.203 41.5721 119.201 41.5905 119.206C41.6088 119.21 41.6255 119.219 41.6388 119.232C41.6521 119.245 41.6613 119.262 41.6655 119.281C41.6696 119.299 41.6684 119.318 41.6621 119.336C34.8255 138.119 31.3263 147.715 31.1646 148.125C30.5381 149.707 30.1798 151.052 30.0898 152.162C29.8564 155.05 30.4187 157.685 31.7764 160.066C33.9426 163.868 37.2645 166.045 41.742 166.598C42.0011 166.629 42.7663 166.634 44.0378 166.612C44.6588 166.601 45.3744 166.603 46.1847 166.62C46.2237 166.621 46.2608 166.637 46.2881 166.665C46.3155 166.692 46.3308 166.73 46.3307 166.769V171.47C46.3307 171.509 46.3153 171.546 46.288 171.574C46.2606 171.601 46.2234 171.617 46.1847 171.617H0.159852C0.117458 171.617 0.0768074 171.599 0.0468303 171.569C0.0168533 171.538 2.37198e-07 171.497 2.37198e-07 171.454V166.727C-3.438e-05 166.709 0.00372046 166.691 0.0110181 166.674C0.0183157 166.657 0.029011 166.642 0.04244 166.629C0.055869 166.616 0.0717512 166.606 0.0891019 166.6C0.106453 166.594 0.124899 166.591 0.143316 166.592C0.911315 166.633 1.48732 166.632 1.87132 166.59C2.60165 166.51 3.25207 166.116 3.99343 165.914C4.24514 165.845 4.52533 165.74 4.83399 165.6C8.66113 163.879 11.7313 161.242 14.0445 157.691C14.9282 156.337 15.9544 154.137 17.1229 151.093C20.4429 142.461 23.0143 135.705 24.8369 130.825C25.061 130.225 25.1988 129.877 25.2503 129.784C25.3826 129.536 25.5148 129.152 25.6471 128.632C25.7024 128.409 25.834 128.212 26.0192 128.075C27.467 127.009 28.8073 126.072 30.0402 125.264C30.0604 125.251 30.0732 125.225 30.0787 125.187C30.0804 125.177 30.0841 125.167 30.0896 125.158C30.095 125.15 30.1021 125.142 30.1104 125.137C30.1186 125.131 30.1279 125.127 30.1377 125.125C30.1474 125.123 30.1574 125.124 30.1669 125.126Z" fill="#E1BB23"/>
<path d="M304.812 23.5725C304.839 44.8725 304.832 62.6225 304.792 76.8225C304.785 79.3025 305.012 80.9292 305.472 81.7025C307.462 85.0325 312.152 85.8725 315.792 85.6725C315.924 85.6657 316.055 85.6857 316.179 85.7314C316.302 85.7771 316.415 85.8476 316.51 85.9384C316.606 86.0291 316.682 86.1383 316.734 86.2594C316.786 86.3805 316.812 86.5109 316.812 86.6426V87.7125C316.812 87.9353 316.725 88.149 316.569 88.3065C316.413 88.464 316.202 88.5525 315.982 88.5525H287.462C287.381 88.5525 287.3 88.5365 287.225 88.5054C287.15 88.4742 287.081 88.4285 287.024 88.371C286.966 88.3134 286.92 88.245 286.889 88.1698C286.858 88.0946 286.842 88.0139 286.842 87.9325V86.3726C286.842 86.2723 286.862 86.1731 286.901 86.0811C286.941 85.9891 286.998 85.9063 287.07 85.8378C287.143 85.7693 287.228 85.7166 287.321 85.683C287.414 85.6494 287.513 85.6357 287.612 85.6426C291.802 85.9026 298.802 84.5425 298.792 79.3325C298.745 62.8325 298.742 42.0325 298.782 16.9325C298.782 16.5132 298.675 16.1034 298.472 15.7426C295.865 11.2092 292.232 9.04924 287.572 9.26257C287.476 9.26662 287.381 9.25115 287.291 9.21729C287.201 9.18342 287.12 9.13177 287.05 9.06543C286.981 8.99909 286.926 8.91946 286.889 8.8313C286.851 8.74314 286.832 8.64831 286.832 8.55249V6.95251C286.832 6.78278 286.899 6.62002 287.019 6.5C287.139 6.37998 287.302 6.3125 287.472 6.3125H307.592C307.742 6.31263 307.89 6.34591 308.025 6.40991C308.16 6.47391 308.278 6.56702 308.372 6.6825L355.652 65.2725C355.663 65.2845 355.677 65.2931 355.692 65.2971C355.708 65.3011 355.724 65.3004 355.739 65.295C355.754 65.2897 355.767 65.2799 355.777 65.267C355.786 65.254 355.791 65.2385 355.792 65.2225C355.845 39.2359 355.832 23.1959 355.752 17.1025C355.662 10.6625 349.642 9.23246 344.222 9.27246C344.076 9.27246 343.936 9.21565 343.833 9.11438C343.73 9.01311 343.672 8.87576 343.672 8.73254V6.87256C343.672 6.79902 343.687 6.72615 343.715 6.6582C343.743 6.59026 343.784 6.52856 343.836 6.47656C343.888 6.42456 343.95 6.38325 344.018 6.3551C344.086 6.32696 344.158 6.3125 344.232 6.3125H372.852C372.931 6.3125 373.009 6.328 373.082 6.35815C373.154 6.38831 373.221 6.43257 373.276 6.48828C373.332 6.544 373.376 6.61007 373.406 6.68286C373.437 6.75566 373.452 6.83368 373.452 6.91248L373.462 8.71252C373.463 8.78712 373.447 8.86095 373.417 8.92908C373.387 8.99721 373.342 9.0581 373.286 9.10742C373.23 9.15675 373.164 9.19337 373.093 9.21497C373.021 9.23656 372.946 9.24259 372.872 9.23254C372.572 9.19254 371.525 9.27253 369.732 9.47253C365.452 9.94253 361.472 11.6925 361.472 16.3325C361.479 42.2459 361.479 66.7192 361.472 89.7526C361.473 89.8521 361.44 89.9492 361.378 90.0288C361.317 90.1084 361.23 90.166 361.132 90.1925C360.025 90.5125 359.099 90.1959 358.352 89.2426C357.605 88.2892 339.905 66.3492 305.252 23.4225C305.22 23.3843 305.176 23.3569 305.128 23.3436C305.08 23.3303 305.029 23.3319 304.981 23.348C304.934 23.3642 304.892 23.3943 304.862 23.4343C304.832 23.4744 304.814 23.5225 304.812 23.5725Z" fill="#16411D"/>
<path d="M220.842 62.2278C218.672 68.1078 215.762 73.5778 214.582 79.3278C213.472 84.7078 217.942 85.7578 222.072 85.8278C222.273 85.833 222.464 85.9154 222.604 86.0574C222.744 86.1993 222.822 86.3896 222.822 86.5878V87.8778C222.822 88.029 222.761 88.1739 222.652 88.2808C222.544 88.3877 222.396 88.4478 222.242 88.4478H199.252C198.935 88.4462 198.629 88.3276 198.394 88.1146C198.158 87.9017 198.009 87.6093 197.976 87.2936C197.942 86.9779 198.027 86.661 198.212 86.4034C198.398 86.1459 198.672 85.9659 198.982 85.8978C204.612 84.6978 206.352 80.8778 209.032 75.4878C210.159 73.2211 211.169 71.0311 212.062 68.9177C220.942 47.8911 227.929 31.3477 233.022 19.2877C233.289 18.6611 233.312 17.5144 233.092 15.8478C233.047 15.5096 232.896 15.1976 232.662 14.9578C228.722 10.9578 226.922 8.79773 221.902 9.16773C221.823 9.17322 221.743 9.1623 221.668 9.13562C221.593 9.10894 221.524 9.06711 221.466 9.0127C221.408 8.95828 221.361 8.89245 221.33 8.81934C221.298 8.74623 221.282 8.66742 221.282 8.58777V7.10779C221.282 6.94866 221.344 6.79599 221.455 6.68347C221.566 6.57095 221.716 6.50781 221.872 6.50781H241.822C242.014 6.50759 242.202 6.56342 242.362 6.66834C242.522 6.77325 242.648 6.92257 242.722 7.09778C255.389 36.2711 265.432 59.2477 272.852 76.0277C275.032 80.9577 277.322 85.4578 282.992 85.9878C283.165 86.0052 283.326 86.0854 283.442 86.213C283.559 86.3406 283.623 86.5062 283.622 86.6777V87.8678C283.622 87.9466 283.607 88.0246 283.577 88.0974C283.546 88.1702 283.502 88.2363 283.447 88.292C283.391 88.3477 283.325 88.392 283.252 88.4221C283.179 88.4523 283.101 88.4678 283.022 88.4678H252.442C252.32 88.4678 252.203 88.4193 252.117 88.333C252.031 88.2467 251.982 88.1298 251.982 88.0078V86.4277C251.982 86.3568 251.996 86.2867 252.024 86.2216C252.051 86.1564 252.092 86.0978 252.142 86.0491C252.193 86.0004 252.253 85.9626 252.318 85.9384C252.383 85.9141 252.453 85.9036 252.522 85.9077C254.922 86.0077 260.602 85.6777 260.552 82.0677C260.526 80.5144 260.096 78.6911 259.262 76.5978C256.369 69.2911 254.386 64.4978 253.312 62.2178C253.24 62.0621 253.126 61.9303 252.984 61.8381C252.843 61.746 252.679 61.6973 252.512 61.6978H221.602C221.438 61.6978 221.277 61.7486 221.141 61.8433C221.005 61.9379 220.901 62.0721 220.842 62.2278ZM237.262 56.5677C241.696 56.5544 246.219 56.5278 250.832 56.4878C250.887 56.4872 250.94 56.4733 250.988 56.4471C251.035 56.421 251.076 56.3835 251.105 56.338C251.135 56.2925 251.153 56.2404 251.158 56.1863C251.162 56.1322 251.154 56.0776 251.132 56.0277C246.319 44.701 241.762 33.9311 237.462 23.7178C237.389 23.5378 237.272 23.4478 237.112 23.4478C237.006 23.4544 236.919 23.5444 236.852 23.7178C232.619 33.9578 228.136 44.7611 223.402 56.1278C223.381 56.1777 223.372 56.2321 223.377 56.2863C223.381 56.3404 223.399 56.3926 223.429 56.4381C223.459 56.4836 223.499 56.521 223.547 56.5471C223.595 56.5732 223.648 56.5872 223.702 56.5878C228.309 56.5878 232.829 56.5811 237.262 56.5677Z" fill="#16411D"/>
<path d="M468.58 9.09558C464.26 8.95558 458.83 10.1855 457.26 14.5355C457.194 14.7142 457.16 14.9039 457.16 15.0956L457.34 89.6156C457.341 89.6967 457.324 89.777 457.291 89.8512C457.257 89.9253 457.208 89.9916 457.147 90.0455C457.085 90.0995 457.013 90.1399 456.934 90.1641C456.855 90.1882 456.772 90.1955 456.69 90.1855L455.12 89.9756C454.921 89.9496 454.739 89.8496 454.61 89.6956L400.72 22.9055C400.689 22.87 400.648 22.8443 400.602 22.8319C400.556 22.8195 400.508 22.8211 400.464 22.8364C400.42 22.8518 400.383 22.8802 400.357 22.9176C400.331 22.955 400.318 22.9997 400.32 23.0455C400.267 48.8989 400.277 67.5655 400.35 79.0455C400.38 84.3455 406.84 85.9656 411.29 85.8656C411.427 85.8629 411.563 85.8873 411.69 85.9374C411.818 85.9874 411.934 86.0621 412.031 86.1571C412.129 86.2521 412.207 86.3655 412.26 86.4906C412.313 86.6157 412.34 86.75 412.34 86.8856V87.4856C412.34 87.7535 412.233 88.0103 412.041 88.1997C411.85 88.3891 411.591 88.4956 411.32 88.4956H383.62C383.389 88.4956 383.168 88.4049 383.005 88.2437C382.842 88.0824 382.75 87.8637 382.75 87.6356V86.7556C382.75 86.641 382.773 86.5274 382.817 86.4218C382.862 86.3161 382.927 86.2204 383.009 86.1403C383.091 86.0601 383.188 85.9972 383.295 85.9552C383.401 85.9132 383.515 85.893 383.63 85.8956C388.24 86.0356 394.69 84.5256 394.73 78.6456C394.79 69.539 394.8 49.0422 394.76 17.1555C394.76 16.8401 394.685 16.5283 394.54 16.2456C392.067 11.3256 388.263 8.93556 383.13 9.07556C383.09 9.0769 383.05 9.07014 383.012 9.05566C382.975 9.04119 382.94 9.01933 382.911 8.99133C382.882 8.96334 382.859 8.92977 382.844 8.8927C382.828 8.85564 382.82 8.81577 382.82 8.77551V6.81555C382.82 6.77616 382.828 6.7372 382.843 6.70081C382.858 6.66441 382.88 6.63125 382.908 6.60339C382.936 6.57554 382.969 6.55353 383.005 6.53845C383.042 6.52338 383.081 6.51562 383.12 6.51562H403.38C403.521 6.51581 403.659 6.54733 403.786 6.60791C403.912 6.66849 404.023 6.75657 404.11 6.8656L451.29 65.3256C451.303 65.3389 451.32 65.3481 451.339 65.3523C451.357 65.3564 451.376 65.3553 451.394 65.349C451.412 65.3427 451.427 65.3317 451.439 65.3169C451.451 65.3021 451.458 65.2844 451.46 65.2656V15.4856C451.46 15.3133 451.433 15.138 451.38 14.9656C449.86 10.0056 444.58 9.13562 439.94 9.13562C439.807 9.13562 439.68 9.0829 439.586 8.98914C439.493 8.89537 439.44 8.76823 439.44 8.63562V7.01562C439.44 6.88302 439.494 6.75576 439.589 6.66199C439.685 6.56822 439.815 6.51562 439.95 6.51562H468.38C468.582 6.51562 468.775 6.59563 468.917 6.73816C469.06 6.88069 469.14 7.07395 469.14 7.27551V8.55554C469.14 8.62817 469.125 8.70011 469.097 8.76697C469.069 8.83382 469.027 8.89429 468.975 8.9447C468.923 8.99512 468.861 9.03437 468.793 9.0603C468.725 9.08623 468.653 9.09827 468.58 9.09558Z" fill="#16411D"/>
<path d="M547.552 6.51763C568.945 6.51097 580.402 6.52088 581.922 6.54754C582.076 6.55002 582.223 6.6117 582.333 6.71966C582.443 6.82763 582.507 6.9737 582.512 7.12762L583.262 27.2775C583.265 27.3243 583.258 27.3711 583.241 27.4152C583.225 27.4593 583.2 27.4999 583.167 27.5344C583.135 27.5689 583.095 27.5967 583.051 27.6161C583.008 27.6356 582.96 27.6463 582.912 27.6476L580.622 27.7376C580.489 27.7436 580.359 27.6992 580.258 27.6136C580.158 27.528 580.095 27.4076 580.082 27.2775C579.452 22.1475 577.702 16.2676 573.082 13.3776C572.022 12.711 569.662 12.2609 566.002 12.0275C564.682 11.9475 560.749 11.9443 554.202 12.0176C554.13 12.0176 554.062 12.047 554.011 12.0995C553.961 12.1521 553.932 12.2233 553.932 12.2975C553.945 49.2175 553.949 69.3743 553.942 72.7676C553.929 76.8476 553.972 79.2143 554.072 79.8676C554.812 84.7576 559.462 85.5776 564.052 85.9676C564.197 85.9822 564.333 86.0398 564.444 86.1326C564.555 86.2254 564.634 86.3492 564.672 86.4876C564.892 87.2876 564.849 87.8576 564.542 88.1976C564.418 88.3259 564.257 88.4101 564.082 88.4376C563.962 88.4576 558.455 88.4676 547.562 88.4676C536.675 88.4676 531.172 88.4609 531.052 88.4476C530.877 88.4201 530.716 88.3359 530.592 88.2076C530.285 87.8676 530.242 87.2976 530.462 86.4976C530.5 86.3592 530.579 86.2353 530.69 86.1425C530.801 86.0497 530.937 85.9922 531.082 85.9776C535.672 85.5776 540.322 84.7576 541.062 79.8676C541.162 79.2143 541.202 76.8476 541.182 72.7676C541.175 69.3743 541.172 49.2175 541.172 12.2975C541.172 12.2233 541.144 12.1521 541.093 12.0995C541.042 12.047 540.974 12.0176 540.902 12.0176C534.355 11.951 530.422 11.9575 529.102 12.0375C525.442 12.2709 523.082 12.721 522.022 13.3876C517.412 16.2776 515.662 22.1575 515.032 27.2875C515.02 27.4177 514.957 27.538 514.856 27.6236C514.756 27.7092 514.625 27.7536 514.492 27.7476L512.202 27.6575C512.154 27.6562 512.107 27.6455 512.063 27.626C512.019 27.6066 511.979 27.5789 511.947 27.5444C511.914 27.5099 511.889 27.4693 511.873 27.4252C511.856 27.3811 511.849 27.3343 511.852 27.2875L512.592 7.13763C512.597 6.98199 512.663 6.83436 512.775 6.72613C512.887 6.6179 513.036 6.55747 513.192 6.55755C514.712 6.53089 526.165 6.51763 547.552 6.51763Z" fill="#16411D"/>
<path d="M637.081 44.0056C648.195 44.0056 654.285 44.009 655.351 44.0156C655.393 44.0156 655.435 44.0073 655.474 43.9912C655.513 43.9751 655.548 43.9516 655.578 43.9219C655.607 43.8922 655.631 43.8568 655.647 43.818C655.663 43.7792 655.671 43.7376 655.671 43.6956C655.718 37.2822 655.718 28.2689 655.671 16.6555C655.641 10.6455 650.381 9.06561 645.301 9.12561C645.156 9.12561 645.016 9.06762 644.912 8.96448C644.809 8.86133 644.751 8.72143 644.751 8.57556V7.05554C644.751 6.91233 644.808 6.77498 644.91 6.67371C645.011 6.57244 645.148 6.51562 645.291 6.51562H678.841C678.985 6.51562 679.122 6.57244 679.223 6.67371C679.324 6.77498 679.381 6.91233 679.381 7.05554V8.60559C679.381 8.7435 679.327 8.87575 679.229 8.97327C679.132 9.07079 678.999 9.12561 678.861 9.12561C673.141 9.10561 668.381 10.9456 668.391 17.6156C668.431 34.9356 668.438 54.5022 668.411 76.3156C668.411 80.2756 668.821 83.1356 672.411 84.7056C674.211 85.4989 676.241 85.9189 678.501 85.9656C678.763 85.9708 679.012 86.0785 679.196 86.2655C679.379 86.4525 679.481 86.7038 679.481 86.9656V87.4355C679.481 87.714 679.372 87.9811 679.177 88.178C678.982 88.3749 678.717 88.4856 678.441 88.4856H645.711C645.571 88.4856 645.432 88.4582 645.302 88.4049C645.172 88.3516 645.054 88.2735 644.955 88.175C644.855 88.0766 644.777 87.9598 644.723 87.8312C644.669 87.7026 644.641 87.5647 644.641 87.4255V86.9255C644.641 86.683 644.735 86.4498 644.902 86.2747C645.07 86.0995 645.299 85.9959 645.541 85.9856C650.201 85.7556 655.651 84.4456 655.671 78.8456C655.705 69.7056 655.711 60.0456 655.691 49.8656C655.692 49.7052 655.632 49.5508 655.524 49.4337C655.417 49.3167 655.269 49.2458 655.111 49.2356C654.511 49.1956 648.501 49.1755 637.081 49.1755C625.661 49.1755 619.655 49.1956 619.061 49.2356C618.904 49.2458 618.756 49.3167 618.648 49.4337C618.541 49.5508 618.481 49.7052 618.481 49.8656C618.461 60.0456 618.468 69.7056 618.501 78.8456C618.521 84.4456 623.971 85.7556 628.631 85.9856C628.874 85.9959 629.103 86.0995 629.27 86.2747C629.438 86.4498 629.532 86.683 629.531 86.9255V87.4255C629.531 87.5647 629.504 87.7026 629.45 87.8312C629.396 87.9598 629.317 88.0766 629.218 88.175C629.119 88.2735 629.001 88.3516 628.871 88.4049C628.741 88.4582 628.602 88.4856 628.461 88.4856H595.731C595.456 88.4856 595.191 88.3749 594.996 88.178C594.801 87.9811 594.691 87.714 594.691 87.4355V86.9656C594.691 86.7038 594.794 86.4525 594.977 86.2655C595.16 86.0785 595.41 85.9708 595.671 85.9656C597.931 85.9189 599.961 85.4989 601.761 84.7056C605.351 83.1356 605.761 80.2756 605.761 76.3156C605.735 54.5022 605.741 34.9356 605.781 17.6156C605.791 10.9456 601.031 9.10561 595.311 9.12561C595.173 9.12561 595.041 9.07079 594.944 8.97327C594.846 8.87575 594.791 8.7435 594.791 8.60559V7.05554C594.791 6.91233 594.848 6.77498 594.95 6.67371C595.051 6.57244 595.188 6.51562 595.331 6.51562H628.881C629.025 6.51562 629.162 6.57244 629.263 6.67371C629.365 6.77498 629.421 6.91233 629.421 7.05554V8.57556C629.421 8.72143 629.363 8.86133 629.26 8.96448C629.157 9.06762 629.017 9.12561 628.871 9.12561C623.791 9.06561 618.531 10.6455 618.501 16.6555C618.455 28.2689 618.455 37.2822 618.501 43.6956C618.501 43.7376 618.51 43.7792 618.526 43.818C618.542 43.8568 618.565 43.8922 618.595 43.9219C618.625 43.9516 618.66 43.9751 618.699 43.9912C618.738 44.0073 618.779 44.0156 618.821 44.0156C619.881 44.009 625.968 44.0056 637.081 44.0056Z" fill="#16411D"/>
<path d="M704.65 79.3678C703.55 84.7478 708.02 85.7978 712.15 85.8578C712.351 85.863 712.542 85.9453 712.682 86.0873C712.822 86.2292 712.9 86.4196 712.9 86.6178V87.9077C712.9 88.0589 712.839 88.2039 712.73 88.3108C712.622 88.4177 712.474 88.4778 712.32 88.4778L689.33 88.4978C689.013 88.4962 688.707 88.3775 688.472 88.1646C688.236 87.9516 688.087 87.6594 688.054 87.3436C688.021 87.0279 688.105 86.7109 688.29 86.4534C688.476 86.1958 688.75 86.0158 689.06 85.9478C694.69 84.7478 696.42 80.9277 699.1 75.5277C700.227 73.261 701.237 71.0711 702.13 68.9578C710.99 47.9178 717.964 31.3644 723.05 19.2977C723.317 18.6711 723.34 17.5245 723.12 15.8578C723.075 15.5197 722.924 15.2076 722.69 14.9678C718.74 10.9678 716.94 8.80774 711.92 9.18774C711.841 9.19324 711.761 9.18232 711.686 9.15564C711.611 9.12896 711.542 9.08713 711.484 9.03272C711.426 8.9783 711.38 8.91247 711.348 8.83936C711.316 8.76625 711.3 8.68744 711.3 8.60779V7.12781C711.3 7.04902 711.316 6.97099 711.345 6.89819C711.375 6.8254 711.418 6.75921 711.473 6.70349C711.528 6.64778 711.593 6.60364 711.665 6.57349C711.736 6.54333 711.813 6.52771 711.89 6.52771L731.84 6.50781C732.033 6.50759 732.22 6.56342 732.38 6.66834C732.541 6.77325 732.666 6.92257 732.74 7.09778C745.434 36.2711 755.497 59.2445 762.93 76.0178C765.12 80.9478 767.41 85.4478 773.08 85.9778C773.253 85.9952 773.414 86.0754 773.53 86.203C773.647 86.3306 773.711 86.4962 773.71 86.6677V87.8578C773.71 88.0152 773.649 88.1663 773.538 88.2786C773.428 88.3908 773.278 88.4551 773.12 88.4578L742.53 88.4778C742.408 88.4778 742.291 88.4293 742.205 88.343C742.119 88.2568 742.07 88.1398 742.07 88.0178V86.4377C742.07 86.3669 742.085 86.2967 742.112 86.2316C742.14 86.1664 742.18 86.1078 742.23 86.0591C742.281 86.0104 742.341 85.9727 742.406 85.9484C742.471 85.9241 742.541 85.9136 742.61 85.9177C745.01 86.0177 750.69 85.6777 750.64 82.0677C750.607 80.5144 750.174 78.6911 749.34 76.5978C746.44 69.2911 744.454 64.4978 743.38 62.2178C743.308 62.0621 743.194 61.9303 743.052 61.8381C742.911 61.746 742.747 61.6973 742.58 61.6978L711.66 61.7278C711.496 61.7278 711.335 61.7786 711.199 61.8733C711.063 61.968 710.959 62.1021 710.9 62.2578C708.74 68.1378 705.83 73.6178 704.65 79.3678ZM727.34 56.5677C731.767 56.5544 736.284 56.5311 740.89 56.4978C740.945 56.4973 740.998 56.4833 741.046 56.4572C741.093 56.431 741.134 56.3935 741.163 56.348C741.193 56.3025 741.211 56.2504 741.216 56.1963C741.22 56.1422 741.212 56.0877 741.19 56.0377C736.39 44.7177 731.847 33.9545 727.56 23.7478C727.487 23.5745 727.37 23.4878 727.21 23.4878C727.104 23.4878 727.014 23.5745 726.94 23.7478C722.707 33.9811 718.224 44.7711 713.49 56.1178C713.469 56.1677 713.46 56.2221 713.465 56.2762C713.47 56.3304 713.488 56.3826 713.517 56.4281C713.547 56.4736 713.587 56.511 713.635 56.5371C713.683 56.5632 713.736 56.5772 713.79 56.5778C718.397 56.5844 722.914 56.5811 727.34 56.5677Z" fill="#16411D"/>
<path d="M798.451 6.54906C804.465 6.53573 810.475 6.53573 816.481 6.54906C816.61 6.55165 816.732 6.60337 816.821 6.69311C816.911 6.78284 816.961 6.90344 816.961 7.02904V8.63915C816.961 8.70873 816.947 8.7775 816.92 8.84142C816.892 8.90534 816.852 8.96296 816.802 9.01073C816.751 9.0585 816.691 9.09546 816.626 9.11925C816.56 9.14304 816.491 9.15325 816.421 9.14916C812.841 8.98916 807.671 9.83909 805.621 13.1991C805.108 14.0458 804.838 15.7591 804.811 18.3391C804.791 20.1991 804.785 29.9258 804.791 47.5192C804.798 65.1058 804.811 74.8291 804.831 76.6891C804.858 79.2757 805.128 80.9924 805.641 81.8391C807.691 85.1891 812.861 86.0391 816.441 85.8791C816.511 85.875 816.58 85.8851 816.646 85.9089C816.711 85.9327 816.771 85.9697 816.822 86.0174C816.872 86.0652 816.912 86.1228 816.94 86.1868C816.967 86.2507 816.981 86.3196 816.981 86.3892L816.991 87.9991C816.991 88.1264 816.94 88.2485 816.848 88.3385C816.756 88.4285 816.631 88.4791 816.501 88.4791C810.495 88.4925 804.485 88.4958 798.471 88.4891C792.465 88.4958 786.455 88.4958 780.441 88.4891C780.313 88.4865 780.191 88.4348 780.101 88.3451C780.012 88.2553 779.961 88.1348 779.961 88.0091V86.3992C779.961 86.3296 779.975 86.2607 780.003 86.1968C780.03 86.1329 780.071 86.0752 780.121 86.0275C780.172 85.9797 780.232 85.9427 780.297 85.9189C780.362 85.8951 780.432 85.8851 780.501 85.8892C784.081 86.0492 789.251 85.1991 791.301 81.8391C791.815 80.9924 792.085 79.2791 792.111 76.6991C792.131 74.8391 792.138 65.1125 792.131 47.5192C792.131 29.9258 792.121 20.1991 792.101 18.3391C792.068 15.7591 791.795 14.0458 791.281 13.1991C789.231 9.83909 784.061 8.98905 780.481 9.15905C780.412 9.16314 780.342 9.15305 780.277 9.12926C780.212 9.10547 780.152 9.06851 780.101 9.02074C780.051 8.97297 780.01 8.91535 779.983 8.85143C779.955 8.78751 779.941 8.71874 779.941 8.64916V7.03905C779.941 6.91345 779.992 6.79285 780.081 6.70312C780.171 6.61338 780.293 6.56167 780.421 6.55907C786.428 6.54574 792.438 6.5424 798.451 6.54906Z" fill="#16411D"/>
<path d="M768.02 134.945C767.88 135.265 767.834 135.648 767.88 136.095C768.074 137.861 768.177 140.081 768.19 142.755C768.193 142.927 768.137 143.095 768.031 143.231C767.926 143.367 767.777 143.463 767.61 143.504C767.443 143.544 767.267 143.527 767.11 143.455C766.954 143.382 766.827 143.259 766.75 143.105C765.36 140.385 764.4 138.254 762.69 136.664C759.49 133.704 755.627 132.615 751.1 133.395C739.2 135.435 738.06 151.534 741.33 160.024C742.637 163.411 745.124 166.131 748.79 168.185C749.108 168.37 749.453 168.505 749.81 168.585C753.07 169.331 756.7 169.198 760.7 168.185C761.255 168.044 761.746 167.724 762.098 167.273C762.449 166.822 762.64 166.266 762.64 165.695V153.654C762.64 153.043 762.41 152.453 761.996 152.002C761.581 151.55 761.012 151.269 760.4 151.215L758.01 151.005C757.896 150.997 757.789 150.945 757.711 150.86C757.633 150.774 757.59 150.661 757.59 150.545V150.235C757.59 150.158 757.605 150.083 757.635 150.013C757.664 149.942 757.706 149.878 757.76 149.824C757.814 149.771 757.878 149.728 757.948 149.699C758.019 149.67 758.094 149.654 758.17 149.654H772.56C772.667 149.654 772.768 149.697 772.843 149.772C772.918 149.847 772.96 149.948 772.96 150.055V150.365C772.96 150.446 772.944 150.527 772.913 150.602C772.882 150.677 772.836 150.745 772.779 150.803C772.721 150.86 772.653 150.906 772.578 150.937C772.502 150.968 772.422 150.985 772.34 150.985C770.04 150.978 768.887 152.125 768.88 154.425C768.854 159.965 768.83 164.161 768.81 167.015C768.811 167.188 768.761 167.359 768.667 167.506C768.574 167.653 768.439 167.77 768.28 167.845C763.994 169.845 759.824 171.068 755.77 171.515C745.28 172.655 735.19 166.825 733.05 156.085C731.45 148.045 733.98 139.415 740.69 134.505C747.24 129.715 754.7 129.995 762.47 132.385C764.31 132.951 765.59 132.465 766.31 130.925C766.379 130.786 766.491 130.673 766.628 130.602C766.766 130.532 766.923 130.508 767.076 130.534C767.229 130.559 767.369 130.634 767.476 130.746C767.583 130.857 767.651 131.001 767.67 131.154L768.04 134.835C768.041 134.874 768.034 134.912 768.02 134.945Z" fill="#16411D"/>
<path d="M223.122 169.136C232.142 170.296 234.022 159.865 226.982 155.565C221.595 152.272 218.195 150.095 216.782 149.035C210.562 144.385 210.942 134.646 218.412 131.466C222.412 129.786 226.972 130.896 231.122 132.486C231.307 132.556 231.506 132.582 231.703 132.559C231.899 132.536 232.088 132.467 232.252 132.356C232.865 131.929 233.315 131.426 233.602 130.846C233.661 130.724 233.758 130.625 233.877 130.563C233.997 130.501 234.134 130.479 234.267 130.5C234.4 130.521 234.523 130.585 234.618 130.681C234.712 130.778 234.773 130.902 234.792 131.035L236.352 142.435C236.388 142.669 236.335 142.907 236.203 143.102C236.07 143.297 235.869 143.435 235.639 143.487C235.408 143.539 235.167 143.502 234.963 143.383C234.76 143.264 234.609 143.072 234.542 142.846C232.732 137.206 228.592 132.336 222.432 133.346C219.298 133.859 217.775 135.852 217.862 139.326C217.873 139.711 217.969 140.09 218.142 140.435C220.262 144.665 227.272 147.975 229.462 149.315C235.622 153.055 239.232 157.296 236.782 164.756C236.188 166.549 234.715 168.229 232.362 169.795C227.942 172.735 221.292 171.585 216.452 169.795C216.22 169.71 215.974 169.671 215.73 169.683C215.486 169.694 215.252 169.755 215.044 169.86C214.836 169.966 214.661 170.114 214.531 170.293C214.4 170.473 214.319 170.678 214.292 170.896C214.225 171.422 213.875 171.719 213.242 171.785C213.067 171.805 212.892 171.754 212.753 171.644C212.615 171.533 212.525 171.372 212.502 171.196L210.892 159.425C210.864 159.245 210.903 159.062 211.002 158.91C211.101 158.759 211.253 158.649 211.429 158.602C211.606 158.555 211.794 158.575 211.958 158.656C212.123 158.738 212.252 158.876 212.322 159.045C214.342 164.035 217.692 168.446 223.122 169.136Z" fill="#16411D"/>
<path d="M262.488 130.455C267.715 130.391 272.755 132.512 276.498 136.353C280.242 140.193 282.383 145.437 282.45 150.932C282.483 153.653 282.006 156.353 281.047 158.879C280.087 161.405 278.663 163.707 276.856 165.653C275.05 167.599 272.896 169.152 270.517 170.222C268.139 171.293 265.583 171.86 262.994 171.892C257.767 171.955 252.728 169.834 248.984 165.993C245.241 162.153 243.1 156.909 243.033 151.414C243 148.693 243.477 145.993 244.436 143.467C245.396 140.941 246.82 138.639 248.626 136.693C250.433 134.747 252.587 133.194 254.965 132.124C257.344 131.053 259.9 130.486 262.488 130.455ZM262.661 169.293C265.875 169.306 268.558 168.133 270.711 165.773C275.591 160.423 275.971 151.773 274.721 144.593C273.621 138.343 269.481 132.993 262.811 132.963C256.131 132.933 251.951 138.253 250.801 144.503C249.501 151.673 249.811 160.323 254.651 165.713C256.785 168.086 259.455 169.28 262.661 169.293Z" fill="#16411D"/>
<path d="M444.546 130.428C447.131 130.329 449.711 130.767 452.14 131.717C454.568 132.667 456.797 134.111 458.699 135.966C460.601 137.821 462.139 140.051 463.224 142.529C464.31 145.007 464.923 147.683 465.028 150.406C465.132 153.129 464.727 155.845 463.834 158.399C462.941 160.952 461.579 163.294 459.825 165.289C458.071 167.285 455.96 168.896 453.611 170.03C451.263 171.163 448.724 171.798 446.139 171.897C443.554 171.997 440.973 171.559 438.545 170.608C436.116 169.658 433.888 168.214 431.986 166.359C430.084 164.504 428.546 162.274 427.46 159.796C426.374 157.318 425.761 154.642 425.657 151.919C425.552 149.196 425.958 146.48 426.85 143.926C427.743 141.373 429.105 139.031 430.859 137.036C432.613 135.04 434.725 133.429 437.073 132.296C439.421 131.162 441.961 130.527 444.546 130.428ZM432.622 151.003C432.582 158.613 435.452 169.183 445.152 169.233C454.852 169.283 457.832 158.743 457.872 151.133C457.912 143.513 455.032 132.943 445.342 132.893C435.642 132.843 432.662 143.383 432.622 151.003Z" fill="#16411D"/>
<path d="M539.001 139.865C538.987 139.819 538.957 139.781 538.916 139.757C538.875 139.733 538.826 139.725 538.78 139.735C538.733 139.745 538.692 139.772 538.665 139.811C538.637 139.85 538.625 139.898 538.631 139.945V166.435C538.632 166.875 538.748 167.308 538.969 167.689C539.191 168.07 539.509 168.386 539.891 168.605C541.025 169.251 542.321 169.581 543.781 169.595C543.935 169.595 544.083 169.656 544.192 169.765C544.3 169.873 544.361 170.021 544.361 170.175V170.505C544.361 170.595 544.327 170.681 544.265 170.745C544.203 170.809 544.119 170.845 544.031 170.845L530.801 170.885C530.64 170.885 530.482 170.838 530.346 170.749C530.209 170.661 530.1 170.534 530.031 170.385V170.355C530.011 170.276 530.007 170.194 530.022 170.114C530.036 170.034 530.068 169.958 530.114 169.891C530.161 169.825 530.221 169.769 530.292 169.728C530.362 169.687 530.44 169.662 530.521 169.655C534.035 169.335 535.791 168.228 535.791 166.335C535.798 147.461 535.808 137.545 535.821 136.585C535.851 133.485 533.111 133.015 530.561 132.745C530.391 132.727 530.233 132.648 530.118 132.523C530.004 132.397 529.941 132.234 529.941 132.065V131.785C529.941 131.687 529.98 131.592 530.05 131.523C530.119 131.454 530.213 131.415 530.311 131.415H541.511C541.678 131.415 541.841 131.463 541.981 131.554C542.121 131.644 542.232 131.773 542.301 131.925L555.351 160.465C555.371 160.51 555.403 160.548 555.444 160.575C555.484 160.602 555.532 160.617 555.581 160.617C555.63 160.617 555.678 160.602 555.719 160.575C555.76 160.548 555.792 160.51 555.811 160.465L568.661 131.835C568.717 131.707 568.809 131.599 568.924 131.523C569.039 131.446 569.174 131.405 569.311 131.405H580.221C580.341 131.405 580.455 131.453 580.54 131.539C580.624 131.626 580.671 131.743 580.671 131.865V132.155C580.671 132.31 580.614 132.459 580.513 132.575C580.412 132.691 580.273 132.765 580.121 132.785C577.311 133.135 575.401 133.445 575.411 136.575C575.438 144.128 575.455 154.048 575.461 166.335C575.462 166.809 575.588 167.274 575.827 167.683C576.066 168.093 576.409 168.431 576.821 168.665C578.815 169.805 580.855 169.815 582.941 168.695C583.29 168.511 583.588 168.25 583.811 167.935C584.651 166.775 585.351 165.558 585.911 164.285C588.665 158.038 593.325 147.058 599.891 131.345C600.001 131.079 600.209 130.864 600.475 130.742C600.741 130.62 601.046 130.599 601.331 130.685C601.425 130.711 601.541 130.871 601.681 131.165C603.621 135.131 605.831 140.001 608.311 145.775C609.285 148.055 612.028 154.375 616.541 164.735C616.995 165.781 617.695 166.991 618.641 168.365C619.135 169.071 620.005 169.461 621.251 169.535C621.413 169.542 621.566 169.612 621.678 169.73C621.789 169.847 621.852 170.003 621.851 170.165V170.505C621.851 170.619 621.806 170.728 621.725 170.809C621.645 170.889 621.535 170.935 621.421 170.935H606.981C606.822 170.935 606.67 170.871 606.557 170.756C606.445 170.642 606.381 170.487 606.381 170.325V170.055C606.381 169.978 606.397 169.902 606.428 169.831C606.458 169.76 606.503 169.697 606.559 169.644C606.616 169.591 606.682 169.551 606.755 169.525C606.827 169.5 606.905 169.489 606.981 169.495C608.655 169.608 609.788 169.071 610.381 167.885C610.438 167.771 610.471 167.647 610.478 167.52C610.485 167.392 610.465 167.265 610.421 167.145L607.481 159.175C607.352 158.823 607.119 158.519 606.814 158.305C606.508 158.09 606.144 157.975 605.771 157.975H592.011C591.879 157.975 591.751 158.015 591.643 158.091C591.536 158.166 591.455 158.272 591.411 158.395L588.541 166.155C588.33 166.724 588.343 167.352 588.577 167.913C588.811 168.473 589.248 168.924 589.801 169.175C590.201 169.355 590.935 169.461 592.001 169.495C592.128 169.5 592.247 169.554 592.335 169.645C592.423 169.737 592.472 169.858 592.471 169.985V170.425C592.471 170.496 592.458 170.566 592.431 170.631C592.404 170.697 592.365 170.756 592.316 170.807C592.267 170.857 592.209 170.896 592.144 170.924C592.08 170.951 592.011 170.965 591.941 170.965H564.541C564.404 170.964 564.271 170.914 564.166 170.825C564.062 170.735 563.993 170.611 563.971 170.475L563.921 170.185C563.909 170.107 563.913 170.028 563.934 169.952C563.955 169.876 563.992 169.805 564.043 169.744C564.095 169.684 564.158 169.634 564.231 169.6C564.303 169.566 564.381 169.547 564.461 169.545C567.001 169.498 568.721 168.461 569.621 166.435C569.674 166.316 569.701 166.183 569.701 166.045L569.321 138.205C569.321 138.155 569.304 138.106 569.272 138.067C569.24 138.029 569.196 138.002 569.148 137.991C569.099 137.981 569.047 137.987 569.003 138.01C568.958 138.032 568.922 138.069 568.901 138.115L554.331 170.585C554.274 170.707 554.183 170.812 554.069 170.885C553.956 170.958 553.823 170.998 553.689 170.999C553.554 171 553.423 170.963 553.31 170.891C553.197 170.819 553.107 170.717 553.051 170.595L539.001 139.865ZM592.951 155.115C592.934 155.162 592.927 155.212 592.933 155.262C592.94 155.312 592.958 155.36 592.986 155.401C593.015 155.442 593.053 155.476 593.097 155.499C593.142 155.523 593.191 155.535 593.241 155.535H605.441C605.492 155.535 605.541 155.523 605.586 155.499C605.63 155.476 605.668 155.442 605.697 155.401C605.725 155.36 605.743 155.312 605.749 155.262C605.755 155.212 605.749 155.162 605.731 155.115L599.631 140.155C599.609 140.096 599.57 140.045 599.518 140.009C599.466 139.974 599.404 139.954 599.341 139.954C599.278 139.954 599.217 139.974 599.165 140.009C599.113 140.045 599.074 140.096 599.051 140.155L592.951 155.115Z" fill="#16411D"/>
<path d="M627.541 159.169C629.571 164.149 632.921 168.559 638.351 169.239C647.371 170.379 649.23 159.949 642.19 155.659C636.797 152.379 633.394 150.209 631.98 149.149C625.75 144.519 626.121 134.779 633.581 131.589C637.571 129.899 642.131 130.999 646.291 132.579C646.475 132.65 646.675 132.675 646.871 132.653C647.068 132.63 647.257 132.56 647.421 132.449C648.027 132.023 648.474 131.519 648.76 130.939C648.82 130.818 648.916 130.719 649.036 130.657C649.156 130.595 649.293 130.573 649.426 130.594C649.559 130.615 649.682 130.679 649.776 130.775C649.871 130.871 649.932 130.996 649.95 131.129L651.531 142.519C651.567 142.752 651.514 142.991 651.381 143.186C651.249 143.381 651.047 143.519 650.817 143.571C650.587 143.623 650.346 143.586 650.142 143.466C649.939 143.347 649.788 143.155 649.72 142.929C647.9 137.299 643.761 132.439 637.601 133.459C634.467 133.979 632.947 135.976 633.041 139.449C633.054 139.832 633.149 140.207 633.32 140.549C635.45 144.779 642.461 148.079 644.661 149.409C650.821 153.139 654.44 157.369 652 164.829C651.414 166.623 649.944 168.306 647.59 169.879C643.18 172.829 636.53 171.689 631.69 169.909C631.459 169.824 631.213 169.785 630.969 169.797C630.725 169.808 630.491 169.869 630.283 169.974C630.075 170.08 629.9 170.228 629.77 170.407C629.639 170.586 629.558 170.792 629.531 171.009C629.464 171.536 629.114 171.833 628.48 171.899C628.307 171.919 628.133 171.869 627.995 171.761C627.857 171.653 627.766 171.494 627.74 171.319L626.11 159.549C626.082 159.369 626.121 159.186 626.221 159.034C626.32 158.883 626.472 158.773 626.648 158.726C626.824 158.679 627.013 158.699 627.177 158.78C627.342 158.862 627.471 159 627.541 159.169Z" fill="#16411D"/>
<path d="M672.021 169.203C681.041 170.393 682.961 159.973 675.941 155.643C670.561 152.33 667.168 150.139 665.761 149.073C659.561 144.403 659.981 134.663 667.461 131.513C671.461 129.843 676.021 130.973 680.171 132.573C680.355 132.645 680.554 132.672 680.751 132.651C680.947 132.63 681.136 132.562 681.301 132.453C681.914 132.033 682.364 131.533 682.651 130.953C682.711 130.831 682.808 130.732 682.929 130.671C683.05 130.609 683.187 130.588 683.32 130.61C683.454 130.633 683.577 130.698 683.67 130.795C683.764 130.893 683.824 131.018 683.841 131.153L685.361 142.553C685.414 142.794 685.369 143.047 685.236 143.255C685.103 143.463 684.892 143.61 684.651 143.663C684.41 143.716 684.157 143.671 683.949 143.538C683.741 143.404 683.594 143.194 683.541 142.953C681.751 137.313 677.641 132.423 671.471 133.413C668.338 133.913 666.808 135.899 666.881 139.373C666.891 139.754 666.983 140.129 667.151 140.473C669.261 144.723 676.251 148.063 678.441 149.403C684.581 153.173 688.181 157.423 685.701 164.873C685.101 166.659 683.621 168.333 681.261 169.893C676.831 172.823 670.191 171.643 665.351 169.833C665.12 169.747 664.874 169.708 664.631 169.719C664.388 169.729 664.154 169.789 663.947 169.894C663.739 169.998 663.564 170.145 663.433 170.324C663.302 170.502 663.219 170.706 663.191 170.923C663.118 171.449 662.764 171.746 662.131 171.813C661.956 171.832 661.781 171.781 661.642 171.671C661.504 171.561 661.414 171.4 661.391 171.223L659.831 159.443C659.807 159.264 659.849 159.083 659.949 158.934C660.049 158.786 660.2 158.678 660.375 158.633C660.55 158.588 660.737 158.608 660.9 158.689C661.062 158.769 661.191 158.906 661.261 159.073C663.271 164.063 666.591 168.493 672.021 169.203Z" fill="#16411D"/>
<path d="M690.461 170.95C690.288 170.948 690.122 170.885 689.992 170.771C689.862 170.658 689.777 170.501 689.753 170.331C689.729 170.16 689.767 169.986 689.86 169.841C689.953 169.696 690.095 169.589 690.261 169.54C693.901 168.49 695.141 164.68 696.861 160.7C700.374 152.566 704.061 143.826 707.921 134.48C708.574 132.9 709.147 131.676 709.641 130.81C709.695 130.716 709.772 130.639 709.864 130.583C709.957 130.528 710.062 130.497 710.17 130.493C710.277 130.489 710.384 130.512 710.481 130.56C710.577 130.609 710.659 130.681 710.721 130.77C711.261 131.563 711.821 132.623 712.401 133.95C716.874 144.136 721.594 154.913 726.561 166.279C727.387 168.173 728.707 169.263 730.521 169.55C730.688 169.578 730.841 169.665 730.95 169.795C731.06 169.925 731.121 170.089 731.121 170.26V170.57C731.121 170.673 731.079 170.772 731.006 170.845C730.933 170.918 730.834 170.96 730.731 170.96H716.351C716.186 170.96 716.028 170.894 715.912 170.778C715.796 170.662 715.731 170.504 715.731 170.34V169.96C715.73 169.888 715.745 169.818 715.773 169.752C715.801 169.687 715.843 169.628 715.895 169.58C715.946 169.532 716.008 169.495 716.074 169.473C716.141 169.451 716.211 169.443 716.281 169.45C722.251 169.96 718.891 164.06 717.401 161.4C717.249 161.136 717.153 160.843 717.121 160.54C717.007 159.633 716.754 158.926 716.361 158.42C716.258 158.289 716.127 158.183 715.978 158.11C715.829 158.037 715.666 158 715.501 158H701.631C701.468 157.999 701.308 158.046 701.171 158.135C701.034 158.224 700.927 158.351 700.861 158.5C699.514 161.533 698.591 164.003 698.091 165.909C697.371 168.619 698.831 169.61 701.291 169.48C701.357 169.475 701.424 169.485 701.487 169.508C701.55 169.531 701.608 169.566 701.657 169.612C701.705 169.658 701.744 169.713 701.771 169.775C701.797 169.836 701.811 169.903 701.811 169.97V170.33C701.811 170.494 701.745 170.652 701.629 170.768C701.513 170.884 701.355 170.95 701.191 170.95H690.461ZM702.271 155.06C702.249 155.112 702.241 155.168 702.247 155.224C702.252 155.281 702.272 155.334 702.304 155.381C702.335 155.428 702.378 155.466 702.428 155.492C702.478 155.517 702.534 155.53 702.591 155.529H714.791C714.847 155.53 714.903 155.517 714.953 155.492C715.003 155.466 715.046 155.428 715.077 155.381C715.109 155.334 715.129 155.281 715.135 155.224C715.14 155.168 715.132 155.112 715.111 155.06L709.001 140.32C708.974 140.26 708.93 140.209 708.875 140.174C708.82 140.138 708.756 140.119 708.691 140.119C708.625 140.119 708.561 140.138 708.506 140.174C708.451 140.209 708.407 140.26 708.381 140.32L702.271 155.06Z" fill="#16411D"/>
<path d="M288.692 132.787C288.554 132.787 288.422 132.733 288.324 132.635C288.227 132.538 288.172 132.405 288.172 132.268V131.968C288.172 131.898 288.186 131.829 288.213 131.765C288.24 131.7 288.28 131.642 288.33 131.593C288.38 131.544 288.44 131.505 288.505 131.478C288.571 131.451 288.641 131.438 288.712 131.438H304.412C304.484 131.438 304.554 131.455 304.618 131.487C304.682 131.519 304.738 131.566 304.781 131.622C304.825 131.679 304.854 131.745 304.868 131.816C304.882 131.886 304.88 131.958 304.862 132.027L304.772 132.398C304.734 132.536 304.652 132.658 304.538 132.745C304.425 132.831 304.285 132.878 304.142 132.878C301.149 132.878 299.649 134.174 299.642 136.768C299.629 149.354 299.632 158.968 299.652 165.608C299.652 167.021 300.459 167.818 302.072 167.998C309.302 168.828 317.902 169.157 321.232 161.177C321.335 160.936 321.502 160.729 321.716 160.577C321.929 160.425 322.181 160.335 322.442 160.318H322.482C322.58 160.313 322.677 160.331 322.766 160.371C322.855 160.411 322.934 160.471 322.995 160.547C323.057 160.623 323.099 160.713 323.12 160.808C323.14 160.904 323.137 161.003 323.112 161.098L320.662 170.268C320.602 170.491 320.47 170.688 320.286 170.829C320.101 170.97 319.875 171.047 319.642 171.047H288.812C288.663 171.047 288.521 170.989 288.416 170.884C288.311 170.779 288.252 170.636 288.252 170.488V170.218C288.253 170.07 288.306 169.929 288.401 169.818C288.497 169.708 288.628 169.637 288.772 169.618C291.182 169.318 293.572 168.848 293.582 165.828C293.589 164.528 293.622 155.131 293.682 137.638C293.695 134.371 292.032 132.754 288.692 132.787Z" fill="#16411D"/>
<path d="M350.651 132.834C350.496 132.829 350.348 132.763 350.24 132.651C350.132 132.539 350.071 132.39 350.071 132.234V131.884C350.071 131.824 350.083 131.764 350.106 131.708C350.129 131.652 350.163 131.601 350.206 131.559C350.249 131.516 350.299 131.482 350.355 131.459C350.411 131.436 350.471 131.424 350.531 131.424C357.985 131.417 362.345 131.427 363.611 131.454C363.805 131.461 363.941 131.567 364.021 131.774C364.058 131.861 364.075 131.955 364.072 132.05C364.069 132.144 364.046 132.236 364.004 132.32C363.962 132.403 363.902 132.475 363.829 132.531C363.756 132.587 363.671 132.626 363.581 132.644C361.011 133.154 358.431 133.414 358.471 136.334C358.471 136.694 358.461 143.871 358.441 157.864C358.431 169.434 349.261 172.644 339.461 171.364C334.855 170.757 331.661 168.697 329.881 165.184C328.821 163.097 328.301 159.211 328.321 153.524C328.355 142.884 328.371 137.327 328.371 136.854C328.351 133.504 326.461 133.144 323.591 132.734C323.437 132.712 323.295 132.636 323.192 132.518C323.089 132.401 323.032 132.25 323.031 132.094V131.804C323.031 131.706 323.07 131.612 323.14 131.542C323.209 131.473 323.303 131.434 323.401 131.434H339.351C339.449 131.434 339.543 131.473 339.613 131.542C339.682 131.612 339.721 131.706 339.721 131.804V132.144C339.72 132.307 339.66 132.463 339.552 132.586C339.444 132.709 339.294 132.79 339.131 132.814L336.761 133.144C336.137 133.231 335.565 133.539 335.152 134.011C334.738 134.484 334.511 135.088 334.511 135.714C334.491 146.381 334.488 153.504 334.501 157.084C334.531 165.414 337.941 169.614 346.511 168.864C354.551 168.154 355.691 162.324 355.781 154.854C355.848 149.141 355.841 142.891 355.761 136.104C355.756 135.541 355.584 134.993 355.267 134.527C354.951 134.061 354.503 133.698 353.981 133.484C352.995 133.084 351.885 132.867 350.651 132.834Z" fill="#16411D"/>
<path d="M382.873 131.414C383.36 131.414 388.867 131.421 399.393 131.434C399.469 131.434 399.541 131.463 399.595 131.516C399.649 131.568 399.681 131.639 399.683 131.714L400.033 141.164C400.037 141.263 400.019 141.361 399.981 141.453C399.944 141.544 399.887 141.627 399.815 141.695C399.743 141.763 399.658 141.815 399.565 141.848C399.471 141.88 399.372 141.893 399.273 141.884L398.943 141.854C398.816 141.844 398.697 141.79 398.606 141.702C398.514 141.615 398.457 141.499 398.443 141.374C398.163 138.874 397.223 136.774 395.623 135.074C395.314 134.752 394.902 134.553 394.463 134.514L386.893 133.854C386.776 133.843 386.657 133.857 386.545 133.895C386.433 133.933 386.33 133.995 386.244 134.076C386.157 134.157 386.088 134.256 386.041 134.366C385.995 134.476 385.972 134.595 385.973 134.714C386.087 138.541 386.087 148.681 385.973 165.134C385.953 168.484 387.583 169.334 390.703 169.564C390.827 169.573 390.944 169.626 391.034 169.714C391.123 169.801 391.18 169.918 391.193 170.044C391.227 170.344 391.187 170.574 391.073 170.734C391.027 170.803 390.966 170.859 390.894 170.897C390.823 170.935 390.743 170.955 390.663 170.954C387.623 170.961 385.017 170.964 382.843 170.964C380.677 170.957 378.073 170.951 375.033 170.944C374.954 170.945 374.874 170.925 374.803 170.887C374.731 170.849 374.67 170.793 374.623 170.724C374.51 170.564 374.47 170.334 374.503 170.034C374.517 169.908 374.574 169.791 374.663 169.704C374.753 169.616 374.87 169.563 374.993 169.554C378.113 169.324 379.743 168.484 379.733 165.134C379.64 148.681 379.65 138.541 379.763 134.714C379.765 134.595 379.742 134.476 379.696 134.366C379.649 134.256 379.58 134.157 379.493 134.076C379.406 133.995 379.304 133.933 379.192 133.895C379.08 133.857 378.961 133.843 378.843 133.854L371.273 134.504C370.836 134.54 370.424 134.735 370.113 135.054C368.513 136.754 367.57 138.854 367.283 141.354C367.27 141.479 367.212 141.595 367.121 141.682C367.03 141.77 366.911 141.823 366.783 141.834L366.453 141.864C366.356 141.871 366.258 141.858 366.165 141.824C366.073 141.791 365.989 141.739 365.918 141.671C365.848 141.603 365.792 141.521 365.755 141.43C365.718 141.34 365.7 141.242 365.703 141.144L366.063 131.694C366.066 131.619 366.098 131.548 366.152 131.495C366.206 131.443 366.278 131.414 366.353 131.414C376.88 131.414 382.387 131.414 382.873 131.414Z" fill="#16411D"/>
<path d="M412.43 131.418C415.264 131.425 418.057 131.418 420.81 131.398C420.963 131.398 421.109 131.458 421.217 131.565C421.326 131.671 421.388 131.816 421.391 131.968V132.328C421.391 132.454 421.341 132.575 421.253 132.664C421.166 132.754 421.046 132.806 420.92 132.808C419.554 132.842 418.374 133.068 417.38 133.488C416.822 133.723 416.343 134.116 416.004 134.619C415.665 135.121 415.479 135.712 415.471 136.318C415.457 137.225 415.451 142.182 415.451 151.188C415.451 160.188 415.46 165.142 415.48 166.048C415.489 166.655 415.675 167.245 416.014 167.748C416.353 168.25 416.832 168.643 417.391 168.878C418.384 169.298 419.564 169.525 420.93 169.558C421.056 169.561 421.176 169.613 421.263 169.703C421.351 169.792 421.401 169.913 421.401 170.038V170.398C421.401 170.475 421.385 170.552 421.355 170.623C421.326 170.694 421.282 170.758 421.227 170.812C421.172 170.866 421.107 170.909 421.036 170.937C420.964 170.966 420.887 170.98 420.81 170.978C418.057 170.952 415.267 170.945 412.44 170.958C409.607 170.945 406.814 170.952 404.06 170.978C403.907 170.978 403.759 170.917 403.65 170.808C403.542 170.7 403.48 170.552 403.48 170.398V170.038C403.48 169.913 403.53 169.792 403.618 169.703C403.705 169.613 403.825 169.561 403.951 169.558C405.317 169.525 406.497 169.298 407.49 168.878C408.049 168.643 408.528 168.25 408.867 167.748C409.206 167.245 409.392 166.655 409.401 166.048C409.414 165.142 409.42 160.188 409.42 151.188C409.42 142.182 409.414 137.225 409.401 136.318C409.392 135.712 409.206 135.121 408.867 134.619C408.528 134.116 408.049 133.723 407.49 133.488C406.497 133.068 405.317 132.845 403.951 132.818C403.825 132.816 403.705 132.764 403.618 132.674C403.53 132.585 403.48 132.464 403.48 132.338V131.978C403.48 131.825 403.542 131.677 403.65 131.568C403.759 131.459 403.907 131.398 404.06 131.398C406.814 131.418 409.604 131.425 412.43 131.418Z" fill="#16411D"/>
<path d="M484.093 170.958H471.073C470.938 170.958 470.808 170.905 470.712 170.809C470.617 170.713 470.563 170.584 470.563 170.448V170.138C470.562 169.999 470.614 169.865 470.706 169.763C470.799 169.661 470.927 169.598 471.063 169.588C474.576 169.348 476.333 168.092 476.333 165.818C476.333 149.738 476.336 140.192 476.343 137.178C476.343 136.784 476.254 136.397 476.083 136.048C475.156 134.168 473.476 133.058 471.043 132.718C470.904 132.699 470.776 132.631 470.684 132.526C470.592 132.421 470.542 132.287 470.543 132.148V131.848C470.543 131.729 470.59 131.615 470.675 131.53C470.759 131.446 470.874 131.398 470.993 131.398H479.933C480.17 131.399 480.405 131.452 480.619 131.554C480.834 131.656 481.023 131.804 481.173 131.988L503.073 159.138C503.102 159.173 503.141 159.199 503.184 159.211C503.228 159.223 503.275 159.221 503.317 159.206C503.36 159.19 503.397 159.162 503.423 159.125C503.449 159.088 503.463 159.044 503.463 158.998V136.108C503.463 135.511 503.267 134.931 502.903 134.457C502.54 133.983 502.03 133.643 501.453 133.488L497.923 132.548C497.863 132.531 497.81 132.495 497.772 132.447C497.734 132.398 497.713 132.339 497.713 132.278V131.988C497.713 131.843 497.771 131.703 497.874 131.599C497.977 131.496 498.117 131.438 498.263 131.438H511.493C511.568 131.438 511.642 131.453 511.711 131.483C511.78 131.512 511.843 131.554 511.896 131.608C511.949 131.662 511.991 131.726 512.02 131.796C512.048 131.867 512.063 131.942 512.063 132.018V132.308C512.062 132.387 512.035 132.463 511.986 132.524C511.937 132.584 511.868 132.624 511.793 132.638C508.863 133.098 506.253 133.208 506.263 136.568C506.316 146.755 506.32 158.392 506.273 171.478C506.274 171.603 506.236 171.724 506.163 171.826C506.091 171.927 505.989 172.003 505.87 172.044C505.752 172.084 505.623 172.088 505.502 172.052C505.38 172.017 505.272 171.946 505.193 171.848L479.573 140.108C479.524 140.052 479.46 140.012 479.388 139.992C479.316 139.973 479.24 139.976 479.169 140.001C479.099 140.026 479.038 140.072 478.994 140.132C478.95 140.192 478.925 140.264 478.923 140.338V166.358C478.923 166.563 478.967 166.764 479.053 166.948C479.66 168.248 480.583 169.022 481.823 169.268C482.77 169.455 483.576 169.562 484.243 169.588C484.317 169.59 484.39 169.609 484.456 169.643C484.522 169.678 484.58 169.727 484.624 169.786C484.668 169.846 484.699 169.915 484.712 169.988C484.726 170.061 484.723 170.137 484.703 170.208L484.603 170.568C484.571 170.681 484.503 170.779 484.411 170.85C484.319 170.92 484.208 170.958 484.093 170.958Z" fill="#16411D"/>
<path d="M787.701 148.966C788.581 148.853 791.288 148.883 795.821 149.056C800.048 149.223 802.324 147.436 802.651 143.696C802.658 143.605 802.685 143.517 802.73 143.438C802.775 143.359 802.837 143.291 802.912 143.238C802.986 143.186 803.071 143.15 803.161 143.134C803.251 143.118 803.343 143.123 803.431 143.146L803.711 143.216C803.811 143.245 803.9 143.305 803.963 143.388C804.026 143.471 804.06 143.572 804.061 143.676V156.636C804.06 156.798 804.002 156.953 803.898 157.075C803.793 157.196 803.648 157.275 803.491 157.296L803.161 157.336C803.101 157.345 803.039 157.341 802.981 157.325C802.922 157.309 802.867 157.282 802.821 157.244C802.774 157.206 802.735 157.16 802.708 157.107C802.68 157.054 802.664 156.996 802.661 156.936C802.461 153.796 800.631 152.043 797.171 151.676C795.058 151.45 791.901 151.41 787.701 151.556C787.535 151.561 787.377 151.631 787.261 151.751C787.145 151.87 787.081 152.03 787.081 152.196V167.326C787.081 167.449 787.105 167.571 787.153 167.685C787.2 167.798 787.269 167.901 787.357 167.987C787.444 168.074 787.548 168.142 787.662 168.188C787.776 168.235 787.898 168.258 788.021 168.256C793.687 168.236 797.151 168.236 798.411 168.256C802.131 168.326 804.111 167.006 806.681 164.396C807.401 163.666 807.931 161.956 808.751 160.896C808.873 160.736 809.048 160.623 809.245 160.577C809.442 160.531 809.648 160.555 809.829 160.645C810.01 160.735 810.154 160.885 810.237 161.07C810.319 161.254 810.335 161.462 810.281 161.656L807.981 170.276C807.935 170.44 807.837 170.584 807.702 170.687C807.566 170.79 807.401 170.846 807.231 170.846H776.001C775.899 170.847 775.8 170.81 775.723 170.742C775.646 170.674 775.595 170.579 775.581 170.476L775.521 170.056C775.512 170.006 775.514 169.954 775.526 169.904C775.539 169.854 775.561 169.807 775.592 169.766C775.622 169.725 775.661 169.69 775.706 169.664C775.75 169.639 775.8 169.622 775.851 169.616L778.171 169.296C778.892 169.193 779.553 168.834 780.03 168.284C780.508 167.735 780.771 167.033 780.771 166.306V136.156C780.771 135.522 780.562 134.906 780.177 134.403C779.792 133.9 779.252 133.539 778.641 133.376L775.821 132.616C775.759 132.602 775.702 132.569 775.659 132.521C775.617 132.472 775.589 132.411 775.581 132.346L775.541 132.086C775.529 132.001 775.536 131.914 775.561 131.832C775.586 131.75 775.629 131.674 775.685 131.609C775.742 131.545 775.813 131.493 775.891 131.458C775.97 131.423 776.055 131.406 776.141 131.406H806.681C806.758 131.406 806.835 131.422 806.907 131.452C806.978 131.482 807.043 131.526 807.098 131.582C807.153 131.638 807.196 131.704 807.226 131.777C807.256 131.85 807.271 131.928 807.271 132.006V139.406C807.269 139.602 807.195 139.792 807.064 139.938C806.932 140.085 806.752 140.178 806.558 140.2C806.363 140.223 806.168 140.172 806.01 140.059C805.852 139.946 805.742 139.777 805.701 139.586C805.127 137.066 803.731 135.33 801.511 134.376C801.154 134.224 800.774 134.14 800.391 134.126C796.504 134.053 792.954 134.026 789.741 134.046C788.014 134.053 787.144 134.813 787.131 136.326C787.097 140.353 787.097 144.396 787.131 148.456C787.13 148.529 787.145 148.6 787.175 148.666C787.204 148.733 787.247 148.792 787.301 148.84C787.355 148.888 787.418 148.924 787.487 148.946C787.556 148.968 787.629 148.975 787.701 148.966Z" fill="#16411D"/>
</svg>
