<svg width="745" height="1381" viewBox="0 0 745 1381" fill="none" xmlns="http://www.w3.org/2000/svg">
<path d="M372.101 0.108024C378.601 5.46802 383.938 9.93136 388.111 13.498C394.138 18.6514 395.995 25.078 393.681 32.778C392.811 35.668 390.401 38.888 389.861 42.818C389.84 42.9764 389.782 43.1276 389.692 43.2595C389.601 43.3913 389.481 43.5 389.341 43.5769C389.201 43.6538 389.045 43.6966 388.885 43.702C388.725 43.7075 388.566 43.6753 388.421 43.608L383.061 41.208C382.858 41.1164 382.674 40.9852 382.522 40.822C382.37 40.6587 382.251 40.4667 382.174 40.2572C382.097 40.0477 382.062 39.8249 382.072 39.6019C382.082 39.3788 382.136 39.1599 382.231 38.958C385.071 32.968 387.871 27.658 383.041 22.348C382.028 21.228 378.408 17.7013 372.181 11.768C372.058 11.6502 371.894 11.5853 371.724 11.5872C371.554 11.5891 371.392 11.6576 371.271 11.778C368.891 14.2114 366.128 16.908 362.981 19.868C358.441 24.138 356.591 27.248 358.971 33.378C359.971 35.9447 360.771 37.7814 361.371 38.888C361.481 39.0926 361.542 39.3194 361.551 39.551C361.559 39.7826 361.515 40.0129 361.422 40.2243C361.328 40.4357 361.187 40.6225 361.01 40.7705C360.834 40.9185 360.625 41.0237 360.401 41.078C358.961 41.4314 357.631 42.048 356.411 42.928C356.231 43.0568 356.023 43.1415 355.804 43.1755C355.585 43.2095 355.361 43.1918 355.15 43.1238C354.939 43.0557 354.747 42.9393 354.59 42.7837C354.432 42.6282 354.312 42.4379 354.241 42.228C353.881 41.1547 353.198 39.708 352.191 37.888C347.751 29.858 347.261 20.888 354.601 14.358C360.015 9.54469 365.655 4.79135 371.521 0.0980146C371.604 0.0328317 371.707 -0.00175262 371.813 6.84084e-05C371.919 0.00188944 372.021 0.0400146 372.101 0.108024Z" fill="#E1BB23"/>
<path d="M371.821 16.1954C371.841 16.1954 371.864 16.1954 371.891 16.1954C371.935 16.196 371.986 16.2106 372.037 16.2383C372.089 16.2659 372.142 16.3059 372.191 16.3554C373.457 17.5687 375.994 20.0021 379.801 23.6554C384.941 28.5854 380.541 33.7554 378.751 38.7954C378.696 38.9587 378.585 39.0973 378.437 39.187C378.289 39.2766 378.113 39.3115 377.941 39.2854C375.874 38.9521 373.817 38.7821 371.771 38.7754C369.717 38.7687 367.657 38.9287 365.591 39.2554C365.418 39.2815 365.243 39.2466 365.094 39.157C364.946 39.0673 364.835 38.9286 364.781 38.7654C363.021 33.7154 358.641 28.5254 363.801 23.6254C367.621 19.9854 370.167 17.5621 371.441 16.3554C371.492 16.3042 371.546 16.2633 371.6 16.2356C371.654 16.2079 371.705 16.1941 371.751 16.1954C371.777 16.1954 371.801 16.1954 371.821 16.1954Z" fill="#E1BB23"/>
<path d="M406.503 36.5658C406.523 36.5858 406.54 36.6024 406.553 36.6158C406.572 36.6336 406.59 36.651 406.603 36.6665C406.617 36.6821 406.627 36.6955 406.633 36.7058L407.463 45.9158C407.517 46.52 407.37 47.1251 407.044 47.6369C406.719 48.1488 406.233 48.5386 405.663 48.7458L399.403 50.9758C399.214 51.0445 399.01 51.0594 398.812 51.0189C398.614 50.9783 398.431 50.8838 398.283 50.7458C397.956 50.4391 396.966 49.4658 395.313 47.8258C393.666 46.1858 392.686 45.2024 392.373 44.8758C392.233 44.7285 392.137 44.5459 392.095 44.3482C392.052 44.1505 392.066 43.9455 392.133 43.7558L394.323 37.4858C394.526 36.9137 394.913 36.4249 395.423 36.0957C395.933 35.7665 396.538 35.6153 397.143 35.6658L406.363 36.4358C406.374 36.442 406.387 36.4523 406.403 36.4661C406.418 36.48 406.435 36.4969 406.453 36.5158C406.466 36.5224 406.483 36.5391 406.503 36.5658Z" fill="#E1BB23"/>
<path d="M348.672 48.0843C347.339 49.431 346.372 50.441 345.772 51.1143C345.65 51.2554 345.486 51.3551 345.304 51.3998C345.121 51.4445 344.929 51.4321 344.752 51.3643L338.812 49.1343C338.346 48.9581 337.946 48.6429 337.665 48.2315C337.384 47.8201 337.237 47.3324 337.242 46.8343C337.276 44.6943 337.516 41.6943 337.962 37.8343C337.969 37.7676 338.019 37.691 338.112 37.6043C338.212 37.4976 338.296 37.441 338.362 37.4343C342.222 36.9677 345.222 36.711 347.362 36.6643C347.858 36.6572 348.344 36.8019 348.755 37.0789C349.166 37.356 349.483 37.7522 349.662 38.2143L351.932 44.1443C352.001 44.3196 352.015 44.5114 351.972 44.6938C351.929 44.8762 351.832 45.0405 351.692 45.1643C351.019 45.771 350.012 46.7443 348.672 48.0843Z" fill="#E1BB23"/>
<path d="M370.041 43.1463C373.655 42.9379 377.277 43.4587 380.697 44.679C384.118 45.8993 387.272 47.7951 389.978 50.2583C392.685 52.7215 394.891 55.7038 396.471 59.0349C398.051 62.366 398.973 65.9807 399.186 69.6726C399.616 77.1287 397.129 84.4466 392.271 90.0165C387.413 95.5864 380.583 98.952 373.283 99.3729C369.668 99.5813 366.047 99.0605 362.626 97.8403C359.206 96.62 356.052 94.7241 353.346 92.2609C350.639 89.7977 348.433 86.8154 346.853 83.4843C345.273 80.1532 344.35 76.5385 344.138 72.8466C343.708 65.3905 346.195 58.0726 351.053 52.5027C355.911 46.9328 362.741 43.5672 370.041 43.1463ZM370.496 49.5536C364.827 49.8706 359.518 52.4657 355.737 56.768C351.956 61.0703 350.013 66.7273 350.335 72.4947C350.658 78.2621 353.219 83.6674 357.456 87.5214C361.693 91.3755 367.258 93.3626 372.928 93.0456C378.597 92.7286 383.906 90.1336 387.687 85.8313C391.468 81.529 393.411 75.8719 393.089 70.1045C392.766 64.3371 390.205 58.9318 385.968 55.0778C381.731 51.2238 376.166 49.2367 370.496 49.5536Z" fill="#E1BB23"/>
<path d="M313.742 71.1485C313.742 71.2752 313.812 71.4152 313.952 71.5685C317.818 75.6552 320.632 78.6085 322.392 80.4285C326.182 84.3385 329.352 85.7385 334.342 83.9385C336.828 83.0452 339.018 82.1619 340.912 81.2885C340.952 81.2701 340.996 81.2599 341.041 81.2585C341.086 81.2571 341.13 81.2645 341.172 81.2803C341.214 81.2961 341.252 81.3199 341.285 81.3505C341.317 81.3811 341.343 81.4178 341.362 81.4585L344.232 87.7385C344.264 87.8079 344.268 87.8868 344.244 87.9593C344.22 88.0318 344.169 88.0923 344.102 88.1285C338.468 91.1885 334.588 92.8952 332.462 93.2485C325.355 94.4552 319.755 92.6052 315.662 87.6985C311.662 82.9052 307.208 77.4519 302.302 71.3385C302.275 71.3119 302.262 71.2752 302.262 71.2285C302.262 71.2019 302.272 71.1752 302.292 71.1485C307.172 65.0085 311.602 59.5319 315.582 54.7185C319.648 49.7919 325.238 47.9152 332.352 49.0885C334.478 49.4285 338.368 51.1152 344.022 54.1485C344.089 54.1848 344.14 54.2453 344.164 54.3178C344.188 54.3902 344.184 54.4692 344.152 54.5385L341.312 60.8385C341.293 60.8793 341.267 60.916 341.235 60.9465C341.202 60.9771 341.164 61.001 341.122 61.0168C341.08 61.0326 341.036 61.04 340.991 61.0385C340.946 61.0371 340.902 61.027 340.862 61.0085C338.962 60.1419 336.768 59.2685 334.282 58.3885C329.282 56.6185 326.122 58.0285 322.342 61.9585C320.595 63.7852 317.798 66.7552 313.952 70.8685C313.812 71.0152 313.742 71.1085 313.742 71.1485Z" fill="#E1BB23"/>
<path d="M441.021 71.947C441.021 71.987 441.011 72.0203 440.991 72.047C436.058 78.1137 431.584 83.5237 427.571 88.277C423.464 93.1437 417.874 94.957 410.801 93.717C408.681 93.3504 404.821 91.627 399.221 88.547C399.155 88.5116 399.106 88.4514 399.083 88.3787C399.061 88.306 399.067 88.2267 399.101 88.157L401.991 81.907C402.03 81.8266 402.099 81.7646 402.183 81.7347C402.267 81.7047 402.36 81.7092 402.441 81.747C404.328 82.627 406.507 83.5203 408.981 84.427C413.941 86.247 417.111 84.867 420.911 80.997C422.671 79.1904 425.491 76.2603 429.371 72.207C429.511 72.0603 429.584 71.9204 429.591 71.787C429.591 71.7537 429.518 71.6604 429.371 71.507C425.564 67.3937 422.794 64.4203 421.061 62.587C417.321 58.647 414.181 57.217 409.191 58.957C406.698 59.8237 404.504 60.6803 402.611 61.527C402.57 61.5454 402.526 61.5556 402.482 61.557C402.437 61.5585 402.392 61.551 402.351 61.5353C402.309 61.5195 402.271 61.4956 402.238 61.465C402.205 61.4344 402.179 61.3977 402.161 61.357L399.371 55.067C399.338 54.9962 399.333 54.9158 399.358 54.843C399.382 54.7702 399.433 54.7106 399.501 54.677C405.148 51.6903 409.034 50.0303 411.161 49.697C418.254 48.5703 423.814 50.4737 427.841 55.407C431.781 60.227 436.164 65.7103 440.991 71.857C441.011 71.8837 441.021 71.9137 441.021 71.947Z" fill="#E1BB23"/>
<path d="M388.522 70.4589C388.073 60.937 380.165 53.5738 370.858 54.0127C361.551 54.4516 354.371 62.5264 354.82 72.0482C355.269 81.5701 363.177 88.9333 372.484 88.4944C381.791 88.0555 388.971 79.9807 388.522 70.4589Z" fill="#E1BB23"/>
<path d="M339.781 71.0733C339.788 73.1066 339.958 75.14 340.291 77.1733C340.317 77.3368 340.291 77.5039 340.218 77.6511C340.144 77.7982 340.027 77.9179 339.881 77.9933C336.701 79.6333 329.991 82.8633 326.961 80.0533C324.588 77.84 321.778 74.9867 318.531 71.4933C318.471 71.4267 318.441 71.3033 318.441 71.1233C318.441 70.93 318.471 70.8033 318.531 70.7433C321.758 67.23 324.558 64.3633 326.931 62.1433C329.941 59.3233 336.671 62.5233 339.851 64.1533C339.995 64.2282 340.111 64.3463 340.185 64.4914C340.258 64.6365 340.285 64.8014 340.261 64.9633C339.935 67.0033 339.775 69.04 339.781 71.0733Z" fill="#E1BB23"/>
<path d="M424.962 71.8058C424.962 71.9925 424.932 72.1158 424.872 72.1758C421.625 75.6492 418.812 78.4825 416.432 80.6758C413.402 83.4658 406.722 80.2158 403.562 78.5658C403.42 78.489 403.305 78.3698 403.233 78.2246C403.161 78.0795 403.137 77.9157 403.162 77.7558C403.502 75.7225 403.679 73.6925 403.692 71.6658C403.705 69.6392 403.555 67.6092 403.242 65.5758C403.217 65.4149 403.244 65.2503 403.317 65.105C403.391 64.9598 403.508 64.8412 403.652 64.7658C406.832 63.1558 413.552 59.9958 416.542 62.8158C418.896 65.0425 421.675 67.9125 424.882 71.4258C424.935 71.4925 424.962 71.6192 424.962 71.8058Z" fill="#E1BB23"/>
<path d="M744.423 689.443C744.423 770.016 744.416 851.269 744.403 933.203C744.396 960.276 743.886 979.329 742.873 990.363C733.863 1088.36 684.493 1178.5 607.003 1239.55C560.636 1276.09 508.363 1299.78 450.183 1310.64C450.125 1310.65 450.064 1310.65 450.007 1310.63C449.95 1310.62 449.896 1310.59 449.851 1310.55C449.805 1310.52 449.768 1310.47 449.743 1310.41C449.717 1310.36 449.704 1310.3 449.703 1310.24V1297.62C449.703 1297.48 449.755 1297.33 449.85 1297.22C449.945 1297.11 450.077 1297.03 450.223 1297C475.843 1292.12 500.48 1284.43 524.133 1273.93C563.846 1256.31 598.736 1232.45 628.803 1202.37C674.01 1157.15 704.56 1103.71 720.453 1042.05C724.693 1025.6 727.81 1007.36 729.803 987.333C730.796 977.346 731.246 958.829 731.153 931.783C731.14 928.036 731.133 847.256 731.133 689.443C731.14 531.636 731.15 450.856 731.163 447.103C731.263 420.063 730.817 401.549 729.823 391.563C727.83 371.536 724.713 353.296 720.473 336.843C704.586 275.176 674.04 221.733 628.833 176.513C598.773 146.433 563.886 122.576 524.173 104.943C500.52 94.4426 475.883 86.7526 450.263 81.8726C450.117 81.8447 449.985 81.7675 449.89 81.6544C449.795 81.5412 449.743 81.3991 449.743 81.2526V68.6326C449.744 68.5731 449.757 68.5146 449.783 68.4609C449.808 68.4072 449.845 68.3596 449.891 68.3216C449.936 68.2836 449.99 68.2559 450.047 68.2405C450.104 68.2251 450.165 68.2224 450.223 68.2326C508.403 79.0926 560.676 102.793 607.043 139.333C684.523 200.383 733.893 290.533 742.893 388.533C743.906 399.566 744.413 418.619 744.413 445.693C744.426 527.619 744.43 608.869 744.423 689.443Z" fill="#E1BB23"/>
<path d="M13.43 689.293C13.3967 850.646 13.4467 940.993 13.58 960.333C13.6 963.486 13.64 966.98 13.7 970.813C13.76 974.833 13.9067 978.333 14.14 981.313C19.8867 1053.15 44.8333 1116.92 88.98 1172.62C107.627 1196.14 129.357 1217.06 154.17 1235.38C195.137 1265.62 240.51 1285.9 290.29 1296.21C290.462 1296.25 290.616 1296.34 290.727 1296.48C290.838 1296.62 290.899 1296.79 290.9 1296.96V1309.58C290.899 1309.63 290.888 1309.68 290.866 1309.73C290.845 1309.77 290.814 1309.81 290.775 1309.85C290.737 1309.88 290.693 1309.9 290.645 1309.91C290.597 1309.92 290.548 1309.92 290.5 1309.91C230.847 1297.99 177.6 1272.71 130.76 1234.09C96.5667 1205.9 68.3267 1172.12 46.04 1132.75C31.2934 1106.69 20.1467 1079.54 12.6 1051.29C4.65337 1021.53 0.546696 992.453 0.280029 964.073C0.240029 959.873 0 956.633 0 953.083C0 933.55 0.0133724 845.62 0.0400391 689.293C0.0667057 532.96 0.0833602 445.026 0.0900269 425.493C0.100027 421.943 0.340005 418.703 0.380005 414.503C0.660005 386.123 4.77665 357.053 12.73 327.293C20.29 299.046 31.4467 271.896 46.2 245.843C68.5067 206.483 96.76 172.713 130.96 144.533C177.813 105.933 231.07 80.6796 290.73 68.7729C290.778 68.7625 290.827 68.7632 290.875 68.775C290.923 68.7867 290.967 68.8092 291.005 68.8407C291.044 68.8723 291.075 68.9122 291.096 68.9576C291.118 69.0029 291.129 69.0526 291.13 69.1029V81.7229C291.129 81.8988 291.068 82.0691 290.957 82.2056C290.846 82.342 290.692 82.4364 290.52 82.4729C240.733 92.7663 195.35 113.026 154.37 143.253C129.55 161.566 107.813 182.48 89.16 205.993C44.9934 261.68 20.0233 325.44 14.25 397.273C14.0167 400.253 13.8667 403.753 13.8 407.773C13.74 411.606 13.7 415.1 13.68 418.253C13.54 437.593 13.4567 527.94 13.43 689.293Z" fill="#E1BB23"/>
<path d="M348.103 94.8926C348.303 95.0926 349.363 96.0559 351.283 97.7826C351.422 97.9085 351.521 98.074 351.565 98.2576C351.61 98.4412 351.598 98.6345 351.533 98.8126L349.123 105.223C348.913 105.775 348.53 106.244 348.03 106.558C347.53 106.872 346.941 107.014 346.353 106.963L337.123 106.153C337.11 106.152 337.095 106.145 337.079 106.133C337.063 106.12 337.047 106.103 337.033 106.083C337.026 106.069 337.009 106.053 336.983 106.033C336.923 105.973 336.886 105.939 336.873 105.933C336.853 105.917 336.837 105.901 336.826 105.885C336.816 105.869 336.811 105.854 336.813 105.843L336.033 96.6026C335.984 96.0148 336.129 95.4272 336.445 94.9291C336.761 94.431 337.23 94.0495 337.783 93.8426L344.203 91.4526C344.38 91.3901 344.572 91.3815 344.754 91.4278C344.935 91.4741 345.099 91.5732 345.223 91.7126C346.949 93.6392 347.909 94.6992 348.103 94.8926Z" fill="#E1BB23"/>
<path d="M404.98 105.109C404.88 105.216 404.797 105.272 404.73 105.279C400.91 105.732 397.94 105.979 395.82 106.019C395.327 106.026 394.843 105.881 394.435 105.604C394.028 105.327 393.715 104.93 393.54 104.469L391.31 98.5991C391.244 98.4253 391.232 98.2354 391.277 98.0548C391.321 97.8742 391.42 97.7117 391.56 97.589C392.227 96.989 393.22 96.0257 394.54 94.699C395.867 93.3724 396.83 92.3757 397.43 91.709C397.554 91.5708 397.717 91.4738 397.898 91.4309C398.078 91.388 398.267 91.4013 398.44 91.4691L404.31 93.6891C404.772 93.8637 405.168 94.1763 405.445 94.5843C405.723 94.9923 405.868 95.4758 405.86 95.9691C405.827 98.0891 405.584 101.059 405.13 104.879C405.124 104.946 405.074 105.022 404.98 105.109Z" fill="#E1BB23"/>
<path d="M372.291 130.575C373.578 129.388 376.618 126.521 381.411 121.975C385.131 118.455 386.591 115.395 384.931 110.645C384.104 108.278 383.001 105.631 381.621 102.705C381.599 102.659 381.587 102.609 381.585 102.558C381.583 102.508 381.591 102.457 381.608 102.41C381.626 102.362 381.653 102.319 381.688 102.282C381.723 102.245 381.764 102.215 381.811 102.195L388.191 99.2747C388.267 99.2404 388.353 99.2368 388.433 99.2646C388.512 99.2924 388.58 99.3496 388.621 99.4247C391.794 105.318 393.564 109.148 393.931 110.915C395.464 118.308 393.708 124.181 388.661 128.535C384.408 132.208 378.834 136.831 371.941 142.405C371.882 142.454 371.807 142.48 371.731 142.48C371.654 142.48 371.58 142.454 371.521 142.405C366.548 138.431 361.011 133.785 354.911 128.465C349.411 123.665 347.658 117.641 349.651 110.395C350.581 107.005 353.111 103.655 353.991 99.7747C354.032 99.5861 354.12 99.411 354.247 99.2653C354.374 99.1196 354.536 99.0079 354.717 98.9404C354.899 98.8728 355.095 98.8516 355.288 98.8785C355.481 98.9055 355.664 98.9798 355.821 99.0948C357.267 100.161 358.831 100.925 360.511 101.385C360.717 101.441 360.909 101.54 361.073 101.677C361.238 101.813 361.371 101.982 361.464 102.174C361.557 102.366 361.607 102.575 361.612 102.787C361.617 102.999 361.575 103.21 361.491 103.405C359.081 109.015 355.121 114.835 360.831 120.555C364.784 124.528 368.268 127.868 371.281 130.575C371.419 130.701 371.599 130.77 371.786 130.77C371.973 130.77 372.153 130.701 372.291 130.575Z" fill="#E1BB23"/>
<path d="M371.702 103.793C373.749 103.78 375.805 103.606 377.872 103.273C378.042 103.249 378.214 103.284 378.36 103.371C378.506 103.459 378.616 103.594 378.672 103.753C380.472 108.783 384.882 113.943 379.752 118.883C375.959 122.536 373.432 124.973 372.172 126.193C372.121 126.245 372.067 126.286 372.013 126.314C371.959 126.341 371.908 126.355 371.862 126.353C371.835 126.346 371.812 126.346 371.792 126.353C371.772 126.353 371.752 126.353 371.732 126.353C371.686 126.354 371.635 126.341 371.581 126.313C371.528 126.285 371.473 126.244 371.422 126.193C370.149 124.986 367.599 122.57 363.772 118.943C358.602 114.053 362.972 108.863 364.722 103.813C364.776 103.65 364.887 103.511 365.036 103.422C365.184 103.332 365.36 103.297 365.532 103.323C367.599 103.643 369.655 103.8 371.702 103.793Z" fill="#E1BB23"/>
<path d="M434.934 616.85L343.224 360.22C343.207 360.169 343.174 360.124 343.131 360.092C343.088 360.06 343.036 360.043 342.982 360.042C342.928 360.04 342.876 360.056 342.831 360.086C342.787 360.116 342.753 360.159 342.734 360.21L246.484 624.56C246.414 624.742 246.307 624.908 246.169 625.045C246.031 625.183 245.866 625.29 245.684 625.36C237.877 628.3 233.26 630.066 231.834 630.66C218.014 636.393 204.957 643.136 192.664 650.89C192.625 650.912 192.58 650.923 192.536 650.919C192.491 650.916 192.448 650.899 192.413 650.871C192.378 650.843 192.353 650.804 192.341 650.761C192.328 650.718 192.329 650.672 192.344 650.63L342.614 251.04C342.626 251.007 342.648 250.979 342.676 250.96C342.705 250.94 342.739 250.929 342.774 250.93H391.024C391.175 250.93 391.322 250.971 391.451 251.049C391.58 251.126 391.684 251.237 391.754 251.37C392.347 252.483 392.77 253.7 393.024 255.02C393.03 255.039 393.037 255.063 393.044 255.09L522.044 605.49C522.085 605.605 522.087 605.731 522.051 605.848C522.015 605.965 521.942 606.067 521.844 606.14C508.104 616.3 494.414 618.36 476.214 619.14C462.767 619.713 449.227 619.13 435.594 617.39C435.446 617.369 435.306 617.308 435.19 617.212C435.073 617.117 434.985 616.992 434.934 616.85Z" fill="#E1BB23"/>
<path d="M599.523 425.619C604.203 420.599 604.853 408.819 604.113 402.119C604.06 401.659 603.313 394.985 601.873 382.099C600.813 372.665 601.18 364.199 602.973 356.699C605.423 346.409 612.093 337.649 620.413 330.749C630.553 322.349 641.203 313.969 649.983 303.659C656.23 296.325 659.673 287.952 660.313 278.539C660.314 278.486 660.333 278.435 660.366 278.394C660.399 278.353 660.445 278.324 660.496 278.312C660.547 278.299 660.601 278.304 660.649 278.325C660.698 278.346 660.738 278.382 660.763 278.429C661.243 279.215 661.916 280.052 662.783 280.939C663.263 281.419 663.923 282.252 664.763 283.439C669.216 289.692 672.103 296.695 673.423 304.449C673.656 305.815 673.75 307.415 673.703 309.249C673.676 310.435 673.68 312.045 673.713 314.079C673.793 319.179 672.743 324.735 670.563 330.749C669.103 334.749 666.043 338.239 662.883 342.509C659.453 347.169 654.613 352.499 652.343 356.149C649.753 360.289 649.043 364.539 648.833 370.399C648.72 373.712 649.206 376.252 650.293 378.019C654.423 384.719 663.893 381.059 667.983 375.399C672.156 369.632 674.373 363.039 674.633 355.619C674.637 355.582 674.652 355.548 674.677 355.521C674.702 355.495 674.735 355.476 674.771 355.47C674.807 355.463 674.844 355.468 674.877 355.484C674.909 355.5 674.936 355.526 674.953 355.559C678.813 364.405 681.183 373.459 682.063 382.719C683.843 401.549 679.513 418.099 668.303 433.109C661.943 441.619 653.813 447.199 643.893 450.969C635.533 454.149 628.503 456.129 621.383 457.579C611.916 459.505 604.2 464.202 598.233 471.669C597.888 472.107 597.605 472.591 597.393 473.109C595.74 477.109 594.586 481.875 593.933 487.409C593.533 490.795 593.8 495.695 594.733 502.109C596.06 511.242 596.866 516.855 597.153 518.949C597.913 524.569 597.353 532.729 593.943 537.529C593.872 537.63 593.769 537.706 593.652 537.746C593.534 537.786 593.407 537.788 593.289 537.751C593.171 537.714 593.069 537.64 592.998 537.541C592.926 537.441 592.89 537.321 592.893 537.199C592.923 529.249 592.703 523.699 590.503 516.479C588.683 510.492 586.713 505.402 584.593 501.209C583.673 499.389 582.973 497.572 582.493 495.759C581.62 492.445 581.143 490.552 581.063 490.079C579.89 483.065 580.723 476.492 583.563 470.359C587.483 461.909 596.873 455.079 604.993 450.269C605.041 450.244 605.078 450.203 605.097 450.153C605.117 450.103 605.117 450.048 605.099 449.997C605.081 449.947 605.044 449.905 604.997 449.88C604.95 449.854 604.895 449.847 604.843 449.859C596.683 451.265 589.726 454.819 583.973 460.519C575.403 468.999 571.803 481.029 575.893 492.359C576.92 495.205 577.923 497.875 578.903 500.369C580.003 503.162 580.953 505.849 581.753 508.429C583.54 514.169 584.783 518.212 585.483 520.559C585.676 521.212 586.496 524.825 587.943 531.399C591.943 549.565 590 566.905 582.113 583.419C580.813 586.132 578.33 590.832 574.663 597.519C561.413 621.699 541.223 641.329 515.803 651.489C497.156 658.935 478.063 662.515 458.523 662.229C451.143 662.115 441.556 661.362 429.763 659.969C403.496 656.869 377.276 654.769 351.103 653.669C325.59 652.589 305.056 653.019 289.503 654.959C244.423 660.579 203.173 676.875 165.753 703.849C144.7 719.029 126.016 736.815 109.703 757.209C109.676 757.241 109.638 757.262 109.596 757.268C109.554 757.274 109.512 757.264 109.477 757.241C109.442 757.217 109.417 757.181 109.407 757.14C109.397 757.099 109.403 757.056 109.423 757.019C128.136 722.439 153.176 693.319 184.543 669.659C187.41 667.499 191.89 664.495 197.983 660.649C198.042 660.609 198.093 660.558 198.133 660.499L198.433 659.969C198.446 659.955 198.46 659.945 198.473 659.939L212.183 652.449C212.236 652.422 212.283 652.392 212.323 652.359C214.523 650.679 216.03 649.712 216.843 649.459C217.99 649.105 219.41 648.435 221.103 647.449C221.823 647.022 224.223 645.922 228.303 644.149C229.916 643.442 231.09 642.832 231.823 642.319C232.118 642.109 232.46 641.985 232.813 641.959C233.553 641.899 234.883 641.365 236.803 640.359C237.089 640.212 237.383 640.088 237.683 639.989C241.023 638.902 243.65 637.985 245.563 637.239C248.736 635.999 251.34 635.065 253.373 634.439C267.313 630.152 280.216 627.182 292.083 625.529C316.816 622.082 342.783 620.919 369.983 622.039C377.856 622.359 385.053 622.929 391.573 623.749C402.683 625.139 415.353 626.819 428.463 627.989C435.216 628.595 440.353 629.069 443.873 629.409C449.753 629.989 455.856 630.335 462.183 630.449C465.49 630.502 471.6 630.345 480.513 629.979C487.16 629.699 492.986 629.049 497.993 628.029C500.833 627.449 502.606 627.122 503.313 627.049C503.573 627.022 503.827 626.979 504.073 626.919C505.226 626.632 507.91 625.645 512.123 623.959C527.55 617.765 539.6 607.479 548.273 593.099C553.72 584.065 554.003 574.862 549.123 565.489C547.753 562.859 546.093 559.969 543.923 557.609C542.503 556.062 540.806 554.199 538.833 552.019C538.574 551.727 538.275 551.471 537.943 551.259C517.733 538.339 508.243 516.859 511.213 492.999C512.526 482.419 515.526 472.285 520.213 462.599C520.235 462.561 520.269 462.53 520.309 462.513C520.349 462.495 520.394 462.49 520.437 462.498C520.48 462.507 520.519 462.529 520.549 462.562C520.579 462.594 520.598 462.635 520.603 462.679C520.996 469.285 522.133 475.752 524.013 482.079C524.953 485.239 527.133 489.449 530.443 491.079C532.35 492.012 533.696 492.779 534.483 493.379C537.143 495.419 539.306 498.029 540.973 501.209C541.006 501.273 541.059 501.326 541.124 501.358C541.188 501.391 541.262 501.402 541.334 501.389C541.405 501.377 541.471 501.342 541.521 501.29C541.571 501.238 541.604 501.171 541.613 501.099C542.04 498.599 541.85 496.175 541.043 493.829C539.79 490.162 538.023 486.389 535.743 482.509C535.571 482.21 535.443 481.89 535.363 481.559C534.533 478.089 533.283 474.599 532.683 470.499C530.336 454.385 532.28 438.729 538.513 423.529C547.733 401.079 565.393 383.349 586.083 370.609C586.936 370.082 587.786 369.465 588.633 368.759C588.866 368.564 589.157 368.448 589.463 368.429C590.016 368.402 590.786 367.985 591.773 367.179C591.816 367.142 591.868 367.119 591.924 367.111C591.98 367.103 592.037 367.111 592.089 367.134C592.141 367.156 592.187 367.193 592.221 367.24C592.255 367.286 592.277 367.341 592.283 367.399C592.75 372.612 593.193 376.639 593.613 379.479C593.943 381.669 594.863 384.499 596.033 386.869C597.193 389.229 597.896 390.819 598.143 391.639C601.333 402.059 602.483 415.049 599.233 425.449C599.218 425.486 599.217 425.528 599.23 425.567C599.243 425.605 599.27 425.638 599.305 425.658C599.34 425.679 599.381 425.686 599.421 425.679C599.461 425.672 599.497 425.65 599.523 425.619Z" fill="#E1BB23"/>
<path d="M650.171 459.029C650.411 459.069 650.601 459.066 650.741 459.019C663.271 454.879 673.081 445.42 680.061 434.49C680.093 434.442 680.14 434.406 680.193 434.385C680.247 434.365 680.306 434.362 680.361 434.376C680.417 434.39 680.467 434.421 680.505 434.465C680.542 434.508 680.565 434.562 680.571 434.62C681.184 443.26 681.228 451.423 680.701 459.11C680.061 468.57 678.434 479.716 675.821 492.55C672.241 510.13 664.511 529.209 654.041 543.969C643.408 558.983 629.831 571.24 613.311 580.74C613.25 580.772 613.179 580.783 613.111 580.77C613.043 580.758 612.981 580.723 612.934 580.671C612.888 580.619 612.861 580.554 612.857 580.484C612.853 580.415 612.872 580.347 612.911 580.29C613.584 579.383 614.154 578.439 614.621 577.459C616.321 573.899 617.858 569.546 619.231 564.399C620.091 561.146 620.541 556.573 620.581 550.68C620.621 544.946 620.924 538.496 621.491 531.329C622.038 524.383 624.671 518.37 629.391 513.29C629.425 513.254 629.446 513.208 629.45 513.159C629.455 513.11 629.443 513.061 629.417 513.019C629.39 512.978 629.351 512.947 629.304 512.93C629.258 512.914 629.208 512.914 629.161 512.93C622.388 515.223 618.381 519.916 617.141 527.009C616.351 531.519 615.751 534.639 615.581 538.819C615.191 548.639 614.811 557.159 613.591 564.779C612.671 570.519 610.464 576.016 606.971 581.269C600.651 590.749 591.851 596.566 580.571 598.719C580.465 598.742 580.355 598.732 580.256 598.689C580.156 598.646 580.073 598.573 580.017 598.481C579.961 598.389 579.935 598.281 579.943 598.173C579.951 598.065 579.992 597.963 580.061 597.879C580.201 597.699 580.498 597.476 580.951 597.209C581.084 597.13 581.205 597.036 581.311 596.93C588.838 589.43 594.014 580.686 596.841 570.699C599.374 561.746 601.361 553.459 602.801 545.839C602.861 545.521 602.881 545.198 602.861 544.879C602.721 542.509 603.301 540.499 603.481 538.199C603.821 533.893 603.691 529.663 603.091 525.509C601.761 516.189 601.311 506.59 601.341 499.87C601.408 488.416 605.704 478.976 614.231 471.55C615.564 470.39 617.391 468.966 619.711 467.279C620.638 466.599 624.078 464.946 630.031 462.319C630.276 462.207 630.536 462.133 630.801 462.1C637.471 461.15 643.531 460.999 649.681 459.069C649.839 459.017 650.007 459.003 650.171 459.029Z" fill="#E1BB23"/>
<path d="M474.493 672.507C477.053 672.474 479.569 672.267 482.043 671.887C492.943 670.214 503.443 667.614 513.543 664.087C522.223 661.054 530.586 657.057 538.633 652.097C538.687 652.063 538.748 652.042 538.812 652.034C538.876 652.027 538.941 652.033 539.002 652.053C539.063 652.073 539.118 652.106 539.165 652.15C539.212 652.194 539.249 652.248 539.273 652.307C570.926 738.141 589.826 789.567 595.973 806.587C599.453 816.234 602.513 823.101 605.153 827.187C612.319 838.281 622.109 846.494 634.523 851.827C637.649 853.174 640.709 854.184 643.703 854.857C644.035 854.93 644.37 854.971 644.703 854.977L665.363 855.477C665.509 855.48 665.649 855.54 665.752 855.645C665.855 855.749 665.913 855.89 665.913 856.037V873.247C665.913 873.353 665.869 873.455 665.793 873.53C665.716 873.605 665.611 873.647 665.503 873.647H450.113C450.009 873.647 449.91 873.606 449.837 873.533C449.764 873.46 449.723 873.361 449.723 873.257V856.057C449.723 855.906 449.783 855.761 449.89 855.654C449.996 855.547 450.141 855.487 450.293 855.487C460.559 855.487 466.036 855.497 466.723 855.517C470.889 855.664 474.386 855.257 477.213 854.297C481.479 852.851 484.729 851.434 486.963 850.047C499.843 842.027 505.933 828.987 504.573 813.977C504.353 811.564 503.296 807.807 501.403 802.707C499.616 797.887 485.243 757.711 458.283 682.177C458.197 681.945 458.146 681.702 458.133 681.457C458.079 680.357 457.776 679.471 457.223 678.797C457.097 678.645 456.999 678.476 456.933 678.297L455.253 673.737C455.23 673.675 455.223 673.608 455.232 673.542C455.241 673.477 455.265 673.414 455.304 673.36C455.342 673.306 455.393 673.262 455.452 673.232C455.511 673.202 455.576 673.186 455.643 673.187C462.369 673.361 468.493 673.254 474.013 672.867C474.166 672.854 474.279 672.764 474.353 672.597C474.365 672.57 474.384 672.547 474.409 672.531C474.434 672.515 474.463 672.507 474.493 672.507Z" fill="#E1BB23"/>
<path d="M183.132 704.96C183.265 704.993 183.389 704.973 183.502 704.9C193.242 698.593 203.339 692.963 213.792 688.01C214.745 687.556 215.572 687.216 216.272 686.99C217.185 686.696 218.022 686.246 218.782 685.64C218.921 685.527 219.076 685.439 219.242 685.38L224.382 683.49C224.446 683.467 224.515 683.463 224.582 683.478C224.648 683.492 224.709 683.526 224.757 683.574C224.806 683.622 224.839 683.683 224.854 683.75C224.869 683.816 224.865 683.885 224.842 683.95C200.035 752.103 187.339 786.923 186.752 788.41C184.479 794.15 183.179 799.033 182.852 803.06C182.005 813.54 184.045 823.1 188.972 831.74C196.832 845.533 208.885 853.433 225.132 855.44C226.072 855.553 228.849 855.57 233.462 855.49C235.715 855.45 238.312 855.46 241.252 855.52C241.393 855.522 241.528 855.58 241.627 855.681C241.726 855.782 241.782 855.918 241.782 856.06V873.12C241.782 873.26 241.726 873.395 241.627 873.494C241.527 873.594 241.392 873.65 241.252 873.65H74.2519C74.0981 873.65 73.9506 873.588 73.8418 873.477C73.733 873.366 73.6719 873.216 73.6719 873.06V855.91C73.6718 855.843 73.6854 855.776 73.7119 855.715C73.7383 855.653 73.7771 855.598 73.8259 855.552C73.8746 855.506 73.9322 855.471 73.9952 855.448C74.0581 855.425 74.1251 855.416 74.1919 855.42C76.9786 855.566 79.0686 855.563 80.4619 855.41C83.1119 855.12 85.4719 853.69 88.1619 852.96C89.0753 852.706 90.0919 852.326 91.2119 851.82C105.099 845.573 116.239 836.006 124.632 823.12C127.839 818.206 131.562 810.226 135.802 799.18C147.849 767.86 157.179 743.346 163.792 725.64C164.605 723.46 165.105 722.2 165.292 721.86C165.772 720.96 166.252 719.566 166.732 717.68C166.933 716.871 167.41 716.157 168.082 715.66C173.335 711.793 178.199 708.393 182.672 705.46C182.745 705.413 182.792 705.32 182.812 705.18C182.818 705.143 182.831 705.108 182.851 705.077C182.871 705.046 182.897 705.019 182.927 704.998C182.957 704.978 182.99 704.963 183.026 704.957C183.061 704.95 183.097 704.951 183.132 704.96Z" fill="#E1BB23"/>
<path d="M167.812 941.573C167.839 962.873 167.832 980.623 167.792 994.823C167.785 997.303 168.012 998.929 168.472 999.703C170.462 1003.03 175.152 1003.87 178.792 1003.67C178.924 1003.67 179.055 1003.69 179.179 1003.73C179.302 1003.78 179.415 1003.85 179.51 1003.94C179.606 1004.03 179.682 1004.14 179.734 1004.26C179.786 1004.38 179.812 1004.51 179.812 1004.64V1005.71C179.812 1005.94 179.725 1006.15 179.569 1006.31C179.413 1006.46 179.202 1006.55 178.982 1006.55H150.462C150.381 1006.55 150.3 1006.54 150.225 1006.51C150.15 1006.47 150.081 1006.43 150.024 1006.37C149.966 1006.31 149.92 1006.25 149.889 1006.17C149.858 1006.09 149.842 1006.01 149.842 1005.93V1004.37C149.842 1004.27 149.862 1004.17 149.901 1004.08C149.941 1003.99 149.998 1003.91 150.07 1003.84C150.143 1003.77 150.228 1003.72 150.321 1003.68C150.414 1003.65 150.513 1003.64 150.612 1003.64C154.802 1003.9 161.802 1002.54 161.792 997.333C161.745 980.833 161.742 960.032 161.782 934.932C161.782 934.513 161.675 934.103 161.472 933.743C158.865 929.209 155.232 927.049 150.572 927.263C150.476 927.267 150.381 927.251 150.291 927.217C150.201 927.183 150.12 927.132 150.05 927.065C149.981 926.999 149.926 926.919 149.889 926.831C149.851 926.743 149.832 926.648 149.832 926.552V924.953C149.832 924.783 149.899 924.62 150.019 924.5C150.139 924.38 150.302 924.312 150.472 924.312H170.592C170.742 924.313 170.89 924.346 171.025 924.41C171.16 924.474 171.278 924.567 171.372 924.682L218.652 983.272C218.663 983.284 218.677 983.293 218.692 983.297C218.708 983.301 218.724 983.3 218.739 983.295C218.754 983.29 218.767 983.28 218.777 983.267C218.786 983.254 218.791 983.239 218.792 983.223C218.845 957.236 218.832 941.196 218.752 935.103C218.662 928.663 212.642 927.232 207.222 927.272C207.076 927.272 206.936 927.216 206.833 927.114C206.73 927.013 206.672 926.876 206.672 926.733V924.873C206.672 924.799 206.687 924.726 206.715 924.658C206.743 924.59 206.784 924.529 206.836 924.477C206.888 924.425 206.95 924.383 207.018 924.355C207.086 924.327 207.158 924.312 207.232 924.312H235.852C235.931 924.312 236.009 924.328 236.082 924.358C236.154 924.388 236.221 924.433 236.276 924.488C236.332 924.544 236.376 924.61 236.406 924.683C236.437 924.756 236.452 924.834 236.452 924.912L236.462 926.713C236.463 926.787 236.447 926.861 236.417 926.929C236.387 926.997 236.342 927.058 236.286 927.107C236.23 927.157 236.164 927.193 236.093 927.215C236.021 927.237 235.946 927.243 235.872 927.233C235.572 927.193 234.525 927.273 232.732 927.473C228.452 927.943 224.472 929.693 224.472 934.333C224.479 960.246 224.479 984.719 224.472 1007.75C224.473 1007.85 224.44 1007.95 224.378 1008.03C224.317 1008.11 224.23 1008.17 224.132 1008.19C223.025 1008.51 222.099 1008.2 221.352 1007.24C220.605 1006.29 202.905 984.349 168.252 941.422C168.22 941.384 168.176 941.357 168.128 941.344C168.08 941.33 168.029 941.332 167.981 941.348C167.934 941.364 167.892 941.394 167.862 941.434C167.832 941.474 167.814 941.522 167.812 941.573Z" fill="#E1BB23"/>
<path d="M83.8423 980.228C81.6723 986.108 78.7622 991.578 77.5822 997.328C76.4722 1002.71 80.9422 1003.76 85.0722 1003.83C85.2729 1003.83 85.4636 1003.92 85.6037 1004.06C85.7438 1004.2 85.8222 1004.39 85.8222 1004.59V1005.88C85.8222 1006.03 85.7611 1006.17 85.6524 1006.28C85.5436 1006.39 85.396 1006.45 85.2422 1006.45H62.2522C61.9347 1006.45 61.629 1006.33 61.3935 1006.11C61.158 1005.9 61.0094 1005.61 60.9759 1005.29C60.9425 1004.98 61.0266 1004.66 61.2123 1004.4C61.398 1004.15 61.6721 1003.97 61.9822 1003.9C67.6122 1002.7 69.3523 998.878 72.0323 993.488C73.1589 991.221 74.1689 989.031 75.0622 986.918C83.9422 965.891 90.9289 949.348 96.0223 937.288C96.2889 936.661 96.3123 935.514 96.0923 933.848C96.0466 933.51 95.8959 933.198 95.6623 932.958C91.7223 928.958 89.9223 926.798 84.9023 927.168C84.8228 927.173 84.7431 927.162 84.668 927.136C84.593 927.109 84.5242 927.067 84.466 927.013C84.4079 926.958 84.3615 926.892 84.3299 926.819C84.2983 926.746 84.2821 926.667 84.2823 926.588V925.108C84.2823 924.949 84.3444 924.796 84.4551 924.683C84.5657 924.571 84.7157 924.508 84.8722 924.508H104.822C105.014 924.508 105.202 924.563 105.362 924.668C105.522 924.773 105.648 924.923 105.722 925.098C118.389 954.271 128.432 977.248 135.852 994.028C138.032 998.958 140.322 1003.46 145.992 1003.99C146.165 1004.01 146.326 1004.09 146.442 1004.21C146.559 1004.34 146.623 1004.51 146.622 1004.68V1005.87C146.622 1005.95 146.607 1006.02 146.577 1006.1C146.546 1006.17 146.502 1006.24 146.447 1006.29C146.391 1006.35 146.325 1006.39 146.252 1006.42C146.179 1006.45 146.101 1006.47 146.022 1006.47H115.442C115.32 1006.47 115.203 1006.42 115.117 1006.33C115.031 1006.25 114.982 1006.13 114.982 1006.01V1004.43C114.982 1004.36 114.996 1004.29 115.024 1004.22C115.051 1004.16 115.092 1004.1 115.142 1004.05C115.193 1004 115.253 1003.96 115.318 1003.94C115.383 1003.91 115.453 1003.9 115.522 1003.91C117.922 1004.01 123.602 1003.68 123.552 1000.07C123.526 998.514 123.096 996.691 122.262 994.598C119.369 987.291 117.386 982.498 116.312 980.218C116.24 980.062 116.126 979.93 115.984 979.838C115.843 979.746 115.679 979.697 115.512 979.698H84.6023C84.4377 979.698 84.2768 979.749 84.1411 979.843C84.0053 979.938 83.9011 980.072 83.8423 980.228ZM100.262 974.568C104.696 974.554 109.219 974.528 113.832 974.488C113.887 974.487 113.94 974.473 113.988 974.447C114.035 974.421 114.076 974.384 114.105 974.338C114.135 974.293 114.153 974.24 114.158 974.186C114.162 974.132 114.154 974.078 114.132 974.028C109.319 962.701 104.762 951.931 100.462 941.718C100.389 941.538 100.272 941.448 100.112 941.448C100.006 941.454 99.9189 941.544 99.8523 941.718C95.6189 951.958 91.1356 962.761 86.4023 974.128C86.3808 974.178 86.3721 974.232 86.3768 974.286C86.3815 974.34 86.3994 974.393 86.4291 974.438C86.4588 974.484 86.4993 974.521 86.5469 974.547C86.5946 974.573 86.6479 974.587 86.7022 974.588C91.3089 974.588 95.8289 974.581 100.262 974.568Z" fill="#E1BB23"/>
<path d="M331.58 927.096C327.26 926.956 321.83 928.186 320.26 932.536C320.194 932.714 320.16 932.904 320.16 933.096L320.34 1007.62C320.341 1007.7 320.324 1007.78 320.291 1007.85C320.257 1007.93 320.208 1007.99 320.147 1008.05C320.085 1008.1 320.013 1008.14 319.934 1008.16C319.855 1008.19 319.772 1008.2 319.69 1008.19L318.12 1007.98C317.921 1007.95 317.739 1007.85 317.61 1007.7L263.72 940.906C263.689 940.87 263.648 940.844 263.602 940.832C263.556 940.82 263.508 940.821 263.464 940.836C263.42 940.852 263.383 940.88 263.357 940.918C263.331 940.955 263.318 941 263.32 941.046C263.267 966.899 263.277 985.566 263.35 997.046C263.38 1002.35 269.84 1003.97 274.29 1003.87C274.427 1003.86 274.563 1003.89 274.69 1003.94C274.818 1003.99 274.934 1004.06 275.031 1004.16C275.129 1004.25 275.207 1004.37 275.26 1004.49C275.313 1004.62 275.34 1004.75 275.34 1004.89V1005.49C275.34 1005.75 275.233 1006.01 275.041 1006.2C274.85 1006.39 274.591 1006.5 274.32 1006.5H246.62C246.389 1006.5 246.168 1006.4 246.005 1006.24C245.842 1006.08 245.75 1005.86 245.75 1005.64V1004.76C245.75 1004.64 245.773 1004.53 245.817 1004.42C245.862 1004.32 245.927 1004.22 246.009 1004.14C246.091 1004.06 246.188 1004 246.295 1003.96C246.401 1003.91 246.515 1003.89 246.63 1003.9C251.24 1004.04 257.69 1002.53 257.73 996.646C257.79 987.539 257.8 967.042 257.76 935.156C257.76 934.84 257.685 934.528 257.54 934.246C255.067 929.326 251.263 926.936 246.13 927.076C246.09 927.077 246.05 927.07 246.012 927.056C245.975 927.041 245.94 927.019 245.911 926.991C245.882 926.963 245.859 926.93 245.844 926.893C245.828 926.856 245.82 926.816 245.82 926.776V924.816C245.82 924.776 245.828 924.737 245.843 924.701C245.858 924.664 245.88 924.631 245.908 924.603C245.936 924.576 245.969 924.554 246.005 924.538C246.042 924.523 246.081 924.516 246.12 924.516H266.38C266.521 924.516 266.659 924.547 266.786 924.608C266.912 924.668 267.023 924.757 267.11 924.866L314.29 983.326C314.303 983.339 314.32 983.348 314.339 983.352C314.357 983.356 314.376 983.355 314.394 983.349C314.412 983.343 314.427 983.332 314.439 983.317C314.451 983.302 314.458 983.284 314.46 983.266V933.486C314.46 933.313 314.433 933.138 314.38 932.966C312.86 928.006 307.58 927.136 302.94 927.136C302.807 927.136 302.68 927.083 302.586 926.989C302.493 926.895 302.44 926.768 302.44 926.636V925.016C302.44 924.883 302.494 924.756 302.589 924.662C302.685 924.568 302.815 924.516 302.95 924.516H331.38C331.582 924.516 331.775 924.596 331.917 924.738C332.06 924.881 332.14 925.074 332.14 925.276V926.556C332.14 926.628 332.125 926.7 332.097 926.767C332.069 926.834 332.027 926.894 331.975 926.945C331.923 926.995 331.861 927.034 331.793 927.06C331.725 927.086 331.653 927.098 331.58 927.096Z" fill="#E1BB23"/>
<path d="M410.552 924.518C431.945 924.511 443.402 924.521 444.922 924.548C445.076 924.55 445.223 924.612 445.333 924.72C445.443 924.828 445.507 924.974 445.512 925.128L446.262 945.278C446.265 945.324 446.258 945.371 446.241 945.415C446.225 945.459 446.2 945.5 446.167 945.534C446.135 945.569 446.095 945.597 446.051 945.616C446.008 945.636 445.96 945.646 445.912 945.648L443.622 945.738C443.489 945.744 443.359 945.699 443.258 945.614C443.158 945.528 443.095 945.408 443.082 945.278C442.452 940.148 440.702 934.268 436.082 931.378C435.022 930.711 432.662 930.261 429.002 930.028C427.682 929.948 423.749 929.944 417.202 930.018C417.13 930.018 417.062 930.047 417.011 930.1C416.961 930.152 416.932 930.223 416.932 930.298C416.945 967.218 416.949 987.374 416.942 990.768C416.929 994.848 416.972 997.214 417.072 997.868C417.812 1002.76 422.462 1003.58 427.052 1003.97C427.197 1003.98 427.333 1004.04 427.444 1004.13C427.555 1004.23 427.634 1004.35 427.672 1004.49C427.892 1005.29 427.849 1005.86 427.542 1006.2C427.418 1006.33 427.257 1006.41 427.082 1006.44C426.962 1006.46 421.455 1006.47 410.562 1006.47C399.675 1006.47 394.172 1006.46 394.052 1006.45C393.877 1006.42 393.716 1006.34 393.592 1006.21C393.285 1005.87 393.242 1005.3 393.462 1004.5C393.5 1004.36 393.579 1004.24 393.69 1004.14C393.801 1004.05 393.937 1003.99 394.082 1003.98C398.672 1003.58 403.322 1002.76 404.062 997.868C404.162 997.214 404.202 994.848 404.182 990.768C404.175 987.374 404.172 967.218 404.172 930.298C404.172 930.223 404.144 930.152 404.093 930.1C404.042 930.047 403.974 930.018 403.902 930.018C397.355 929.951 393.422 929.958 392.102 930.038C388.442 930.271 386.082 930.721 385.022 931.388C380.412 934.278 378.662 940.158 378.032 945.288C378.02 945.418 377.957 945.538 377.856 945.624C377.756 945.709 377.625 945.754 377.492 945.748L375.202 945.658C375.154 945.656 375.107 945.645 375.063 945.626C375.019 945.607 374.979 945.579 374.947 945.544C374.914 945.51 374.889 945.469 374.873 945.425C374.856 945.381 374.849 945.334 374.852 945.288L375.592 925.138C375.597 924.982 375.663 924.834 375.775 924.726C375.887 924.618 376.036 924.557 376.192 924.558C377.712 924.531 389.165 924.518 410.552 924.518Z" fill="#E1BB23"/>
<path d="M500.081 962.006C511.195 962.006 517.285 962.009 518.351 962.016C518.393 962.016 518.435 962.007 518.474 961.991C518.513 961.975 518.548 961.952 518.578 961.922C518.607 961.892 518.631 961.857 518.647 961.818C518.663 961.779 518.671 961.738 518.671 961.696C518.718 955.282 518.718 946.269 518.671 934.656C518.641 928.646 513.381 927.066 508.301 927.126C508.156 927.126 508.016 927.068 507.912 926.964C507.809 926.861 507.751 926.721 507.751 926.576V925.056C507.751 924.912 507.808 924.775 507.91 924.674C508.011 924.572 508.148 924.516 508.291 924.516H541.841C541.985 924.516 542.122 924.572 542.223 924.674C542.324 924.775 542.381 924.912 542.381 925.056V926.606C542.381 926.744 542.327 926.876 542.229 926.973C542.132 927.071 541.999 927.126 541.861 927.126C536.141 927.106 531.381 928.946 531.391 935.616C531.431 952.936 531.438 972.502 531.411 994.316C531.411 998.276 531.821 1001.14 535.411 1002.71C537.211 1003.5 539.241 1003.92 541.501 1003.97C541.763 1003.97 542.012 1004.08 542.196 1004.27C542.379 1004.45 542.481 1004.7 542.481 1004.97V1005.44C542.481 1005.71 542.372 1005.98 542.177 1006.18C541.982 1006.37 541.717 1006.49 541.441 1006.49H508.711C508.571 1006.49 508.432 1006.46 508.302 1006.4C508.172 1006.35 508.054 1006.27 507.955 1006.18C507.855 1006.08 507.777 1005.96 507.723 1005.83C507.669 1005.7 507.641 1005.56 507.641 1005.43V1004.93C507.641 1004.68 507.735 1004.45 507.902 1004.27C508.07 1004.1 508.299 1004 508.541 1003.99C513.201 1003.76 518.651 1002.45 518.671 996.846C518.705 987.706 518.711 978.046 518.691 967.866C518.692 967.705 518.632 967.551 518.524 967.434C518.417 967.317 518.269 967.246 518.111 967.236C517.511 967.196 511.501 967.176 500.081 967.176C488.661 967.176 482.655 967.196 482.061 967.236C481.904 967.246 481.756 967.317 481.648 967.434C481.541 967.551 481.481 967.705 481.481 967.866C481.461 978.046 481.468 987.706 481.501 996.846C481.521 1002.45 486.971 1003.76 491.631 1003.99C491.874 1004 492.103 1004.1 492.27 1004.27C492.438 1004.45 492.532 1004.68 492.531 1004.93V1005.43C492.531 1005.56 492.504 1005.7 492.45 1005.83C492.396 1005.96 492.317 1006.08 492.218 1006.18C492.119 1006.27 492.001 1006.35 491.871 1006.4C491.741 1006.46 491.602 1006.49 491.461 1006.49H458.731C458.456 1006.49 458.191 1006.37 457.996 1006.18C457.801 1005.98 457.691 1005.71 457.691 1005.44V1004.97C457.691 1004.7 457.794 1004.45 457.977 1004.27C458.16 1004.08 458.41 1003.97 458.671 1003.97C460.931 1003.92 462.961 1003.5 464.761 1002.71C468.351 1001.14 468.761 998.276 468.761 994.316C468.735 972.502 468.741 952.936 468.781 935.616C468.791 928.946 464.031 927.106 458.311 927.126C458.173 927.126 458.041 927.071 457.944 926.973C457.846 926.876 457.791 926.744 457.791 926.606V925.056C457.791 924.912 457.848 924.775 457.95 924.674C458.051 924.572 458.188 924.516 458.331 924.516H491.881C492.025 924.516 492.162 924.572 492.263 924.674C492.365 924.775 492.421 924.912 492.421 925.056V926.576C492.421 926.721 492.363 926.861 492.26 926.964C492.157 927.068 492.017 927.126 491.871 927.126C486.791 927.066 481.531 928.646 481.501 934.656C481.455 946.269 481.455 955.282 481.501 961.696C481.501 961.738 481.51 961.779 481.526 961.818C481.542 961.857 481.565 961.892 481.595 961.922C481.625 961.952 481.66 961.975 481.699 961.991C481.738 962.007 481.779 962.016 481.821 962.016C482.881 962.009 488.968 962.006 500.081 962.006Z" fill="#E1BB23"/>
<path d="M567.65 997.368C566.55 1002.75 571.02 1003.8 575.15 1003.86C575.351 1003.86 575.542 1003.95 575.682 1004.09C575.822 1004.23 575.9 1004.42 575.9 1004.62V1005.91C575.9 1006.06 575.839 1006.2 575.73 1006.31C575.622 1006.42 575.474 1006.48 575.32 1006.48L552.33 1006.5C552.013 1006.5 551.707 1006.38 551.472 1006.16C551.236 1005.95 551.087 1005.66 551.054 1005.34C551.021 1005.03 551.105 1004.71 551.29 1004.45C551.476 1004.2 551.75 1004.02 552.06 1003.95C557.69 1002.75 559.42 998.928 562.1 993.528C563.227 991.261 564.237 989.071 565.13 986.958C573.99 965.918 580.964 949.364 586.05 937.298C586.317 936.671 586.34 935.524 586.12 933.858C586.075 933.52 585.924 933.208 585.69 932.968C581.74 928.968 579.94 926.808 574.92 927.188C574.841 927.193 574.761 927.182 574.686 927.156C574.611 927.129 574.542 927.087 574.484 927.033C574.426 926.978 574.38 926.912 574.348 926.839C574.316 926.766 574.3 926.687 574.3 926.608V925.128C574.3 925.049 574.316 924.971 574.345 924.898C574.375 924.825 574.418 924.759 574.473 924.703C574.528 924.648 574.593 924.604 574.665 924.573C574.736 924.543 574.813 924.528 574.89 924.528L594.84 924.508C595.033 924.508 595.22 924.563 595.38 924.668C595.541 924.773 595.666 924.923 595.74 925.098C608.434 954.271 618.497 977.244 625.93 994.018C628.12 998.948 630.41 1003.45 636.08 1003.98C636.253 1004 636.414 1004.08 636.53 1004.2C636.647 1004.33 636.711 1004.5 636.71 1004.67V1005.86C636.71 1006.02 636.649 1006.17 636.538 1006.28C636.428 1006.39 636.278 1006.46 636.12 1006.46L605.53 1006.48C605.408 1006.48 605.291 1006.43 605.205 1006.34C605.119 1006.26 605.07 1006.14 605.07 1006.02V1004.44C605.07 1004.37 605.085 1004.3 605.112 1004.23C605.14 1004.17 605.18 1004.11 605.23 1004.06C605.281 1004.01 605.341 1003.97 605.406 1003.95C605.471 1003.92 605.541 1003.91 605.61 1003.92C608.01 1004.02 613.69 1003.68 613.64 1000.07C613.607 998.514 613.174 996.691 612.34 994.598C609.44 987.291 607.454 982.498 606.38 980.218C606.308 980.062 606.194 979.93 606.052 979.838C605.911 979.746 605.747 979.697 605.58 979.698L574.66 979.728C574.496 979.728 574.335 979.779 574.199 979.873C574.063 979.968 573.959 980.102 573.9 980.258C571.74 986.138 568.83 991.618 567.65 997.368ZM590.34 974.568C594.767 974.554 599.284 974.531 603.89 974.498C603.945 974.497 603.998 974.483 604.046 974.457C604.093 974.431 604.134 974.394 604.163 974.348C604.193 974.303 604.211 974.25 604.216 974.196C604.22 974.142 604.212 974.088 604.19 974.038C599.39 962.718 594.847 951.954 590.56 941.748C590.487 941.574 590.37 941.488 590.21 941.488C590.104 941.488 590.014 941.574 589.94 941.748C585.707 951.981 581.224 962.771 576.49 974.118C576.469 974.168 576.46 974.222 576.465 974.276C576.47 974.33 576.488 974.383 576.517 974.428C576.547 974.474 576.587 974.511 576.635 974.537C576.683 974.563 576.736 974.577 576.79 974.578C581.397 974.584 585.914 974.581 590.34 974.568Z" fill="#E1BB23"/>
<path d="M661.451 924.549C667.465 924.536 673.475 924.536 679.481 924.549C679.61 924.552 679.732 924.603 679.821 924.693C679.911 924.783 679.961 924.903 679.961 925.029V926.639C679.961 926.709 679.947 926.778 679.92 926.841C679.892 926.905 679.852 926.963 679.802 927.011C679.751 927.059 679.691 927.095 679.626 927.119C679.56 927.143 679.491 927.153 679.421 927.149C675.841 926.989 670.671 927.839 668.621 931.199C668.108 932.046 667.838 933.759 667.811 936.339C667.791 938.199 667.785 947.926 667.791 965.519C667.798 983.106 667.811 992.829 667.831 994.689C667.858 997.276 668.128 998.992 668.641 999.839C670.691 1003.19 675.861 1004.04 679.441 1003.88C679.511 1003.88 679.58 1003.89 679.646 1003.91C679.711 1003.93 679.771 1003.97 679.822 1004.02C679.872 1004.07 679.912 1004.12 679.94 1004.19C679.967 1004.25 679.981 1004.32 679.981 1004.39L679.991 1006C679.991 1006.13 679.94 1006.25 679.848 1006.34C679.756 1006.43 679.631 1006.48 679.501 1006.48C673.495 1006.49 667.485 1006.5 661.471 1006.49C655.465 1006.5 649.455 1006.5 643.441 1006.49C643.313 1006.49 643.191 1006.43 643.101 1006.35C643.012 1006.26 642.961 1006.13 642.961 1006.01V1004.4C642.961 1004.33 642.975 1004.26 643.003 1004.2C643.03 1004.13 643.071 1004.08 643.121 1004.03C643.172 1003.98 643.232 1003.94 643.297 1003.92C643.362 1003.9 643.432 1003.89 643.501 1003.89C647.081 1004.05 652.251 1003.2 654.301 999.839C654.815 998.992 655.085 997.279 655.111 994.699C655.131 992.839 655.138 983.112 655.131 965.519C655.131 947.926 655.121 938.199 655.101 936.339C655.068 933.759 654.795 932.046 654.281 931.199C652.231 927.839 647.061 926.989 643.481 927.159C643.412 927.163 643.342 927.153 643.277 927.129C643.212 927.105 643.152 927.069 643.101 927.021C643.051 926.973 643.01 926.915 642.983 926.851C642.955 926.788 642.941 926.719 642.941 926.649V925.039C642.941 924.913 642.992 924.793 643.081 924.703C643.171 924.613 643.293 924.562 643.421 924.559C649.428 924.546 655.438 924.542 661.451 924.549Z" fill="#E1BB23"/>
<path d="M631.02 1052.94C630.88 1053.26 630.834 1053.65 630.88 1054.09C631.074 1055.86 631.177 1058.08 631.19 1060.75C631.193 1060.93 631.137 1061.09 631.031 1061.23C630.926 1061.37 630.777 1061.46 630.61 1061.5C630.443 1061.54 630.267 1061.53 630.11 1061.45C629.954 1061.38 629.827 1061.26 629.75 1061.1C628.36 1058.38 627.4 1056.25 625.69 1054.66C622.49 1051.7 618.627 1050.61 614.1 1051.39C602.2 1053.43 601.06 1069.53 604.33 1078.02C605.637 1081.41 608.124 1084.13 611.79 1086.18C612.108 1086.37 612.453 1086.51 612.81 1086.58C616.07 1087.33 619.7 1087.2 623.7 1086.18C624.255 1086.04 624.746 1085.72 625.098 1085.27C625.449 1084.82 625.64 1084.27 625.64 1083.69V1071.65C625.64 1071.04 625.41 1070.45 624.996 1070C624.581 1069.55 624.012 1069.27 623.4 1069.21L621.01 1069C620.896 1069 620.789 1068.95 620.711 1068.86C620.633 1068.77 620.59 1068.66 620.59 1068.54V1068.23C620.59 1068.16 620.605 1068.08 620.635 1068.01C620.664 1067.94 620.706 1067.88 620.76 1067.82C620.814 1067.77 620.878 1067.73 620.948 1067.7C621.019 1067.67 621.094 1067.65 621.17 1067.65H635.56C635.667 1067.65 635.768 1067.7 635.843 1067.77C635.918 1067.85 635.96 1067.95 635.96 1068.05V1068.36C635.96 1068.45 635.944 1068.53 635.913 1068.6C635.882 1068.68 635.836 1068.75 635.779 1068.8C635.721 1068.86 635.653 1068.91 635.578 1068.94C635.502 1068.97 635.422 1068.98 635.34 1068.98C633.04 1068.98 631.887 1070.12 631.88 1072.42C631.854 1077.96 631.83 1082.16 631.81 1085.01C631.811 1085.19 631.761 1085.36 631.667 1085.51C631.574 1085.65 631.439 1085.77 631.28 1085.84C626.994 1087.84 622.824 1089.07 618.77 1089.51C608.28 1090.65 598.19 1084.82 596.05 1074.08C594.45 1066.04 596.98 1057.41 603.69 1052.5C610.24 1047.71 617.7 1047.99 625.47 1050.38C627.31 1050.95 628.59 1050.46 629.31 1048.92C629.379 1048.79 629.491 1048.67 629.628 1048.6C629.766 1048.53 629.923 1048.51 630.076 1048.53C630.229 1048.56 630.369 1048.63 630.476 1048.75C630.583 1048.86 630.651 1049 630.67 1049.15L631.04 1052.83C631.041 1052.87 631.034 1052.91 631.02 1052.94Z" fill="#E1BB23"/>
<path d="M86.1217 1087.14C95.1417 1088.3 97.0217 1077.87 89.9817 1073.57C84.595 1070.27 81.1951 1068.1 79.7818 1067.04C73.5618 1062.39 73.9418 1052.65 81.4118 1049.47C85.4118 1047.79 89.9717 1048.9 94.1217 1050.49C94.3066 1050.56 94.5059 1050.58 94.7027 1050.56C94.8994 1050.54 95.0878 1050.47 95.2517 1050.36C95.8651 1049.93 96.3151 1049.43 96.6018 1048.85C96.661 1048.72 96.7576 1048.63 96.8774 1048.56C96.9972 1048.5 97.1338 1048.48 97.267 1048.5C97.4003 1048.52 97.5232 1048.58 97.6177 1048.68C97.7122 1048.78 97.7732 1048.9 97.7918 1049.04L99.3518 1060.44C99.3884 1060.67 99.3351 1060.91 99.2027 1061.1C99.0702 1061.3 98.8686 1061.43 98.6385 1061.49C98.4084 1061.54 98.1671 1061.5 97.9635 1061.38C97.7598 1061.26 97.6091 1061.07 97.5418 1060.85C95.7318 1055.21 91.5917 1050.34 85.4317 1051.35C82.2984 1051.86 80.775 1053.85 80.8617 1057.33C80.8735 1057.71 80.969 1058.09 81.1417 1058.44C83.2617 1062.67 90.2717 1065.98 92.4617 1067.32C98.6217 1071.06 102.232 1075.3 99.7818 1082.76C99.1884 1084.55 97.715 1086.23 95.3617 1087.8C90.9417 1090.74 84.2917 1089.59 79.4517 1087.8C79.2204 1087.71 78.9737 1087.67 78.7299 1087.68C78.4862 1087.69 78.2518 1087.75 78.0441 1087.86C77.8364 1087.97 77.6609 1088.11 77.5307 1088.29C77.4004 1088.47 77.3187 1088.68 77.2918 1088.9C77.2251 1089.42 76.875 1089.72 76.2417 1089.79C76.0671 1089.8 75.8917 1089.75 75.7533 1089.64C75.6148 1089.53 75.5245 1089.37 75.5017 1089.2L73.8917 1077.43C73.8635 1077.25 73.9027 1077.06 74.0018 1076.91C74.1009 1076.76 74.2529 1076.65 74.4293 1076.6C74.6056 1076.56 74.7939 1076.57 74.9584 1076.66C75.1229 1076.74 75.2522 1076.88 75.3217 1077.05C77.3417 1082.04 80.6917 1086.45 86.1217 1087.14Z" fill="#E1BB23"/>
<path d="M125.488 1048.45C130.715 1048.39 135.755 1050.51 139.498 1054.35C143.242 1058.19 145.383 1063.44 145.45 1068.93C145.483 1071.65 145.006 1074.35 144.047 1076.88C143.087 1079.4 141.663 1081.71 139.856 1083.65C138.05 1085.6 135.896 1087.15 133.517 1088.22C131.139 1089.29 128.583 1089.86 125.994 1089.89C120.767 1089.96 115.728 1087.83 111.984 1083.99C108.241 1080.15 106.1 1074.91 106.033 1069.41C106 1066.69 106.477 1063.99 107.436 1061.47C108.396 1058.94 109.82 1056.64 111.626 1054.69C113.433 1052.75 115.587 1051.19 117.965 1050.12C120.344 1049.05 122.9 1048.49 125.488 1048.45ZM125.661 1087.29C128.875 1087.31 131.558 1086.13 133.711 1083.77C138.591 1078.42 138.971 1069.77 137.721 1062.59C136.621 1056.34 132.481 1050.99 125.811 1050.96C119.131 1050.93 114.951 1056.25 113.801 1062.5C112.501 1069.67 112.811 1078.32 117.651 1083.71C119.785 1086.09 122.455 1087.28 125.661 1087.29Z" fill="#E1BB23"/>
<path d="M307.546 1048.43C310.131 1048.33 312.711 1048.77 315.14 1049.72C317.568 1050.67 319.797 1052.11 321.699 1053.97C323.601 1055.82 325.139 1058.05 326.224 1060.53C327.31 1063.01 327.923 1065.68 328.028 1068.41C328.132 1071.13 327.727 1073.85 326.834 1076.4C325.941 1078.95 324.579 1081.29 322.825 1083.29C321.071 1085.29 318.96 1086.9 316.611 1088.03C314.263 1089.16 311.724 1089.8 309.139 1089.9C306.554 1090 303.973 1089.56 301.545 1088.61C299.116 1087.66 296.888 1086.21 294.986 1084.36C293.084 1082.5 291.546 1080.27 290.46 1077.8C289.374 1075.32 288.761 1072.64 288.657 1069.92C288.552 1067.2 288.958 1064.48 289.85 1061.93C290.743 1059.37 292.105 1057.03 293.859 1055.04C295.613 1053.04 297.725 1051.43 300.073 1050.3C302.421 1049.16 304.961 1048.53 307.546 1048.43ZM295.622 1069C295.582 1076.61 298.452 1087.18 308.152 1087.23C317.852 1087.28 320.832 1076.74 320.872 1069.13C320.912 1061.51 318.032 1050.94 308.342 1050.89C298.642 1050.84 295.662 1061.38 295.622 1069Z" fill="#E1BB23"/>
<path d="M402.001 1057.86C401.987 1057.82 401.957 1057.78 401.916 1057.76C401.875 1057.73 401.826 1057.73 401.78 1057.74C401.733 1057.75 401.692 1057.77 401.665 1057.81C401.637 1057.85 401.625 1057.9 401.631 1057.94V1084.43C401.632 1084.88 401.748 1085.31 401.969 1085.69C402.191 1086.07 402.509 1086.39 402.891 1086.6C404.025 1087.25 405.321 1087.58 406.781 1087.59C406.935 1087.59 407.083 1087.66 407.192 1087.76C407.3 1087.87 407.361 1088.02 407.361 1088.17V1088.5C407.361 1088.59 407.327 1088.68 407.265 1088.75C407.203 1088.81 407.119 1088.84 407.031 1088.84L393.801 1088.88C393.64 1088.89 393.482 1088.84 393.346 1088.75C393.209 1088.66 393.1 1088.53 393.031 1088.38V1088.35C393.011 1088.28 393.007 1088.19 393.022 1088.11C393.036 1088.03 393.068 1087.96 393.114 1087.89C393.161 1087.82 393.221 1087.77 393.292 1087.73C393.362 1087.69 393.44 1087.66 393.521 1087.65C397.035 1087.33 398.791 1086.23 398.791 1084.33C398.798 1065.46 398.808 1055.54 398.821 1054.58C398.851 1051.48 396.111 1051.01 393.561 1050.74C393.391 1050.73 393.233 1050.65 393.118 1050.52C393.004 1050.4 392.941 1050.23 392.941 1050.06V1049.78C392.941 1049.69 392.98 1049.59 393.05 1049.52C393.119 1049.45 393.213 1049.41 393.311 1049.41H404.511C404.678 1049.42 404.841 1049.46 404.981 1049.55C405.121 1049.64 405.232 1049.77 405.301 1049.92L418.351 1078.46C418.371 1078.51 418.403 1078.55 418.444 1078.58C418.484 1078.6 418.532 1078.62 418.581 1078.62C418.63 1078.62 418.678 1078.6 418.719 1078.58C418.76 1078.55 418.792 1078.51 418.811 1078.46L431.661 1049.83C431.717 1049.71 431.809 1049.6 431.924 1049.52C432.039 1049.45 432.174 1049.41 432.311 1049.4H443.221C443.341 1049.4 443.455 1049.45 443.54 1049.54C443.624 1049.63 443.671 1049.74 443.671 1049.86V1050.15C443.671 1050.31 443.614 1050.46 443.513 1050.57C443.412 1050.69 443.273 1050.77 443.121 1050.78C440.311 1051.13 438.401 1051.44 438.411 1054.57C438.438 1062.13 438.455 1072.05 438.461 1084.33C438.462 1084.81 438.588 1085.27 438.827 1085.68C439.066 1086.09 439.409 1086.43 439.821 1086.66C441.815 1087.8 443.855 1087.81 445.941 1086.69C446.29 1086.51 446.588 1086.25 446.811 1085.93C447.651 1084.77 448.351 1083.56 448.911 1082.28C451.665 1076.04 456.325 1065.06 462.891 1049.34C463.001 1049.08 463.209 1048.86 463.475 1048.74C463.741 1048.62 464.046 1048.6 464.331 1048.68C464.425 1048.71 464.541 1048.87 464.681 1049.16C466.621 1053.13 468.831 1058 471.311 1063.77C472.285 1066.05 475.028 1072.37 479.541 1082.73C479.995 1083.78 480.695 1084.99 481.641 1086.36C482.135 1087.07 483.005 1087.46 484.251 1087.53C484.413 1087.54 484.566 1087.61 484.678 1087.73C484.789 1087.85 484.852 1088 484.851 1088.16V1088.5C484.851 1088.62 484.806 1088.73 484.725 1088.81C484.645 1088.89 484.535 1088.93 484.421 1088.93H469.981C469.822 1088.93 469.67 1088.87 469.557 1088.76C469.445 1088.64 469.381 1088.49 469.381 1088.32V1088.05C469.381 1087.98 469.397 1087.9 469.428 1087.83C469.458 1087.76 469.503 1087.7 469.559 1087.64C469.616 1087.59 469.682 1087.55 469.755 1087.53C469.827 1087.5 469.905 1087.49 469.981 1087.49C471.655 1087.61 472.788 1087.07 473.381 1085.88C473.438 1085.77 473.471 1085.65 473.478 1085.52C473.485 1085.39 473.465 1085.26 473.421 1085.14L470.481 1077.17C470.352 1076.82 470.119 1076.52 469.814 1076.3C469.508 1076.09 469.144 1075.98 468.771 1075.97H455.011C454.879 1075.97 454.751 1076.02 454.643 1076.09C454.536 1076.17 454.455 1076.27 454.411 1076.39L451.541 1084.15C451.33 1084.72 451.343 1085.35 451.577 1085.91C451.811 1086.47 452.248 1086.92 452.801 1087.17C453.201 1087.35 453.935 1087.46 455.001 1087.49C455.128 1087.5 455.247 1087.55 455.335 1087.65C455.423 1087.74 455.472 1087.86 455.471 1087.98V1088.42C455.471 1088.5 455.458 1088.57 455.431 1088.63C455.404 1088.7 455.365 1088.76 455.316 1088.81C455.267 1088.86 455.209 1088.9 455.144 1088.92C455.08 1088.95 455.011 1088.96 454.941 1088.96H427.541C427.404 1088.96 427.271 1088.91 427.166 1088.82C427.062 1088.73 426.993 1088.61 426.971 1088.47L426.921 1088.18C426.909 1088.11 426.913 1088.03 426.934 1087.95C426.955 1087.88 426.992 1087.81 427.043 1087.74C427.095 1087.68 427.158 1087.63 427.231 1087.6C427.303 1087.57 427.381 1087.55 427.461 1087.54C430.001 1087.5 431.721 1086.46 432.621 1084.43C432.674 1084.32 432.701 1084.18 432.701 1084.04L432.321 1056.2C432.321 1056.15 432.304 1056.11 432.272 1056.07C432.24 1056.03 432.196 1056 432.148 1055.99C432.099 1055.98 432.047 1055.99 432.003 1056.01C431.958 1056.03 431.922 1056.07 431.901 1056.11L417.331 1088.58C417.274 1088.71 417.183 1088.81 417.069 1088.89C416.956 1088.96 416.823 1089 416.689 1089C416.554 1089 416.423 1088.96 416.31 1088.89C416.197 1088.82 416.107 1088.72 416.051 1088.59L402.001 1057.86ZM455.951 1073.11C455.934 1073.16 455.927 1073.21 455.933 1073.26C455.94 1073.31 455.958 1073.36 455.986 1073.4C456.015 1073.44 456.053 1073.48 456.097 1073.5C456.142 1073.52 456.191 1073.53 456.241 1073.53H468.441C468.492 1073.53 468.541 1073.52 468.586 1073.5C468.63 1073.48 468.668 1073.44 468.697 1073.4C468.725 1073.36 468.743 1073.31 468.749 1073.26C468.755 1073.21 468.749 1073.16 468.731 1073.11L462.631 1058.15C462.609 1058.1 462.57 1058.05 462.518 1058.01C462.466 1057.97 462.404 1057.95 462.341 1057.95C462.278 1057.95 462.217 1057.97 462.165 1058.01C462.113 1058.05 462.074 1058.1 462.051 1058.15L455.951 1073.11Z" fill="#E1BB23"/>
<path d="M490.541 1077.17C492.571 1082.15 495.921 1086.56 501.351 1087.24C510.371 1088.38 512.23 1077.95 505.19 1073.66C499.797 1070.38 496.394 1068.21 494.98 1067.15C488.75 1062.52 489.121 1052.78 496.581 1049.59C500.571 1047.9 505.131 1049 509.291 1050.58C509.475 1050.65 509.675 1050.68 509.871 1050.65C510.068 1050.63 510.257 1050.56 510.421 1050.45C511.027 1050.02 511.474 1049.52 511.76 1048.94C511.82 1048.82 511.916 1048.72 512.036 1048.66C512.156 1048.59 512.293 1048.57 512.426 1048.59C512.559 1048.62 512.682 1048.68 512.776 1048.78C512.871 1048.87 512.932 1049 512.95 1049.13L514.531 1060.52C514.567 1060.75 514.514 1060.99 514.381 1061.19C514.249 1061.38 514.047 1061.52 513.817 1061.57C513.587 1061.62 513.346 1061.59 513.142 1061.47C512.939 1061.35 512.788 1061.16 512.72 1060.93C510.9 1055.3 506.761 1050.44 500.601 1051.46C497.467 1051.98 495.947 1053.98 496.041 1057.45C496.054 1057.83 496.149 1058.21 496.32 1058.55C498.45 1062.78 505.461 1066.08 507.661 1067.41C513.821 1071.14 517.44 1075.37 515 1082.83C514.414 1084.62 512.944 1086.31 510.59 1087.88C506.18 1090.83 499.53 1089.69 494.69 1087.91C494.459 1087.82 494.213 1087.79 493.969 1087.8C493.725 1087.81 493.491 1087.87 493.283 1087.97C493.075 1088.08 492.9 1088.23 492.77 1088.41C492.639 1088.59 492.558 1088.79 492.531 1089.01C492.464 1089.54 492.114 1089.83 491.48 1089.9C491.307 1089.92 491.133 1089.87 490.995 1089.76C490.857 1089.65 490.766 1089.49 490.74 1089.32L489.11 1077.55C489.082 1077.37 489.121 1077.19 489.221 1077.03C489.32 1076.88 489.472 1076.77 489.648 1076.73C489.824 1076.68 490.013 1076.7 490.177 1076.78C490.342 1076.86 490.471 1077 490.541 1077.17Z" fill="#E1BB23"/>
<path d="M535.021 1087.2C544.041 1088.39 545.961 1077.97 538.941 1073.64C533.561 1070.33 530.168 1068.14 528.761 1067.07C522.561 1062.4 522.981 1052.66 530.461 1049.51C534.461 1047.84 539.021 1048.97 543.171 1050.57C543.355 1050.65 543.554 1050.67 543.751 1050.65C543.947 1050.63 544.136 1050.56 544.301 1050.45C544.914 1050.03 545.364 1049.53 545.651 1048.95C545.711 1048.83 545.808 1048.73 545.929 1048.67C546.05 1048.61 546.187 1048.59 546.32 1048.61C546.454 1048.63 546.577 1048.7 546.67 1048.8C546.764 1048.89 546.824 1049.02 546.841 1049.15L548.361 1060.55C548.414 1060.79 548.369 1061.05 548.236 1061.25C548.103 1061.46 547.892 1061.61 547.651 1061.66C547.41 1061.72 547.157 1061.67 546.949 1061.54C546.741 1061.4 546.594 1061.19 546.541 1060.95C544.751 1055.31 540.641 1050.42 534.471 1051.41C531.338 1051.91 529.808 1053.9 529.881 1057.37C529.891 1057.75 529.983 1058.13 530.151 1058.47C532.261 1062.72 539.251 1066.06 541.441 1067.4C547.581 1071.17 551.181 1075.42 548.701 1082.87C548.101 1084.66 546.621 1086.33 544.261 1087.89C539.831 1090.82 533.191 1089.64 528.351 1087.83C528.12 1087.75 527.874 1087.71 527.631 1087.72C527.388 1087.73 527.154 1087.79 526.947 1087.89C526.739 1088 526.564 1088.15 526.433 1088.32C526.302 1088.5 526.219 1088.71 526.191 1088.92C526.118 1089.45 525.764 1089.75 525.131 1089.81C524.956 1089.83 524.781 1089.78 524.642 1089.67C524.504 1089.56 524.414 1089.4 524.391 1089.22L522.831 1077.44C522.807 1077.26 522.849 1077.08 522.949 1076.93C523.049 1076.79 523.2 1076.68 523.375 1076.63C523.55 1076.59 523.737 1076.61 523.9 1076.69C524.062 1076.77 524.191 1076.91 524.261 1077.07C526.271 1082.06 529.591 1086.49 535.021 1087.2Z" fill="#E1BB23"/>
<path d="M553.461 1088.95C553.288 1088.95 553.122 1088.89 552.992 1088.77C552.862 1088.66 552.777 1088.5 552.753 1088.33C552.729 1088.16 552.767 1087.99 552.86 1087.84C552.953 1087.7 553.095 1087.59 553.261 1087.54C556.901 1086.49 558.141 1082.68 559.861 1078.7C563.374 1070.57 567.061 1061.83 570.921 1052.48C571.574 1050.9 572.147 1049.68 572.641 1048.81C572.695 1048.72 572.772 1048.64 572.864 1048.58C572.957 1048.53 573.062 1048.5 573.17 1048.49C573.277 1048.49 573.384 1048.51 573.481 1048.56C573.577 1048.61 573.659 1048.68 573.721 1048.77C574.261 1049.56 574.821 1050.62 575.401 1051.95C579.874 1062.14 584.594 1072.91 589.561 1084.28C590.387 1086.17 591.707 1087.26 593.521 1087.55C593.688 1087.58 593.841 1087.66 593.95 1087.79C594.06 1087.92 594.121 1088.09 594.121 1088.26V1088.57C594.121 1088.67 594.079 1088.77 594.006 1088.85C593.933 1088.92 593.834 1088.96 593.731 1088.96H579.351C579.186 1088.96 579.028 1088.89 578.912 1088.78C578.796 1088.66 578.731 1088.5 578.731 1088.34V1087.96C578.73 1087.89 578.745 1087.82 578.773 1087.75C578.801 1087.69 578.843 1087.63 578.895 1087.58C578.946 1087.53 579.008 1087.5 579.074 1087.47C579.141 1087.45 579.211 1087.44 579.281 1087.45C585.251 1087.96 581.891 1082.06 580.401 1079.4C580.249 1079.14 580.153 1078.84 580.121 1078.54C580.007 1077.63 579.754 1076.93 579.361 1076.42C579.258 1076.29 579.127 1076.18 578.978 1076.11C578.829 1076.04 578.666 1076 578.501 1076H564.631C564.468 1076 564.308 1076.05 564.171 1076.14C564.034 1076.22 563.927 1076.35 563.861 1076.5C562.514 1079.53 561.591 1082 561.091 1083.91C560.371 1086.62 561.831 1087.61 564.291 1087.48C564.357 1087.48 564.424 1087.49 564.487 1087.51C564.55 1087.53 564.608 1087.57 564.657 1087.61C564.705 1087.66 564.744 1087.71 564.771 1087.77C564.797 1087.84 564.811 1087.9 564.811 1087.97V1088.33C564.811 1088.49 564.745 1088.65 564.629 1088.77C564.513 1088.88 564.355 1088.95 564.191 1088.95H553.461ZM565.271 1073.06C565.249 1073.11 565.241 1073.17 565.247 1073.22C565.252 1073.28 565.272 1073.33 565.304 1073.38C565.335 1073.43 565.378 1073.47 565.428 1073.49C565.478 1073.52 565.534 1073.53 565.591 1073.53H577.791C577.847 1073.53 577.903 1073.52 577.953 1073.49C578.003 1073.47 578.046 1073.43 578.077 1073.38C578.109 1073.33 578.129 1073.28 578.135 1073.22C578.14 1073.17 578.132 1073.11 578.111 1073.06L572.001 1058.32C571.974 1058.26 571.93 1058.21 571.875 1058.17C571.82 1058.14 571.756 1058.12 571.691 1058.12C571.625 1058.12 571.561 1058.14 571.506 1058.17C571.451 1058.21 571.407 1058.26 571.381 1058.32L565.271 1073.06Z" fill="#E1BB23"/>
<path d="M151.692 1050.79C151.554 1050.79 151.422 1050.73 151.324 1050.64C151.227 1050.54 151.172 1050.41 151.172 1050.27V1049.97C151.172 1049.9 151.186 1049.83 151.213 1049.76C151.24 1049.7 151.28 1049.64 151.33 1049.59C151.38 1049.54 151.44 1049.5 151.505 1049.48C151.571 1049.45 151.641 1049.44 151.712 1049.44H167.412C167.484 1049.44 167.554 1049.46 167.618 1049.49C167.682 1049.52 167.738 1049.57 167.781 1049.62C167.825 1049.68 167.854 1049.75 167.868 1049.82C167.882 1049.89 167.88 1049.96 167.862 1050.03L167.772 1050.4C167.734 1050.54 167.652 1050.66 167.538 1050.74C167.425 1050.83 167.285 1050.88 167.142 1050.88C164.149 1050.88 162.649 1052.17 162.642 1054.77C162.629 1067.35 162.632 1076.97 162.652 1083.61C162.652 1085.02 163.459 1085.82 165.072 1086C172.302 1086.83 180.902 1087.16 184.232 1079.18C184.335 1078.94 184.502 1078.73 184.716 1078.58C184.929 1078.43 185.181 1078.34 185.442 1078.32H185.482C185.58 1078.31 185.677 1078.33 185.766 1078.37C185.855 1078.41 185.934 1078.47 185.995 1078.55C186.057 1078.62 186.099 1078.71 186.12 1078.81C186.14 1078.9 186.137 1079 186.112 1079.1L183.662 1088.27C183.602 1088.49 183.47 1088.69 183.286 1088.83C183.101 1088.97 182.875 1089.05 182.642 1089.05H151.812C151.663 1089.05 151.521 1088.99 151.416 1088.88C151.311 1088.78 151.252 1088.64 151.252 1088.49V1088.22C151.253 1088.07 151.306 1087.93 151.401 1087.82C151.497 1087.71 151.628 1087.64 151.772 1087.62C154.182 1087.32 156.572 1086.85 156.582 1083.83C156.589 1082.53 156.622 1073.13 156.682 1055.64C156.695 1052.37 155.032 1050.75 151.692 1050.79Z" fill="#E1BB23"/>
<path d="M213.651 1050.83C213.496 1050.83 213.348 1050.76 213.24 1050.65C213.132 1050.54 213.071 1050.39 213.071 1050.23V1049.88C213.071 1049.82 213.083 1049.76 213.106 1049.71C213.129 1049.65 213.163 1049.6 213.206 1049.56C213.249 1049.52 213.299 1049.48 213.355 1049.46C213.411 1049.44 213.471 1049.42 213.531 1049.42C220.985 1049.42 225.345 1049.43 226.611 1049.45C226.805 1049.46 226.941 1049.57 227.021 1049.77C227.058 1049.86 227.075 1049.96 227.072 1050.05C227.069 1050.14 227.046 1050.24 227.004 1050.32C226.962 1050.4 226.902 1050.48 226.829 1050.53C226.756 1050.59 226.671 1050.63 226.581 1050.64C224.011 1051.15 221.431 1051.41 221.471 1054.33C221.471 1054.69 221.461 1061.87 221.441 1075.86C221.431 1087.43 212.261 1090.64 202.461 1089.36C197.855 1088.76 194.661 1086.7 192.881 1083.18C191.821 1081.1 191.301 1077.21 191.321 1071.52C191.355 1060.88 191.371 1055.33 191.371 1054.85C191.351 1051.5 189.461 1051.14 186.591 1050.73C186.437 1050.71 186.295 1050.64 186.192 1050.52C186.089 1050.4 186.032 1050.25 186.031 1050.09V1049.8C186.031 1049.71 186.07 1049.61 186.14 1049.54C186.209 1049.47 186.303 1049.43 186.401 1049.43H202.351C202.449 1049.43 202.543 1049.47 202.613 1049.54C202.682 1049.61 202.721 1049.71 202.721 1049.8V1050.14C202.72 1050.31 202.66 1050.46 202.552 1050.59C202.444 1050.71 202.294 1050.79 202.131 1050.81L199.761 1051.14C199.137 1051.23 198.565 1051.54 198.152 1052.01C197.738 1052.48 197.511 1053.09 197.511 1053.71C197.491 1064.38 197.488 1071.5 197.501 1075.08C197.531 1083.41 200.941 1087.61 209.511 1086.86C217.551 1086.15 218.691 1080.32 218.781 1072.85C218.848 1067.14 218.841 1060.89 218.761 1054.1C218.756 1053.54 218.584 1052.99 218.267 1052.53C217.951 1052.06 217.503 1051.7 216.981 1051.48C215.995 1051.08 214.885 1050.87 213.651 1050.83Z" fill="#E1BB23"/>
<path d="M245.873 1049.41C246.36 1049.41 251.867 1049.42 262.393 1049.43C262.469 1049.43 262.541 1049.46 262.595 1049.52C262.649 1049.57 262.681 1049.64 262.683 1049.71L263.033 1059.16C263.037 1059.26 263.019 1059.36 262.981 1059.45C262.944 1059.54 262.887 1059.63 262.815 1059.69C262.743 1059.76 262.658 1059.81 262.565 1059.85C262.471 1059.88 262.372 1059.89 262.273 1059.88L261.943 1059.85C261.816 1059.84 261.697 1059.79 261.606 1059.7C261.514 1059.61 261.457 1059.5 261.443 1059.37C261.163 1056.87 260.223 1054.77 258.623 1053.07C258.314 1052.75 257.902 1052.55 257.463 1052.51L249.893 1051.85C249.776 1051.84 249.657 1051.86 249.545 1051.9C249.433 1051.93 249.33 1052 249.244 1052.08C249.157 1052.16 249.088 1052.26 249.041 1052.37C248.995 1052.48 248.972 1052.59 248.973 1052.71C249.087 1056.54 249.087 1066.68 248.973 1083.13C248.953 1086.48 250.583 1087.33 253.703 1087.56C253.827 1087.57 253.944 1087.63 254.034 1087.71C254.123 1087.8 254.18 1087.92 254.193 1088.04C254.227 1088.34 254.187 1088.57 254.073 1088.73C254.027 1088.8 253.966 1088.86 253.894 1088.9C253.823 1088.94 253.743 1088.95 253.663 1088.95C250.623 1088.96 248.017 1088.96 245.843 1088.96C243.677 1088.96 241.073 1088.95 238.033 1088.94C237.954 1088.94 237.874 1088.93 237.803 1088.89C237.731 1088.85 237.67 1088.79 237.623 1088.72C237.51 1088.56 237.47 1088.33 237.503 1088.03C237.517 1087.91 237.574 1087.79 237.663 1087.7C237.753 1087.62 237.87 1087.56 237.993 1087.55C241.113 1087.32 242.743 1086.48 242.733 1083.13C242.64 1066.68 242.65 1056.54 242.763 1052.71C242.765 1052.59 242.742 1052.48 242.696 1052.37C242.649 1052.26 242.58 1052.16 242.493 1052.08C242.406 1052 242.304 1051.93 242.192 1051.9C242.08 1051.86 241.961 1051.84 241.843 1051.85L234.273 1052.5C233.836 1052.54 233.424 1052.74 233.113 1053.05C231.513 1054.75 230.57 1056.85 230.283 1059.35C230.27 1059.48 230.212 1059.59 230.121 1059.68C230.03 1059.77 229.911 1059.82 229.783 1059.83L229.453 1059.86C229.356 1059.87 229.258 1059.86 229.165 1059.82C229.073 1059.79 228.989 1059.74 228.918 1059.67C228.848 1059.6 228.792 1059.52 228.755 1059.43C228.718 1059.34 228.7 1059.24 228.703 1059.14L229.063 1049.69C229.066 1049.62 229.098 1049.55 229.152 1049.5C229.206 1049.44 229.278 1049.41 229.353 1049.41C239.88 1049.41 245.387 1049.41 245.873 1049.41Z" fill="#E1BB23"/>
<path d="M275.43 1049.42C278.264 1049.43 281.057 1049.42 283.81 1049.4C283.963 1049.4 284.109 1049.46 284.217 1049.56C284.326 1049.67 284.388 1049.82 284.391 1049.97V1050.33C284.391 1050.45 284.341 1050.57 284.253 1050.66C284.166 1050.75 284.046 1050.81 283.92 1050.81C282.554 1050.84 281.374 1051.07 280.38 1051.49C279.822 1051.72 279.343 1052.12 279.004 1052.62C278.665 1053.12 278.479 1053.71 278.471 1054.32C278.457 1055.23 278.451 1060.18 278.451 1069.19C278.451 1078.19 278.46 1083.14 278.48 1084.05C278.489 1084.65 278.675 1085.25 279.014 1085.75C279.353 1086.25 279.832 1086.64 280.391 1086.88C281.384 1087.3 282.564 1087.53 283.93 1087.56C284.056 1087.56 284.176 1087.61 284.263 1087.7C284.351 1087.79 284.401 1087.91 284.401 1088.04V1088.4C284.401 1088.48 284.385 1088.55 284.355 1088.62C284.326 1088.69 284.282 1088.76 284.227 1088.81C284.172 1088.87 284.107 1088.91 284.036 1088.94C283.964 1088.97 283.887 1088.98 283.81 1088.98C281.057 1088.95 278.267 1088.95 275.44 1088.96C272.607 1088.95 269.814 1088.95 267.06 1088.98C266.907 1088.98 266.759 1088.92 266.65 1088.81C266.542 1088.7 266.48 1088.55 266.48 1088.4V1088.04C266.48 1087.91 266.53 1087.79 266.618 1087.7C266.705 1087.61 266.825 1087.56 266.951 1087.56C268.317 1087.53 269.497 1087.3 270.49 1086.88C271.049 1086.64 271.528 1086.25 271.867 1085.75C272.206 1085.25 272.392 1084.65 272.401 1084.05C272.414 1083.14 272.42 1078.19 272.42 1069.19C272.42 1060.18 272.414 1055.23 272.401 1054.32C272.392 1053.71 272.206 1053.12 271.867 1052.62C271.528 1052.12 271.049 1051.72 270.49 1051.49C269.497 1051.07 268.317 1050.85 266.951 1050.82C266.825 1050.82 266.705 1050.76 266.618 1050.67C266.53 1050.58 266.48 1050.46 266.48 1050.34V1049.98C266.48 1049.82 266.542 1049.68 266.65 1049.57C266.759 1049.46 266.907 1049.4 267.06 1049.4C269.814 1049.42 272.604 1049.43 275.43 1049.42Z" fill="#E1BB23"/>
<path d="M347.093 1088.96H334.073C333.938 1088.96 333.808 1088.9 333.712 1088.81C333.617 1088.71 333.563 1088.58 333.563 1088.45V1088.14C333.562 1088 333.614 1087.87 333.706 1087.76C333.799 1087.66 333.927 1087.6 334.063 1087.59C337.576 1087.35 339.333 1086.09 339.333 1083.82C339.333 1067.74 339.336 1058.19 339.343 1055.18C339.343 1054.78 339.254 1054.4 339.083 1054.05C338.156 1052.17 336.476 1051.06 334.043 1050.72C333.904 1050.7 333.776 1050.63 333.684 1050.53C333.592 1050.42 333.542 1050.29 333.543 1050.15V1049.85C333.543 1049.73 333.59 1049.61 333.675 1049.53C333.759 1049.45 333.874 1049.4 333.993 1049.4H342.933C343.17 1049.4 343.405 1049.45 343.619 1049.55C343.834 1049.66 344.023 1049.8 344.173 1049.99L366.073 1077.14C366.102 1077.17 366.141 1077.2 366.184 1077.21C366.228 1077.22 366.275 1077.22 366.317 1077.21C366.36 1077.19 366.397 1077.16 366.423 1077.13C366.449 1077.09 366.463 1077.04 366.463 1077V1054.11C366.463 1053.51 366.267 1052.93 365.903 1052.46C365.54 1051.98 365.03 1051.64 364.453 1051.49L360.923 1050.55C360.863 1050.53 360.81 1050.5 360.772 1050.45C360.734 1050.4 360.713 1050.34 360.713 1050.28V1049.99C360.713 1049.84 360.771 1049.7 360.874 1049.6C360.977 1049.5 361.117 1049.44 361.263 1049.44H374.493C374.568 1049.44 374.642 1049.45 374.711 1049.48C374.78 1049.51 374.843 1049.55 374.896 1049.61C374.949 1049.66 374.991 1049.73 375.02 1049.8C375.048 1049.87 375.063 1049.94 375.063 1050.02V1050.31C375.062 1050.39 375.035 1050.46 374.986 1050.52C374.937 1050.58 374.868 1050.62 374.793 1050.64C371.863 1051.1 369.253 1051.21 369.263 1054.57C369.316 1064.76 369.32 1076.39 369.273 1089.48C369.274 1089.6 369.236 1089.72 369.163 1089.83C369.091 1089.93 368.989 1090 368.87 1090.04C368.752 1090.08 368.623 1090.09 368.502 1090.05C368.38 1090.02 368.272 1089.95 368.193 1089.85L342.573 1058.11C342.524 1058.05 342.46 1058.01 342.388 1057.99C342.316 1057.97 342.24 1057.98 342.169 1058C342.099 1058.03 342.038 1058.07 341.994 1058.13C341.95 1058.19 341.925 1058.26 341.923 1058.34V1084.36C341.923 1084.56 341.967 1084.76 342.053 1084.95C342.66 1086.25 343.583 1087.02 344.823 1087.27C345.77 1087.46 346.576 1087.56 347.243 1087.59C347.317 1087.59 347.39 1087.61 347.456 1087.64C347.522 1087.68 347.58 1087.73 347.624 1087.79C347.668 1087.85 347.699 1087.92 347.712 1087.99C347.726 1088.06 347.723 1088.14 347.703 1088.21L347.603 1088.57C347.571 1088.68 347.503 1088.78 347.411 1088.85C347.319 1088.92 347.208 1088.96 347.093 1088.96Z" fill="#E1BB23"/>
<path d="M650.701 1066.97C651.581 1066.85 654.288 1066.88 658.821 1067.06C663.048 1067.22 665.324 1065.44 665.651 1061.7C665.658 1061.61 665.685 1061.52 665.73 1061.44C665.775 1061.36 665.837 1061.29 665.912 1061.24C665.986 1061.19 666.071 1061.15 666.161 1061.13C666.251 1061.12 666.343 1061.12 666.431 1061.15L666.711 1061.22C666.811 1061.24 666.9 1061.3 666.963 1061.39C667.026 1061.47 667.06 1061.57 667.061 1061.68V1074.64C667.06 1074.8 667.002 1074.95 666.898 1075.07C666.793 1075.2 666.648 1075.27 666.491 1075.3L666.161 1075.34C666.101 1075.34 666.039 1075.34 665.981 1075.33C665.922 1075.31 665.867 1075.28 665.821 1075.24C665.774 1075.21 665.735 1075.16 665.708 1075.11C665.68 1075.05 665.664 1075 665.661 1074.94C665.461 1071.8 663.631 1070.04 660.171 1069.68C658.058 1069.45 654.901 1069.41 650.701 1069.56C650.535 1069.56 650.377 1069.63 650.261 1069.75C650.145 1069.87 650.081 1070.03 650.081 1070.2V1085.33C650.081 1085.45 650.105 1085.57 650.153 1085.68C650.2 1085.8 650.269 1085.9 650.357 1085.99C650.444 1086.07 650.548 1086.14 650.662 1086.19C650.776 1086.23 650.898 1086.26 651.021 1086.26C656.687 1086.24 660.151 1086.24 661.411 1086.26C665.131 1086.33 667.111 1085.01 669.681 1082.4C670.401 1081.67 670.931 1079.96 671.751 1078.9C671.873 1078.74 672.048 1078.62 672.245 1078.58C672.442 1078.53 672.648 1078.56 672.829 1078.65C673.01 1078.73 673.154 1078.89 673.237 1079.07C673.319 1079.25 673.335 1079.46 673.281 1079.66L670.981 1088.28C670.935 1088.44 670.837 1088.58 670.702 1088.69C670.566 1088.79 670.401 1088.85 670.231 1088.85H639.001C638.899 1088.85 638.8 1088.81 638.723 1088.74C638.646 1088.67 638.595 1088.58 638.581 1088.48L638.521 1088.06C638.512 1088.01 638.514 1087.95 638.526 1087.9C638.539 1087.85 638.561 1087.81 638.592 1087.77C638.622 1087.72 638.661 1087.69 638.706 1087.66C638.75 1087.64 638.8 1087.62 638.851 1087.62L641.171 1087.3C641.892 1087.19 642.553 1086.83 643.03 1086.28C643.508 1085.74 643.771 1085.03 643.771 1084.31V1054.16C643.771 1053.52 643.562 1052.91 643.177 1052.4C642.792 1051.9 642.252 1051.54 641.641 1051.38L638.821 1050.62C638.759 1050.6 638.702 1050.57 638.659 1050.52C638.617 1050.47 638.589 1050.41 638.581 1050.35L638.541 1050.09C638.529 1050 638.536 1049.91 638.561 1049.83C638.586 1049.75 638.629 1049.67 638.685 1049.61C638.742 1049.54 638.813 1049.49 638.891 1049.46C638.97 1049.42 639.055 1049.41 639.141 1049.41H669.681C669.758 1049.41 669.835 1049.42 669.907 1049.45C669.978 1049.48 670.043 1049.53 670.098 1049.58C670.153 1049.64 670.196 1049.7 670.226 1049.78C670.256 1049.85 670.271 1049.93 670.271 1050.01V1057.41C670.269 1057.6 670.195 1057.79 670.064 1057.94C669.932 1058.08 669.752 1058.18 669.558 1058.2C669.363 1058.22 669.168 1058.17 669.01 1058.06C668.852 1057.95 668.742 1057.78 668.701 1057.59C668.127 1055.07 666.731 1053.33 664.511 1052.38C664.154 1052.22 663.774 1052.14 663.391 1052.13C659.504 1052.05 655.954 1052.03 652.741 1052.05C651.014 1052.05 650.144 1052.81 650.131 1054.33C650.097 1058.35 650.097 1062.4 650.131 1066.46C650.13 1066.53 650.145 1066.6 650.175 1066.67C650.204 1066.73 650.247 1066.79 650.301 1066.84C650.355 1066.89 650.418 1066.92 650.487 1066.95C650.556 1066.97 650.629 1066.97 650.701 1066.97Z" fill="#E1BB23"/>
<path d="M372.071 1237.83C378.571 1243.19 383.911 1247.64 388.091 1251.2C394.117 1256.35 395.977 1262.77 393.671 1270.47C392.811 1273.36 390.401 1276.58 389.871 1280.51C389.851 1280.67 389.794 1280.83 389.704 1280.96C389.614 1281.09 389.494 1281.2 389.354 1281.28C389.213 1281.36 389.057 1281.4 388.896 1281.41C388.736 1281.41 388.576 1281.38 388.431 1281.31L383.071 1278.91C382.866 1278.82 382.682 1278.69 382.528 1278.53C382.375 1278.37 382.256 1278.18 382.177 1277.97C382.099 1277.76 382.064 1277.53 382.073 1277.31C382.082 1277.09 382.135 1276.87 382.231 1276.66C385.071 1270.67 387.861 1265.36 383.031 1260.06C382.017 1258.94 378.394 1255.42 372.161 1249.49C372.038 1249.38 371.874 1249.31 371.704 1249.31C371.533 1249.32 371.371 1249.38 371.251 1249.5C368.877 1251.94 366.117 1254.64 362.971 1257.6C358.441 1261.87 356.591 1264.98 358.981 1271.11C359.981 1273.67 360.781 1275.51 361.381 1276.61C361.49 1276.82 361.551 1277.05 361.56 1277.28C361.569 1277.51 361.524 1277.74 361.431 1277.95C361.337 1278.16 361.197 1278.35 361.02 1278.5C360.843 1278.64 360.635 1278.75 360.411 1278.8C358.971 1279.16 357.644 1279.78 356.431 1280.66C356.25 1280.79 356.042 1280.88 355.823 1280.91C355.604 1280.95 355.38 1280.93 355.17 1280.86C354.959 1280.79 354.767 1280.68 354.609 1280.52C354.451 1280.36 354.332 1280.17 354.261 1279.96C353.894 1278.89 353.207 1277.44 352.201 1275.62C347.761 1267.6 347.261 1258.63 354.591 1252.1C359.997 1247.28 365.631 1242.52 371.491 1237.82C371.574 1237.76 371.677 1237.72 371.782 1237.73C371.888 1237.73 371.99 1237.77 372.071 1237.83Z" fill="#E1BB23"/>
<path d="M371.751 1276.53C369.704 1276.53 367.644 1276.69 365.571 1277.01C365.4 1277.03 365.226 1277 365.08 1276.91C364.934 1276.82 364.825 1276.68 364.771 1276.52C363.001 1271.47 358.621 1266.28 363.781 1261.37C367.607 1257.73 370.157 1255.3 371.431 1254.1C371.48 1254.05 371.532 1254.01 371.584 1253.98C371.636 1253.95 371.686 1253.94 371.731 1253.94C371.757 1253.94 371.784 1253.94 371.811 1253.94C371.824 1253.94 371.844 1253.94 371.871 1253.94C371.916 1253.94 371.968 1253.95 372.022 1253.98C372.075 1254.01 372.13 1254.05 372.181 1254.1C373.447 1255.31 375.984 1257.74 379.791 1261.4C384.941 1266.34 380.531 1271.51 378.741 1276.55C378.686 1276.71 378.575 1276.85 378.427 1276.94C378.279 1277.03 378.103 1277.06 377.931 1277.04C375.864 1276.7 373.804 1276.53 371.751 1276.53Z" fill="#E1BB23"/>
<path d="M406.493 1274.33C406.533 1274.37 406.653 1274.52 406.663 1274.6C406.963 1277.78 407.213 1280.95 407.413 1284.09C407.486 1285.14 406.763 1285.97 405.243 1286.58C403.183 1287.4 401.156 1288.09 399.163 1288.66C398.99 1288.71 398.807 1288.71 398.632 1288.67C398.457 1288.63 398.295 1288.54 398.163 1288.42C397.176 1287.49 396.196 1286.54 395.223 1285.58C394.256 1284.6 393.313 1283.62 392.393 1282.64C392.271 1282.51 392.184 1282.34 392.142 1282.17C392.1 1281.99 392.104 1281.81 392.153 1281.64C392.72 1279.64 393.416 1277.62 394.243 1275.56C394.85 1274.04 395.68 1273.31 396.733 1273.39C399.873 1273.59 403.036 1273.85 406.223 1274.16C406.303 1274.17 406.453 1274.29 406.493 1274.33Z" fill="#E1BB23"/>
<path d="M348.682 1285.83C347.022 1287.49 346.062 1288.44 345.802 1288.68C345.669 1288.84 345.493 1288.95 345.297 1289C345.1 1289.05 344.893 1289.04 344.702 1288.97L338.452 1286.71C338.054 1286.57 337.711 1286.31 337.472 1285.96C337.233 1285.61 337.111 1285.2 337.122 1284.78C337.162 1282.78 337.448 1279.72 337.982 1275.6C337.982 1275.57 338.052 1275.48 338.192 1275.34C338.332 1275.2 338.418 1275.13 338.452 1275.13C342.565 1274.6 345.625 1274.31 347.632 1274.27C348.05 1274.26 348.462 1274.39 348.809 1274.62C349.155 1274.86 349.419 1275.21 349.562 1275.6L351.822 1281.85C351.892 1282.05 351.901 1282.26 351.85 1282.45C351.798 1282.65 351.687 1282.83 351.532 1282.96C351.292 1283.22 350.342 1284.17 348.682 1285.83Z" fill="#E1BB23"/>
<path d="M368.367 1281.04C375.624 1280.18 382.929 1282.31 388.677 1286.95C394.424 1291.6 398.143 1298.37 399.014 1305.79C399.446 1309.46 399.165 1313.18 398.189 1316.74C397.212 1320.29 395.559 1323.61 393.323 1326.51C391.087 1329.4 388.313 1331.82 385.159 1333.61C382.004 1335.41 378.531 1336.55 374.938 1336.97C367.681 1337.82 360.375 1335.69 354.628 1331.05C348.88 1326.41 345.162 1319.64 344.29 1312.22C343.859 1308.54 344.139 1304.82 345.116 1301.27C346.092 1297.72 347.746 1294.4 349.981 1291.5C352.217 1288.6 354.991 1286.19 358.146 1284.39C361.301 1282.6 364.774 1281.46 368.367 1281.04ZM370.952 1287.24C365.272 1287.44 359.905 1289.92 356.031 1294.14C352.157 1298.36 350.094 1303.97 350.295 1309.74C350.497 1315.51 352.946 1320.97 357.105 1324.91C361.264 1328.85 366.792 1330.95 372.472 1330.75C378.152 1330.55 383.52 1328.07 387.393 1323.85C391.267 1319.63 393.331 1314.02 393.129 1308.25C392.928 1302.48 390.478 1297.02 386.319 1293.08C382.16 1289.14 376.633 1287.04 370.952 1287.24Z" fill="#E1BB23"/>
<path d="M302.25 1308.94C302.25 1308.9 302.26 1308.88 302.28 1308.86C307.16 1302.72 311.59 1297.24 315.57 1292.44C319.637 1287.52 325.227 1285.64 332.34 1286.82C334.467 1287.16 338.353 1288.84 344 1291.88C344.067 1291.91 344.118 1291.97 344.142 1292.04C344.166 1292.12 344.162 1292.2 344.13 1292.27L341.29 1298.56C341.272 1298.6 341.245 1298.63 341.213 1298.66C341.18 1298.69 341.142 1298.72 341.1 1298.73C341.058 1298.75 341.014 1298.76 340.969 1298.76C340.925 1298.75 340.881 1298.74 340.84 1298.73C338.94 1297.87 336.747 1296.99 334.26 1296.11C329.26 1294.34 326.1 1295.75 322.33 1299.68C320.577 1301.5 317.777 1304.47 313.93 1308.58C313.79 1308.72 313.72 1308.82 313.72 1308.86C313.72 1308.98 313.79 1309.12 313.93 1309.28C317.797 1313.36 320.61 1316.32 322.37 1318.14C326.15 1322.05 329.32 1323.45 334.31 1321.65C336.797 1320.76 338.987 1319.88 340.88 1319.01C340.921 1318.99 340.965 1318.98 341.009 1318.98C341.054 1318.97 341.098 1318.98 341.14 1319C341.182 1319.01 341.22 1319.04 341.253 1319.07C341.285 1319.1 341.312 1319.13 341.33 1319.18L344.19 1325.46C344.222 1325.52 344.226 1325.6 344.202 1325.68C344.178 1325.75 344.127 1325.81 344.06 1325.85C338.433 1328.9 334.557 1330.6 332.43 1330.96C325.323 1332.16 319.727 1330.31 315.64 1325.41C311.64 1320.61 307.187 1315.16 302.28 1309.04C302.26 1309.02 302.25 1308.98 302.25 1308.94Z" fill="#E1BB23"/>
<path d="M441.013 1309.71C441.013 1309.75 441.003 1309.79 440.983 1309.81C436.05 1315.87 431.57 1321.27 427.543 1326.01C423.43 1330.87 417.837 1332.68 410.763 1331.42C408.65 1331.06 404.8 1329.33 399.213 1326.23C399.146 1326.2 399.094 1326.14 399.07 1326.07C399.046 1326 399.05 1325.92 399.083 1325.84L401.983 1319.61C402.002 1319.57 402.028 1319.54 402.06 1319.51C402.093 1319.48 402.131 1319.45 402.173 1319.44C402.215 1319.42 402.259 1319.41 402.304 1319.41C402.349 1319.42 402.393 1319.43 402.433 1319.44C404.313 1320.33 406.49 1321.23 408.963 1322.13C413.923 1323.96 417.093 1322.59 420.893 1318.72C422.66 1316.92 425.487 1314 429.373 1309.95C429.513 1309.81 429.583 1309.67 429.583 1309.54C429.583 1309.5 429.513 1309.41 429.373 1309.25C425.573 1305.13 422.807 1302.16 421.073 1300.32C417.353 1296.38 414.213 1294.94 409.213 1296.67C406.727 1297.53 404.533 1298.39 402.633 1299.23C402.552 1299.27 402.461 1299.27 402.379 1299.24C402.297 1299.21 402.23 1299.14 402.193 1299.06L399.413 1292.77C399.381 1292.7 399.376 1292.62 399.4 1292.55C399.424 1292.48 399.476 1292.42 399.543 1292.38C405.197 1289.4 409.083 1287.75 411.203 1287.42C418.297 1286.31 423.853 1288.22 427.873 1293.16C431.8 1297.99 436.17 1303.48 440.983 1309.62C441.003 1309.65 441.013 1309.68 441.013 1309.71Z" fill="#E1BB23"/>
<path d="M388.486 1308.05C387.955 1298.54 379.987 1291.25 370.69 1291.77C361.393 1292.29 354.287 1300.42 354.819 1309.93C355.35 1319.43 363.318 1326.72 372.615 1326.2C381.912 1325.68 389.018 1317.55 388.486 1308.05Z" fill="#E1BB23"/>
<path d="M339.794 1308.86C339.8 1310.9 339.974 1312.94 340.314 1314.98C340.338 1315.14 340.313 1315.3 340.241 1315.45C340.169 1315.59 340.055 1315.71 339.914 1315.79C336.734 1317.44 330.024 1320.7 326.984 1317.89C324.597 1315.68 321.777 1312.83 318.524 1309.34C318.464 1309.28 318.434 1309.16 318.434 1308.97C318.434 1308.78 318.46 1308.66 318.514 1308.59C321.74 1305.07 324.534 1302.19 326.894 1299.96C329.914 1297.13 336.654 1300.31 339.844 1301.93C339.989 1302 340.106 1302.12 340.18 1302.27C340.253 1302.42 340.279 1302.59 340.254 1302.75C339.934 1304.79 339.78 1306.83 339.794 1308.86Z" fill="#E1BB23"/>
<path d="M403.692 1309.38C403.712 1307.36 403.566 1305.34 403.252 1303.3C403.23 1303.14 403.257 1302.98 403.33 1302.84C403.404 1302.69 403.52 1302.58 403.662 1302.5C406.842 1300.89 413.552 1297.74 416.532 1300.57C418.879 1302.79 421.649 1305.66 424.842 1309.17C424.902 1309.24 424.932 1309.37 424.932 1309.55C424.926 1309.74 424.896 1309.86 424.842 1309.92C421.596 1313.38 418.782 1316.21 416.402 1318.39C413.372 1321.17 406.712 1317.92 403.562 1316.27C403.42 1316.2 403.305 1316.08 403.233 1315.94C403.161 1315.79 403.136 1315.63 403.162 1315.46C403.502 1313.44 403.679 1311.41 403.692 1309.38Z" fill="#E1BB23"/>
<path d="M336.772 1343.7C336.712 1343.64 336.676 1343.6 336.662 1343.59C336.642 1343.57 336.625 1343.56 336.613 1343.54C336.6 1343.53 336.593 1343.51 336.592 1343.5L335.822 1334.27C335.772 1333.68 335.915 1333.09 336.231 1332.59C336.547 1332.09 337.018 1331.71 337.572 1331.5L343.992 1329.12C344.171 1329.05 344.365 1329.04 344.549 1329.09C344.733 1329.14 344.898 1329.24 345.022 1329.38C346.742 1331.31 347.699 1332.37 347.892 1332.56C348.092 1332.76 349.152 1333.73 351.072 1335.46C351.21 1335.58 351.307 1335.75 351.352 1335.93C351.396 1336.11 351.386 1336.3 351.322 1336.48L348.912 1342.89C348.702 1343.44 348.317 1343.91 347.817 1344.22C347.317 1344.54 346.729 1344.68 346.142 1344.63L336.902 1343.82C336.89 1343.82 336.875 1343.81 336.859 1343.8C336.843 1343.79 336.827 1343.77 336.812 1343.75C336.806 1343.74 336.792 1343.72 336.772 1343.7Z" fill="#E1BB23"/>
<path d="M404.953 1342.8C404.846 1342.9 404.759 1342.96 404.693 1342.97C400.879 1343.43 397.913 1343.69 395.793 1343.73C395.301 1343.74 394.818 1343.59 394.41 1343.32C394.002 1343.04 393.689 1342.65 393.513 1342.19L391.273 1336.33C391.203 1336.15 391.188 1335.96 391.231 1335.78C391.274 1335.6 391.373 1335.43 391.513 1335.31C392.179 1334.71 393.173 1333.74 394.493 1332.42C395.813 1331.09 396.769 1330.09 397.363 1329.43C397.485 1329.29 397.648 1329.19 397.829 1329.14C398.009 1329.1 398.199 1329.11 398.373 1329.18L404.253 1331.39C404.713 1331.56 405.108 1331.87 405.385 1332.28C405.662 1332.68 405.808 1333.17 405.803 1333.66C405.776 1335.78 405.539 1338.75 405.093 1342.57C405.086 1342.63 405.039 1342.71 404.953 1342.8Z" fill="#E1BB23"/>
<path d="M371.29 1368.31C371.428 1368.43 371.608 1368.5 371.795 1368.5C371.982 1368.5 372.162 1368.43 372.3 1368.31C373.587 1367.12 376.624 1364.25 381.41 1359.7C385.13 1356.18 386.59 1353.12 384.93 1348.37C384.103 1346 383 1343.36 381.62 1340.44C381.598 1340.39 381.586 1340.34 381.584 1340.29C381.582 1340.24 381.59 1340.19 381.608 1340.14C381.625 1340.1 381.652 1340.05 381.687 1340.02C381.722 1339.98 381.764 1339.95 381.81 1339.93L388.18 1337C388.256 1336.96 388.342 1336.96 388.422 1336.99C388.502 1337.02 388.569 1337.07 388.61 1337.15C391.79 1343.04 393.563 1346.87 393.93 1348.64C395.463 1356.03 393.707 1361.91 388.66 1366.26C384.414 1369.93 378.843 1374.56 371.95 1380.13C371.891 1380.18 371.817 1380.2 371.74 1380.2C371.663 1380.2 371.589 1380.18 371.53 1380.13C366.557 1376.16 361.02 1371.52 354.92 1366.2C349.42 1361.4 347.663 1355.38 349.65 1348.13C350.58 1344.74 353.11 1341.39 353.99 1337.51C354.031 1337.32 354.12 1337.15 354.246 1337C354.373 1336.85 354.535 1336.74 354.717 1336.67C354.898 1336.61 355.094 1336.59 355.287 1336.61C355.48 1336.64 355.663 1336.71 355.82 1336.83C357.267 1337.9 358.83 1338.66 360.51 1339.12C360.716 1339.18 360.908 1339.27 361.073 1339.41C361.237 1339.55 361.37 1339.72 361.463 1339.91C361.556 1340.1 361.607 1340.31 361.611 1340.52C361.616 1340.73 361.575 1340.94 361.49 1341.14C359.08 1346.75 355.12 1352.57 360.83 1358.29C364.79 1362.26 368.277 1365.6 371.29 1368.31Z" fill="#E1BB23"/>
<path d="M371.931 1341.57C373.978 1341.57 376.034 1341.41 378.101 1341.09C378.273 1341.07 378.449 1341.1 378.597 1341.19C378.746 1341.28 378.857 1341.42 378.911 1341.58C380.671 1346.62 385.051 1351.81 379.891 1356.71C376.071 1360.35 373.524 1362.78 372.251 1363.98C372.202 1364.03 372.149 1364.07 372.098 1364.1C372.046 1364.13 371.996 1364.14 371.951 1364.14C371.924 1364.14 371.901 1364.14 371.881 1364.14C371.861 1364.14 371.838 1364.14 371.811 1364.14C371.766 1364.14 371.716 1364.13 371.664 1364.1C371.613 1364.07 371.56 1364.03 371.511 1363.98C370.244 1362.77 367.708 1360.34 363.901 1356.68C358.761 1351.75 363.161 1346.59 364.941 1341.55C364.995 1341.39 365.106 1341.25 365.255 1341.16C365.403 1341.07 365.579 1341.04 365.751 1341.06C367.818 1341.4 369.878 1341.57 371.931 1341.57Z" fill="#E1BB23"/>
</svg>
