<svg xmlns="http://www.w3.org/2000/svg" version="1.1" xmlns:xlink="http://www.w3.org/1999/xlink" width="512" height="512" x="0" y="0" viewBox="0 0 500 500" style="enable-background:new 0 0 512 512" xml:space="preserve"><g><path fill-rule="evenodd" d="m81.93 362.011.3 2.088c-.536-.141-1.42-1.203-1.837-1.635.131.852.119.414-.877.474-50.592-47.358-54.374-149.671-17.163-210.826l-3.657 1.979c-.489.552-.825-.048-1.123.076-.695.29-3.488 1.536-4.469 1.581-.837.038-1.271 1.577-1.853 1.041-1.212-.437-2.055 1.703-3.886.196l.338-.954c-.546-.271-.164-.352-.48-.861-.187-.302-1.319.22.06-1.957 5.575-11.74 19.731-16.6 29.355-24.467 13.565-6.177 10.483 18.376 11.131 26.489-.447 7.189-.286 15.61-8.585 18.777-.822-.757-.888-.339-.921-.703-.041-.457-.758-.277-.883-.839-.299-1.345-1.557-.83-1.308-2.671-.939-4.871-3.2-9.496-2.911-14.269-30.479 65.882-27.787 143.654 8.769 206.481zM135.948 79.73c54.305-52.261 149.319-54.235 212.504-17.011l-2.235-4.3c-.559-.539.067-.818-.06-1.123-.261-.607-1.489-3.529-1.521-4.497-.027-.849-1.568-1.254-1.003-1.864.401-1.219-1.663-2.106-.158-3.881l.954.354c.235-.542.367-.179.861-.474.319-.191-.199-1.322 1.962.087 7.471 3.352 10.59 9.42 14.966 15.757 3.298 7.019 18.488 20.891 3.391 23.796-11.384 0-34.437 5.397-39.608-7.947.797-.818.354-.89.719-.91.447-.025.28-.76.861-.872 1.327-.256.844-1.561 2.687-1.27 4.858-.791 8.755-2.94 13.664-2.698-66.798-31.324-144.722-25.701-208.035 9.353.139-.515 1.207-1.43 1.635-1.842-.841.13-.402.141-.463-.872-.401-.162-.723.253-1.121.214zm326.254 176.849c-.383 32.072-7.639 65.02-25.235 92.302l4.824-2.426c.526-.548.822.064 1.123-.054.646-.256 3.57-1.447 4.502-1.472.876-.024 1.294-1.547 1.886-.981 1.196.423 2.124-1.631 3.891-.115l-.37.943c.513.256.2.435.463.883.17.289 1.333-.172-.109 1.951-4.822 9.709-14.769 13.745-23.453 19.36-5.1 4.573-15.047 9.358-16.303-1.423.135-11.396-5.02-34.513 8.378-39.52.828.786.875.352.91.72.048.503.749.278.861.872.254 1.347 1.528.856 1.237 2.698.67 4.62 2.807 8.714 2.524 13.212 31.049-66.819 25.461-144.331-9.555-207.626.532.141 1.411 1.206 1.831 1.635-.125-.749-.158-.463.883-.463 30.743 23.991 41.319 78.46 41.712 119.504zM364.051 420.28c-53.603 51.934-148.344 54.06-211.441 17.714l1.739 3.074c.555.478-.035.825.087 1.123.294.698 1.589 3.502 1.641 4.442.047.862 1.599 1.254 1.057 1.842-.412 1.212 1.721 2.062.245 3.881l-.948-.327c-.215.504-.476.249-.867.49-.293.181.259 1.342-1.951-.033-7.63-3.244-10.783-9.071-15.386-15.36-3.385-6.697-19.01-20.563-4.017-23.698 11.335-.284 34.316-6.307 39.803 6.901-.763.873-.329.889-.681.937-.499.069-.255.761-.845.888-1.343.29-.741 1.563-2.654 1.346-5.098 1.07-9.845 3.479-14.858 3.057 67.035 32.029 145.433 26.411 209.125-8.791-.144.531-1.201 1.423-1.635 1.842.801-.123.431-.168.463.877.404.161.731-.248 1.123-.205zm30.081-134.722c-7.247 29.173-24.038 56.106-47.015 75.798 13.067-49.899-19.947-102.479-69.645-114.736 36.843-22.884 15.904-89.704-24.87-79.156-.633.935-.936.496-.163.986-.604.087-2.012.172-2.442.512 2.604 2.318 7.31 1.312 9.985 3.221.423.857 3.894.835 5.799 2.235 15.126 8.976 23.6 27.958 17.266 44.824-21.004 48.069-89.05 11.158-61.042-32.464 1.188-2.403 1.145-2.507 3.394-4.975 1.569-1.448.185-1.142 4.17-4.164l6.644-4.224c1.666-.785 4.722-1.441 5.412-2.038 1.979-1.712 4.072-1.353 4.971-2.224.713-.691 1.603-.345 1.815-.632.371-.501.97-.627 1.586-.867-1.447-.527-1.483-1.016-1.842-1.183-2.205-1.024-.814-1.494-4.371-1.946-44.334-3.71-57.569 62.153-21.932 83.151-49.475 14.98-79.108 64.883-66.838 115.297-31.547-26.381-50.747-64.529-52.699-105.737 2.288-.086 7.322.061 8.666-1.755.183-.414 1.159-.098 1.88-.752.594-.539 1.092.066 1.297-.54.457-1.347.75-.605.91-1.433.122-.629.273-.252.311-.54.065-.469.158-.572.262-.779-.828-7.186-6.375-9.484-13.31-8.906 4.386-77.901 63.541-136.612 140.292-145.061.332 2.963-.153 9.411.883 12.154.33.261.603.491.583.752.416.183-.032.454.485.671.441.184.068 1.08.763 1.875.512.586-.057 1.087.529 1.303 1.429.525.58.734 1.433.899.639.124.267.28.539.316.48.06.583.163.785.267 4.156-.533 8.844-3.617 8.481-7.936l.54-3.962-.529-5.064c75.126 4.383 139.021 68.676 141.257 144.135-.715.081-7.083.062-7.505.61-.513-.203-.76.8-1.145.627-.083-.05.05.218-.393.24-.225.011-.348.678-1.406.643-.592-.019-.909.753-1.346.632-.947-.261-.755.987-1.406 1.264-.281.12-.219.854-.441.877-1.13 7.892 6.924 10.628 13.593 9.778-.534 9.443-2.005 18.823-4.191 28.007zm-67.176 90.346a150.786 150.786 0 0 0 14.089-9.609c3.383-145.715-188.813-144.717-181.127.616 23.397 18.12 53.024 29.218 82.524 30.511.034-2.472.065-7.988 2.054-9.527 1.169-1.542 6.43-4.568 8.203-2.893.813.155.121.463 1.433.904.587.198.014.73.534 1.297.668.728.318 1.673.758 1.881 2.042 1.994 1.647 5.512 1.739 8.252 24.892-1.719 48.36-8.484 69.793-21.432zM257.911 96.022c.768.087 1.499.191 1.962.403-2.519.815-3.105.414-.436.959a33.042 33.042 0 0 0-2.633-.016l-.12-1.439c.399.038.813.06 1.227.093zM412.62 255.903c2.759-.742 5.404-.261 8.41-1.662 1.593-1.601 5.093-3.909 4.213-6.225.891-.537-.126-2.555-.899-2.033-.969-.359-.265-.912-.659-.709-1.273.655-.391.075-2.546-.512-.002-.001-.835-.074-.927-.355-.225-.689-.336-.267-.616-.31-3.614-.468-5.53-.471-9.413-1.155-1.96-80.028-72.898-150.281-153.591-147.433-1.252-6.051.455-20.315-8.645-20.684-.611-.567-.573-.48-1.543-.087-1.133.458-.001 1.34-.916 1.472-.761.109.336.729-.06 1.106-.495.692-.862 2.464-1.085 2.529-.676.196-.272.386-.311.627.01 4.398-1.966 10.138-1.412 14.765C160.577 87.623 89.046 164.5 87.653 244.212c-2.765.726-5.722.283-8.677 1.667-1.56 1.608-5.101 3.872-4.213 6.231-.871.487.078 2.559.894 2.028.867.281.339.85.665.719 1.552-.623-.003-.208 2.535.507.003.001.843.075.932.349.229.706.367.261.616.316l7.227.741c1.684 82.715 74.038 153.563 156.496 154.654.943 6.338.012 9.81 6.17 13.986l1.755-.109c.671.575.485.494 1.542.082.949-.37.286-.576.632-1.335l.567-.305c-.635-1.496-.198-.068.507-2.535 1.034-1.122 1.226-8.09 1.662-9.827 81.395-2.583 152.524-73.855 153.313-155.406z" clip-rule="evenodd" fill="#e1bb23" opacity="1" data-original="#000000"></path></g></svg>